<?xml version="1.0" encoding="UTF-8"?>
<svg version="1.1" xmlns="http://www.w3.org/2000/svg" width="2000" height="1031">
<path d="M0 0 C1.3799782 0.20985232 2.76019698 0.41812735 4.140625 0.625 C33.64840338 5.2270688 63.28431988 17.7664886 87 36 C87 36.66 87 37.32 87 38 C87.7425 38.268125 88.485 38.53625 89.25 38.8125 C91.89061949 39.95276751 93.85552844 41.09380306 96 43 C96 43.66 96 44.32 96 45 C96.86625 45.4021875 96.86625 45.4021875 97.75 45.8125 C100.05550043 47.02929189 102.02056192 48.30333879 104 50 C104 50.66 104 51.32 104 52 C104.54140625 52.20625 105.0828125 52.4125 105.640625 52.625 C108.92118012 54.53684669 111.23844174 57.20498504 113.75 60 C114.25660156 60.5465625 114.76320313 61.093125 115.28515625 61.65625 C119 65.74157682 119 65.74157682 119 68 C119.99 68.33 120.98 68.66 122 69 C123.4387207 70.60717773 123.4387207 70.60717773 124.92578125 72.68359375 C125.74526245 73.81994263 125.74526245 73.81994263 126.58129883 74.97924805 C127.43824341 76.19608276 127.43824341 76.19608276 128.3125 77.4375 C128.89990967 78.26354736 129.48731934 79.08959473 130.0925293 79.94067383 C134.00531763 85.48447249 137.73252585 91.04819865 141 97 C141.91458984 98.59908203 141.91458984 98.59908203 142.84765625 100.23046875 C162.08458872 134.45551341 167.57942169 171.23328084 167 210 C166.98324219 211.25683594 166.96648437 212.51367188 166.94921875 213.80859375 C166.60398874 221.70942914 165.12870926 229.42643368 163.6875 237.1875 C163.38646362 238.82803345 163.38646362 238.82803345 163.0793457 240.50170898 C161.68566418 247.64290934 159.62361489 254.22409829 157 261 C156.24967277 263.22905654 155.49962426 265.45820695 154.75 267.6875 C151.84453668 275.81746618 148.0501817 283.38696305 144 291 C143.68691895 291.598125 143.37383789 292.19625 143.05126953 292.8125 C134.53778066 308.96514378 123.06799681 323.2950031 110 336 C109.21625 336.78375 108.4325 337.5675 107.625 338.375 C106.75875 339.24125 105.8925 340.1075 105 341 C104.44054688 341.57105469 103.88109375 342.14210938 103.3046875 342.73046875 C100.0327868 346.05194371 96.80675693 349.28088791 93 352 C92.34 352 91.68 352 91 352 C91 352.66 91 353.32 91 354 C89.68 354.33 88.36 354.66 87 355 C87 355.66 87 356.32 87 357 C85.3034668 358.32861328 85.3034668 358.32861328 82.94921875 359.8203125 C81.68368164 360.62275391 81.68368164 360.62275391 80.39257812 361.44140625 C79.49990234 361.99699219 78.60722656 362.55257813 77.6875 363.125 C76.80642578 363.68832031 75.92535156 364.25164062 75.01757812 364.83203125 C68.38213151 369 68.38213151 369 65 369 C65 369.66 65 370.32 65 371 C64.35675781 371.29132813 63.71351563 371.58265625 63.05078125 371.8828125 C62.14714844 372.29273438 61.24351562 372.70265625 60.3125 373.125 C59.29414062 373.58390625 58.27578125 374.0428125 57.2265625 374.515625 C55.18637207 375.45421139 53.15818312 376.41975527 51.1484375 377.421875 C40.82563499 382.48794694 30.07590712 385.97279983 19 389 C17.56769043 389.39396973 17.56769043 389.39396973 16.10644531 389.79589844 C0.16747487 393.95040365 -15.50092285 394.44929642 -31.875 394.4375 C-32.8738623 394.43781219 -33.87272461 394.43812439 -34.90185547 394.43844604 C-45.74794557 394.41269528 -56.33674397 394.20371369 -67 392 C-67.82048828 391.83516113 -68.64097656 391.67032227 -69.48632812 391.50048828 C-94.55605459 386.17928468 -116.85649215 376.74130412 -139 364 C-139 363.34 -139 362.68 -139 362 C-139.71671875 361.74605469 -140.4334375 361.49210937 -141.171875 361.23046875 C-144.22190824 359.90345153 -146.58359702 358.29670923 -149.25 356.3125 C-150.68472656 355.24515625 -150.68472656 355.24515625 -152.1484375 354.15625 C-153.55996094 353.08890625 -153.55996094 353.08890625 -155 352 C-155.83789062 351.3709375 -156.67578125 350.741875 -157.5390625 350.09375 C-161.65167078 346.95771425 -165.43457907 343.76349987 -169 340 C-169.886875 339.154375 -170.77375 338.30875 -171.6875 337.4375 C-173.71171046 335.30387276 -174.90335323 333.69176935 -176 331 C-176.66 331 -177.32 331 -178 331 C-193.44237914 314.96901 -205.26759347 294.31870011 -214 274 C-214.50273438 272.85402344 -215.00546875 271.70804687 -215.5234375 270.52734375 C-234.90889535 224.5237826 -234.36326767 167.26202295 -215.7668457 121.1862793 C-210.64951845 109.16388136 -204.18066215 97.89536959 -197 87 C-195.22168222 84.13890099 -193.44485344 81.27698206 -191.67578125 78.41015625 C-189.98269636 75.97511341 -188.13153233 74.05242391 -186 72 C-185.46375 71.2575 -184.9275 70.515 -184.375 69.75 C-183.92125 69.1725 -183.4675 68.595 -183 68 C-182.34 68 -181.68 68 -181 68 C-180.690625 67.38125 -180.38125 66.7625 -180.0625 66.125 C-179.375 64.75 -178.6875 63.375 -178 62 C-177.34 62 -176.68 62 -176 62 C-176 61.34 -176 60.68 -176 60 C-175.34 60 -174.68 60 -174 60 C-173.73832031 59.40058594 -173.47664062 58.80117187 -173.20703125 58.18359375 C-171.92779812 55.86938236 -170.73749558 54.70340555 -168.6875 53.0625 C-166.38606201 51.17819765 -164.23825441 49.27951281 -162.1875 47.125 C-160 45 -160 45 -158 45 C-158 44.34 -158 43.68 -158 43 C-156.68652344 41.77905273 -156.68652344 41.77905273 -154.859375 40.43359375 C-153.87130859 39.7055957 -153.87130859 39.7055957 -152.86328125 38.96289062 C-152.16589844 38.45951172 -151.46851563 37.95613281 -150.75 37.4375 C-149.72712891 36.67663086 -149.72712891 36.67663086 -148.68359375 35.90039062 C-145.45481522 33.54620356 -142.97538948 31.78115417 -139 31 C-139 30.34 -139 29.68 -139 29 C-136.46174351 27.6068613 -133.92049377 26.21973514 -131.375 24.83984375 C-129.09575506 23.5973387 -126.82503628 22.33908291 -124.5625 21.06640625 C-106.6409235 11.08548179 -87.34244783 4.68258276 -67.25 0.75 C-66.42330811 0.58669189 -65.59661621 0.42338379 -64.74487305 0.25512695 C-43.84750287 -3.60743965 -20.92081504 -3.59155623 0 0 Z M-61 16 C-62.28648437 16.19464844 -63.57296875 16.38929688 -64.8984375 16.58984375 C-83.96591878 19.65115815 -101.94644921 27.11957954 -119 36 C-119 36.66 -119 37.32 -119 38 C-119.55171875 38.10441406 -120.1034375 38.20882812 -120.671875 38.31640625 C-123.49588509 39.14560384 -125.72554916 40.4279965 -128.25 41.9375 C-129.14203125 42.46214844 -130.0340625 42.98679687 -130.953125 43.52734375 C-131.62859375 44.01332031 -132.3040625 44.49929687 -133 45 C-133 45.66 -133 46.32 -133 47 C-133.70511719 47.2475 -134.41023437 47.495 -135.13671875 47.75 C-138.36887443 49.16103659 -140.96328902 50.9250726 -143.8125 53 C-144.78832031 53.70125 -145.76414062 54.4025 -146.76953125 55.125 C-147.87361328 56.053125 -147.87361328 56.053125 -149 57 C-149 57.66 -149 58.32 -149 59 C-149.86625 59.3403125 -149.86625 59.3403125 -150.75 59.6875 C-153.5663661 61.33038023 -155.08077114 63.39533227 -157 66 C-154.03216871 64.54331217 -151.13584687 62.98767914 -148.25 61.375 C-147.45078125 60.92898437 -146.6515625 60.48296875 -145.828125 60.0234375 C-144.92320312 59.51683594 -144.92320312 59.51683594 -144 59 C-144 58.34 -144 57.68 -144 57 C-143.12988281 56.73960937 -142.25976562 56.47921875 -141.36328125 56.2109375 C-137.9866046 54.99517703 -135.24170781 53.49759328 -132.1875 51.625 C-127.23195648 48.67846061 -122.34506802 46.14678961 -117 44 C-115.57300781 43.41798828 -115.57300781 43.41798828 -114.1171875 42.82421875 C-102.2813033 38.1276701 -90.41558737 34.33205625 -77.9375 31.8125 C-77.17171631 31.65773193 -76.40593262 31.50296387 -75.61694336 31.34350586 C-62.1439161 28.75800058 -48.99970316 27.590852 -35.3125 27.625 C-34.5248526 27.62521149 -33.7372052 27.62542297 -32.9256897 27.62564087 C-20.54914925 27.65872526 -8.94015226 28.52180696 3 32 C4.27359375 32.33902344 5.5471875 32.67804688 6.859375 33.02734375 C21.38164755 37.33194142 34.99292083 44.78263061 46.75 54.28515625 C48.97187648 56.17037769 48.97187648 56.17037769 52 57 C52 57.66 52 58.32 52 59 C52.66 59 53.32 59 54 59 C54 59.66 54 60.32 54 61 C56.33333333 63.66666667 56.33333333 63.66666667 59 66 C59.66 66 60.32 66 61 66 C61 66.66 61 67.32 61 68 C62.64488294 69.68816933 64.31337542 71.35353315 66 73 C66.66 73.99 67.32 74.98 68 76 C68.66 76 69.32 76 70 76 C70.185625 76.78375 70.37125 77.5675 70.5625 78.375 C71.86142495 81.65054988 73.10208184 83.60691133 75.1875 86.375 C82.80651802 96.9463875 86.8784643 109.46656119 90 122 C90.32097656 123.21236328 90.32097656 123.21236328 90.6484375 124.44921875 C95.54693736 144.22070008 93.53304166 165.58021758 88.49658203 185.06396484 C88.06075245 186.76314311 87.65126295 188.46903225 87.24609375 190.17578125 C85.85931556 195.77836513 83.88453272 200.64068833 81.1796875 205.73828125 C79.87253423 208.15236084 79.87253423 208.15236084 78.625 211.4375 C71.44805154 227.17157931 56.38460465 247.05538938 40.16796875 254.2578125 C39.45253906 254.50273437 38.73710938 254.74765625 38 255 C38 255.66 38 256.32 38 257 C37.01 257 36.02 257 35 257 C35 257.66 35 258.32 35 259 C34.14341797 259.17789063 34.14341797 259.17789063 33.26953125 259.359375 C30.83221342 260.04736144 28.90898724 261.03758209 26.6875 262.25 C20.05487609 265.62466348 13.09149179 267.82821942 6 270 C4.23849609 270.56074219 4.23849609 270.56074219 2.44140625 271.1328125 C-22.05197533 278.37620026 -52.50158038 278.88043021 -76 268 C-76.7321875 267.69191406 -77.464375 267.38382813 -78.21875 267.06640625 C-85.64019386 263.91751898 -92.91330148 260.19835117 -99.5625 255.625 C-101.78909836 253.81509993 -101.78909836 253.81509993 -104 254 C-104 253.34 -104 252.68 -104 252 C-105.65 251.34 -107.3 250.68 -109 250 C-109 249.34 -109 248.68 -109 248 C-111.63684747 245.60179695 -111.63684747 245.60179695 -115 245 C-115 244.34 -115 243.68 -115 243 C-115.66 243 -116.32 243 -117 243 C-117.33 242.01 -117.66 241.02 -118 240 C-118.66 240 -119.32 240 -120 240 C-120 239.34 -120 238.68 -120 238 C-122.33333333 235.33333333 -122.33333333 235.33333333 -125 233 C-125.66 233 -126.32 233 -127 233 C-129.79220571 225.82004245 -131.53702112 219.58133172 -128.75 212.0625 C-127 209 -127 209 -124.8125 208.0625 C-123.9153125 208.0315625 -123.9153125 208.0315625 -123 208 C-122.01 210.475 -122.01 210.475 -121 213 C-120.34 213 -119.68 213 -119 213 C-118.5978125 214.11375 -118.5978125 214.11375 -118.1875 215.25 C-117.04723249 217.89061949 -115.90619694 219.85552844 -114 222 C-113.34 222 -112.68 222 -112 222 C-111.773125 222.55171875 -111.54625 223.1034375 -111.3125 223.671875 C-109.61274074 226.68692417 -107.45195184 228.81230369 -105 231.25 C-104.113125 232.14203125 -103.22625 233.0340625 -102.3125 233.953125 C-100.26510897 236.22093073 -100.26510897 236.22093073 -98 236 C-98 236.66 -98 237.32 -98 238 C-94.77885843 240.31592022 -94.77885843 240.31592022 -91 241 C-91 241.66 -91 242.32 -91 243 C-88.09451118 245.04169485 -86.59857954 246 -83 246 C-83 246.66 -83 247.32 -83 248 C-58.61851588 259.50692868 -33.68007188 263.30266429 -7 258 C-5.989375 257.80535156 -4.97875 257.61070312 -3.9375 257.41015625 C7.94757081 254.79482166 18.48176773 248.94417134 29 243 C29 242.34 29 241.68 29 241 C29.78375 240.690625 30.5675 240.38125 31.375 240.0625 C33.92330128 239.07124962 33.92330128 239.07124962 36 238 C36 237.34 36 236.68 36 236 C36.58910156 235.72671875 37.17820312 235.4534375 37.78515625 235.171875 C43.56430084 232.11412654 48.11643364 227.17808848 52 222 C52 221.34 52 220.68 52 220 C52.66 220 53.32 220 54 220 C55.48358716 218.03009174 56.81447956 216.08226213 58.125 214 C58.52098389 213.37569092 58.91696777 212.75138184 59.32495117 212.1081543 C74.09231443 188.35861072 82.29703809 161.92269044 76.6875 133.875 C71.92928594 113.97701391 64.46494581 96.26042847 52 80 C51.34 80 50.68 80 50 80 C50 79.34 50 78.68 50 78 C48.66666667 76.33333333 48.66666667 76.33333333 47 75 C46.34 75 45.68 75 45 75 C45 74.34 45 73.68 45 73 C44.34 73 43.68 73 43 73 C43 72.34 43 71.68 43 71 C40.95087041 69.34190254 38.90912632 67.81591239 36.75 66.3125 C35.79154175 65.64202637 35.79154175 65.64202637 34.8137207 64.95800781 C18.86456888 53.92253359 2.73647511 48.33406008 -16 44 C-16.57194092 43.8242041 -17.14388184 43.6484082 -17.7331543 43.46728516 C-20.99588679 42.79470896 -24.24445688 42.79749344 -27.5625 42.76171875 C-28.30189316 42.75187958 -29.04128632 42.74204041 -29.80308533 42.73190308 C-45.56223388 42.56557363 -60.77271034 42.42375634 -76 47 C-76.8554541 47.25201172 -77.7109082 47.50402344 -78.59228516 47.76367188 C-103.13096207 55.14252767 -126.06323895 66.2261003 -147 81 C-148.12366722 81.77869013 -149.24736436 82.55733709 -150.37109375 83.3359375 C-154.2721307 86.05605599 -154.2721307 86.05605599 -158 89 C-158 89.66 -158 90.32 -158 91 C-158.556875 91.061875 -159.11375 91.12375 -159.6875 91.1875 C-162.96489609 92.33901755 -164.6195768 94.5034586 -167 97 C-168.3921875 98.0828125 -168.3921875 98.0828125 -169.8125 99.1875 C-170.534375 99.785625 -171.25625 100.38375 -172 101 C-172 101.66 -172 102.32 -172 103 C-172.66 103 -173.32 103 -174 103 C-174 103.66 -174 104.32 -174 105 C-174.66 105 -175.32 105 -176 105 C-177.58533702 106.71332754 -179.09541215 108.49689047 -180.5625 110.3125 C-181.36816406 111.29863281 -182.17382812 112.28476562 -183.00390625 113.30078125 C-185.13643993 115.89295622 -185.13643993 115.89295622 -186 119 C-186.66 119 -187.32 119 -188 119 C-190.31592022 122.22114157 -190.31592022 122.22114157 -191 126 C-191.66 126 -192.32 126 -193 126 C-193.54269531 126.95261719 -194.08539062 127.90523438 -194.64453125 128.88671875 C-195.36715839 130.15366244 -196.08981627 131.42058859 -196.8125 132.6875 C-197.16892578 133.31333984 -197.52535156 133.93917969 -197.89257812 134.58398438 C-198.41948242 135.50727539 -198.41948242 135.50727539 -198.95703125 136.44921875 C-199.30652832 137.06369873 -199.65602539 137.67817871 -200.01611328 138.3112793 C-200.81910214 139.68951104 -201.67397232 141.0374055 -202.54296875 142.375 C-211.58160801 158.65909004 -217.56149539 184.58253364 -213 203 C-212.34 203.33 -211.68 203.66 -211 204 C-210.84144531 203.23558594 -210.68289063 202.47117187 -210.51953125 201.68359375 C-204.95366778 176.12982281 -193.87678052 153.39648512 -179 132 C-178.56719727 131.37448242 -178.13439453 130.74896484 -177.68847656 130.10449219 C-177.25760742 129.48993164 -176.82673828 128.87537109 -176.3828125 128.2421875 C-175.99754395 127.69159668 -175.61227539 127.14100586 -175.21533203 126.57373047 C-173.92397677 124.9015577 -172.51562998 123.46959449 -171 122 C-169.77928011 120.67799767 -168.57140526 119.34404676 -167.375 118 C-166.76398437 117.319375 -166.15296875 116.63875 -165.5234375 115.9375 C-163.80413324 113.97539381 -163.80413324 113.97539381 -163 111 C-161.68041573 110.30651635 -160.34478121 109.64326177 -159 109 C-157.11873401 107.32216292 -157.11873401 107.32216292 -155.375 105.4375 C-152.19444444 102.09722222 -152.19444444 102.09722222 -150 101 C-150 100.34 -150 99.68 -150 99 C-149.443125 98.731875 -148.88625 98.46375 -148.3125 98.1875 C-145.78774666 96.89100504 -143.36285516 95.57523677 -141 94 C-141 93.34 -141 92.68 -141 92 C-140.21625 91.690625 -139.4325 91.38125 -138.625 91.0625 C-136.07669872 90.07124962 -136.07669872 90.07124962 -134 89 C-134 88.34 -134 87.68 -134 87 C-133.40920654 86.87471924 -132.81841309 86.74943848 -132.2097168 86.62036133 C-128.72939553 85.64328738 -125.85177284 83.59045109 -122.8125 81.6875 C-117.33907305 78.34052035 -111.97867353 75.35873593 -106 73 C-104.85917969 72.52949219 -103.71835937 72.05898437 -102.54296875 71.57421875 C-98.71316475 70.00147483 -94.86193843 68.49220448 -91 67 C-89.60201172 66.45666016 -89.60201172 66.45666016 -88.17578125 65.90234375 C-81.38119215 63.45232403 -74.41656439 61.86890927 -67.375 60.3125 C-66.40884766 60.09779053 -65.44269531 59.88308105 -64.44726562 59.66186523 C-53.31584062 57.28456517 -42.5585172 56.81818835 -31.1875 56.8125 C-29.91068359 56.80025391 -28.63386719 56.78800781 -27.31835938 56.77539062 C-19.01961879 56.76272079 -11.15243231 57.46036378 -3 59 C-1.81313599 59.21910034 -1.81313599 59.21910034 -0.60229492 59.44262695 C9.26007068 61.36905539 18.06057733 64.30466886 27 69 C28.24716797 69.63615234 28.24716797 69.63615234 29.51953125 70.28515625 C37.48691095 74.50637445 44.18108667 78.59839066 48 87 C48.36542262 88.65992626 48.70527469 90.32607471 49 92 C42.99094043 89.91522423 37.12618724 87.64561936 31.3125 85.0625 C23.69092206 81.77719442 15.99738847 79.19144215 8 77 C6.9788208 76.70150146 6.9788208 76.70150146 5.93701172 76.39697266 C-6.27461814 72.92540105 -18.39656288 72.62825394 -31 72.625 C-31.79973236 72.62309662 -32.59946472 72.62119324 -33.4234314 72.61923218 C-48.58056348 72.62331352 -62.37489226 75.10807944 -77 79 C-78.39605469 79.37125 -78.39605469 79.37125 -79.8203125 79.75 C-97.51294952 84.75627671 -113.83505581 93.78765783 -129 104 C-129.57073242 104.35771484 -130.14146484 104.71542969 -130.72949219 105.08398438 C-132.18585102 106.0060325 -133.59764936 106.99771936 -135 108 C-135 108.66 -135 109.32 -135 110 C-135.56332031 110.24621094 -136.12664062 110.49242187 -136.70703125 110.74609375 C-141.40510324 113.31522682 -145.11367659 117.36124978 -149 121 C-149.73605469 121.6703125 -150.47210937 122.340625 -151.23046875 123.03125 C-166.4598022 137.45611957 -177.13102868 156.2027774 -186 175 C-186.46277344 175.97195313 -186.92554688 176.94390625 -187.40234375 177.9453125 C-199.5998546 205.30203012 -206.42824703 243.24041652 -196.203125 272.26171875 C-194.36113488 276.955562 -192.24554752 281.48726114 -190 286 C-189.39865234 287.21042969 -189.39865234 287.21042969 -188.78515625 288.4453125 C-188.52605469 288.95835937 -188.26695312 289.47140625 -188 290 C-187.34 290 -186.68 290 -186 290 C-185.90847656 290.55558594 -185.81695313 291.11117188 -185.72265625 291.68359375 C-184.80029942 294.64012132 -183.29936603 296.58851364 -181.4375 299.0625 C-177.76065331 303.97821215 -174.19140882 308.95645955 -170.6640625 313.98046875 C-169.84035156 314.98013672 -169.84035156 314.98013672 -169 316 C-168.34 316 -167.68 316 -167 316 C-168.44631592 312.36088253 -169.93068763 308.73947204 -171.4375 305.125 C-171.84871094 304.13757813 -172.25992188 303.15015625 -172.68359375 302.1328125 C-173.58816801 299.98008682 -174.52917804 297.84242304 -175.5 295.71875 C-177.3509181 291.3997433 -178.45001046 286.93024109 -179.5625 282.375 C-179.77068359 281.56160156 -179.97886719 280.74820312 -180.19335938 279.91015625 C-183.18163685 267.86336994 -184.33006106 256.20147053 -184.26074219 243.8347168 C-184.25002872 241.56857459 -184.26069962 239.30322763 -184.2734375 237.03710938 C-184.28537992 225.3998101 -183.49441107 213.9416136 -180.0625 202.75 C-179.53462891 201.01169922 -179.53462891 201.01169922 -178.99609375 199.23828125 C-178.66738281 198.16964844 -178.33867188 197.10101563 -178 196 C-177.76410156 195.12730469 -177.52820313 194.25460937 -177.28515625 193.35546875 C-175.32942166 186.19215684 -172.28390242 179.64525537 -169 173 C-168.4740625 171.93523437 -167.948125 170.87046875 -167.40625 169.7734375 C-161.31786135 157.97000479 -153.79015116 147.47621333 -144.6171875 137.890625 C-142.78332826 136.16134669 -142.78332826 136.16134669 -143 134 C-142.34 134 -141.68 134 -141 134 C-141 133.34 -141 132.68 -141 132 C-140.42507813 131.74347656 -139.85015625 131.48695313 -139.2578125 131.22265625 C-136.78504717 129.88359821 -134.95153746 128.32849133 -132.875 126.4375 C-129.19444444 123.09722222 -129.19444444 123.09722222 -127 122 C-127 121.34 -127 120.68 -127 120 C-126.21496094 119.63841797 -126.21496094 119.63841797 -125.4140625 119.26953125 C-122.264598 117.61325946 -119.34145724 115.64493633 -116.375 113.6875 C-110.74866018 110.02946988 -105.0922709 106.82989744 -99 104 C-97.56140625 103.27876953 -97.56140625 103.27876953 -96.09375 102.54296875 C-61.00502924 85.38944808 -17.77452725 83.07556395 19.1640625 95.26171875 C30.01629821 99.05364851 40.6056659 103.67314302 50.25 109.96875 C51.94863782 111.16923077 51.94863782 111.16923077 54 111 C54 111.66 54 112.32 54 113 C54.598125 113.268125 55.19625 113.53625 55.8125 113.8125 C57.97779089 114.98794363 59.27644111 116.27644111 61 118 C61.66 118 62.32 118 63 118 C63 118.66 63 119.32 63 120 C63.66 120 64.32 120 65 120 C65.69419563 121.65538958 66.35103764 123.32636023 67 125 C67.26425781 125.66644531 67.52851562 126.33289063 67.80078125 127.01953125 C69.85369608 132.57504957 70.28167578 137.08480861 70 143 C63.97019109 140.69947049 58.98085737 137.47514092 53.6875 133.8125 C52.09008683 132.71070428 50.48995849 131.61283129 48.88671875 130.51953125 C48.18764404 130.03589111 47.48856934 129.55225098 46.76831055 129.05395508 C45.0567643 127.8293393 45.0567643 127.8293393 43 128 C43 127.34 43 126.68 43 126 C40.73526794 124.46300184 38.48773297 123.05901023 36.125 121.6875 C35.43535156 121.28305664 34.74570313 120.87861328 34.03515625 120.46191406 C16.66231101 110.35481484 -3.68108258 102.67918387 -24 102 C-25.63582031 101.92265625 -25.63582031 101.92265625 -27.3046875 101.84375 C-56.4794137 101.09085384 -84.96168521 110.39077389 -109.1875 126.25 C-109.86022949 126.68658936 -110.53295898 127.12317871 -111.22607422 127.57299805 C-112.85507692 128.66090437 -114.43315404 129.82433691 -116 131 C-116 131.66 -116 132.32 -116 133 C-116.55558594 133.25007813 -117.11117187 133.50015625 -117.68359375 133.7578125 C-120.39791716 135.21338559 -122.65704853 136.95209007 -125.0625 138.875 C-125.91972656 139.55304688 -126.77695312 140.23109375 -127.66015625 140.9296875 C-129.8152856 142.83656322 -131.45570467 144.5797601 -133 147 C-133 147.66 -133 148.32 -133 149 C-133.60585938 149.26554688 -134.21171875 149.53109375 -134.8359375 149.8046875 C-150.33079331 158.36321797 -160.58617443 189.54866086 -165.1875 205.125 C-165.84188994 207.4028339 -166.44016598 209.69710197 -167 212 C-167.18095215 212.74161377 -167.3619043 213.48322754 -167.54833984 214.24731445 C-169.28270329 222.33407307 -169.30475756 230.32148549 -169.26074219 238.55151367 C-169.25003473 240.92978499 -169.26068418 243.30729859 -169.2734375 245.68554688 C-169.28737812 258.27064608 -167.75956809 269.72805397 -163.875 281.75 C-163.56860596 282.69955566 -163.26221191 283.64911133 -162.9465332 284.62744141 C-158.94740181 296.61573975 -153.21090455 307.25514142 -146.625 318 C-145.98147583 319.0526001 -145.98147583 319.0526001 -145.32495117 320.12646484 C-144.2744291 321.78893541 -143.14425351 323.40059732 -142 325 C-141.34 325 -140.68 325 -140 325 C-139.67 326.32 -139.34 327.64 -139 329 C-138.34 329 -137.68 329 -137 329 C-136.773125 329.53625 -136.54625 330.0725 -136.3125 330.625 C-134.54429911 333.82460161 -132.46329797 336.29037223 -130 339 C-129.34 339 -128.68 339 -128 339 C-128 339.66 -128 340.32 -128 341 C-127.34 341 -126.68 341 -126 341 C-125.79761719 341.55816406 -125.59523438 342.11632812 -125.38671875 342.69140625 C-123.47147096 345.87988919 -120.76047374 347.76927829 -117.8125 349.9375 C-117.21880615 350.38134033 -116.6251123 350.82518066 -116.01342773 351.2824707 C-114.84936255 352.15068729 -113.68286375 353.01565286 -112.51367188 353.87695312 C-111.35401848 354.73734113 -110.21194777 355.62147208 -109.078125 356.515625 C-87.72739598 373.02392063 -58.84907323 378.42175664 -32.57275391 378.26074219 C-30.50002835 378.25000015 -28.42816888 378.26073653 -26.35546875 378.2734375 C-13.15740707 378.28870504 -0.26417133 376.89832031 12.5625 373.6875 C13.44671631 373.4702124 14.33093262 373.2529248 15.24194336 373.02905273 C26.54105118 370.18918097 37.1958084 366.77043754 47.51171875 361.234375 C49.70843299 360.14463921 51.6063508 359.47088181 54 359 C54 358.34 54 357.68 54 357 C54.598125 356.855625 55.19625 356.71125 55.8125 356.5625 C57.56150404 356.1127561 59.28677023 355.57107659 61 355 C61 354.34 61 353.68 61 353 C62.65 352.67 64.3 352.34 66 352 C66 351.34 66 350.68 66 350 C66.58426758 349.88519287 67.16853516 349.77038574 67.77050781 349.65209961 C71.63197062 348.52266825 74.5542907 345.9396486 77.75 343.5625 C78.44738281 343.05912109 79.14476562 342.55574219 79.86328125 342.03710938 C80.52199219 341.55177734 81.18070313 341.06644531 81.859375 340.56640625 C82.46233398 340.12240479 83.06529297 339.67840332 83.68652344 339.22094727 C84.1199707 338.81803467 84.55341797 338.41512207 85 338 C85 337.34 85 336.68 85 336 C85.66 336 86.32 336 87 336 C87 335.34 87 334.68 87 334 C87.55171875 333.773125 88.1034375 333.54625 88.671875 333.3125 C91.68692417 331.61274074 93.81230369 329.45195184 96.25 327 C97.14203125 326.113125 98.0340625 325.22625 98.953125 324.3125 C101.22093073 322.26510897 101.22093073 322.26510897 101 320 C101.66 320 102.32 320 103 320 C102.67 319.34 102.34 318.68 102 318 C100.96101563 318.78503906 99.92203125 319.57007813 98.8515625 320.37890625 C95.23318133 323.10824173 91.60411413 325.82295115 87.96923828 328.53027344 C86.41082707 329.69338223 84.858586 330.86475777 83.30859375 332.0390625 C46.57153844 359.00086657 -6.93940305 370.22014679 -51.75 363.75 C-71.11691231 360.55212394 -89.03192079 352.93078974 -104.86328125 341.390625 C-106.8544773 339.81817568 -106.8544773 339.81817568 -109 340 C-109 339.34 -109 338.68 -109 338 C-109.66 338 -110.32 338 -111 338 C-111 337.34 -111 336.68 -111 336 C-111.7425 335.566875 -112.485 335.13375 -113.25 334.6875 C-116.32211384 332.80233924 -117.8265334 330.85267491 -120 328 C-121.2065625 326.7934375 -121.2065625 326.7934375 -122.4375 325.5625 C-138.89105772 309.10894228 -148.39162829 287.47467432 -153 265 C-153.26586914 263.89325928 -153.26586914 263.89325928 -153.53710938 262.76416016 C-154.13534548 259.19178193 -154.16241839 255.66966922 -154.16796875 252.05859375 C-154.17296135 250.91330956 -154.17296135 250.91330956 -154.17805481 249.74488831 C-154.18310498 248.13030598 -154.18546373 246.51571327 -154.18530273 244.90112305 C-154.18747128 242.46970637 -154.20559721 240.03875733 -154.22460938 237.60742188 C-154.26866257 225.81491708 -153.14343789 214.82886731 -149.6875 203.5 C-149.4723877 202.78295898 -149.25727539 202.06591797 -149.03564453 201.32714844 C-146.81313401 194.09955069 -144.37211178 186.79987574 -140.3515625 180.359375 C-138.75146654 178.01932315 -138.75146654 178.01932315 -139 175 C-138.34 175 -137.68 175 -137 175 C-135.7178645 173.11733552 -135.7178645 173.11733552 -134.4375 170.6875 C-125.91520101 155.9576005 -125.91520101 155.9576005 -120 153 C-120 152.34 -120 151.68 -120 151 C-119.1028125 150.566875 -119.1028125 150.566875 -118.1875 150.125 C-115.80672208 148.95257974 -115.80672208 148.95257974 -113 147 C-113 146.34 -113 145.68 -113 145 C-112.4740625 144.75765625 -111.948125 144.5153125 -111.40625 144.265625 C-108.92649223 142.96133682 -106.61497043 141.47497851 -104.28051758 139.9284668 C-94.07026005 133.17062872 -83.64001436 127.86496601 -72 124 C-70.19402344 123.36384766 -70.19402344 123.36384766 -68.3515625 122.71484375 C-40.08034356 113.0230636 -6.71113111 114.16098892 20.3125 127.10791016 C23.66923672 128.81804341 26.95932889 130.62154284 30.2265625 132.49609375 C32.7672008 134.15889399 32.7672008 134.15889399 35 134 C35 134.66 35 135.32 35 136 C36.71801282 137.36637653 36.71801282 137.36637653 38.875 138.625 C39.95394531 139.29402344 39.95394531 139.29402344 41.0546875 139.9765625 C42.92864762 141.15519998 42.92864762 141.15519998 45 141 C45 141.66 45 142.32 45 143 C46.94375954 144.81628776 46.94375954 144.81628776 49.375 146.625 C50.18710938 147.25664062 50.99921875 147.88828125 51.8359375 148.5390625 C53.84109879 150.18650808 53.84109879 150.18650808 56 150 C56 150.66 56 151.32 56 152 C56.66 152 57.32 152 58 152 C58.33 152.99 58.66 153.98 59 155 C59.66 155 60.32 155 61 155 C61.28617188 155.57621094 61.57234375 156.15242187 61.8671875 156.74609375 C62.58065591 158.16564986 63.31263041 159.57619839 64.0703125 160.97265625 C67.7098851 168.18440196 68.11170725 174.9005795 66 182.6875 C65.67 183.450625 65.34 184.21375 65 185 C64.01 185 63.02 185 62 185 C61.67 183.35 61.34 181.7 61 180 C60.34 180 59.68 180 59 180 C58.773125 179.46375 58.54625 178.9275 58.3125 178.375 C56.54429911 175.17539839 54.46329797 172.70962777 52 170 C51.34 170 50.68 170 50 170 C50 169.34 50 168.68 50 168 C49.34 168 48.68 168 48 168 C47.71189453 167.19369141 47.71189453 167.19369141 47.41796875 166.37109375 C45.33460963 162.88734999 42.40856483 160.64309097 39.3125 158.0625 C38.71244141 157.55009766 38.11238281 157.03769531 37.49414062 156.50976562 C26.64981783 147.34276021 15.35522394 141.83025231 2 137 C1.08734375 136.66355469 0.1746875 136.32710938 -0.765625 135.98046875 C-9.70470153 133.27067623 -18.28983044 132.65482523 -27.60229492 132.68432617 C-29.66705075 132.68746887 -31.73034376 132.66400865 -33.79492188 132.63867188 C-46.84424052 132.57391485 -59.08731296 134.64730095 -71.1875 139.75 C-72.03554199 140.09998047 -72.88358398 140.44996094 -73.75732422 140.81054688 C-84.68604238 145.42308734 -93.92451911 151.34055159 -103 159 C-103.64453125 159.51046875 -104.2890625 160.0209375 -104.953125 160.546875 C-106.34162794 161.64989136 -107.67846513 162.81757406 -109 164 C-109 164.66 -109 165.32 -109 166 C-109.66 166 -110.32 166 -111 166 C-111.103125 166.639375 -111.20625 167.27875 -111.3125 167.9375 C-111.539375 168.618125 -111.76625 169.29875 -112 170 C-112.99 170.33 -113.98 170.66 -115 171 C-119.28089918 176.18475492 -122.87294439 182.05620728 -126 188 C-126.46148438 188.84820312 -126.92296875 189.69640625 -127.3984375 190.5703125 C-135.74796486 206.46408286 -139.37469446 222.17910192 -139.37060547 240.05004883 C-139.37495921 242.16766092 -139.41135376 244.28314734 -139.44921875 246.40039062 C-139.55947658 259.95502788 -136.71004408 272.64154795 -131 285 C-130.56945312 285.95261719 -130.13890625 286.90523438 -129.6953125 287.88671875 C-117.21491665 314.23047323 -94.05526602 334.36050848 -66.90234375 344.32470703 C-29.02482797 357.77044736 18.5034235 347.47990624 54 331 C57.22241205 329.28786832 60.34151325 327.48761785 63.4453125 325.5703125 C66.86336686 323.46930661 70.38739848 321.74179002 74 320 C75.33427164 319.33521325 76.66783728 318.66900277 78 318 C78 317.34 78 316.68 78 316 C79.28003906 315.65775391 79.28003906 315.65775391 80.5859375 315.30859375 C84.56830279 313.78217227 87.33996395 311.72199764 90.625 309.0625 C91.74213348 308.17831716 92.85931971 307.29420096 93.9765625 306.41015625 C94.97429687 305.61480469 95.97203125 304.81945312 97 304 C97.79148437 303.44183594 98.58296875 302.88367188 99.3984375 302.30859375 C99.92695312 301.87675781 100.45546875 301.44492187 101 301 C101 300.34 101 299.68 101 299 C101.66 299 102.32 299 103 299 C103 298.34 103 297.68 103 297 C103.55171875 296.773125 104.1034375 296.54625 104.671875 296.3125 C107.68692417 294.61274074 109.81230369 292.45195184 112.25 290 C113.14203125 289.113125 114.0340625 288.22625 114.953125 287.3125 C117.22093073 285.26510897 117.22093073 285.26510897 117 283 C117.66 283 118.32 283 119 283 C120.3606009 281.51363242 120.3606009 281.51363242 121.625 279.625 C122.07101562 278.99851562 122.51703125 278.37203125 122.9765625 277.7265625 C124.16996969 276.04777357 124.16996969 276.04777357 124 274 C124.66 274 125.32 274 126 274 C128.25738098 271.18507311 130.0808617 268.05234377 132 265 C132.50015625 264.24203125 133.0003125 263.4840625 133.515625 262.703125 C138.08533633 255.53589355 141.00626528 247.91201319 144 240 C144.309375 239.2471875 144.61875 238.494375 144.9375 237.71875 C150.7738087 223.37115778 153.1451199 206.30572037 151 191 C149.06967662 194.5257048 147.90974927 198.17798273 146.6875 202 C143.18922596 212.67005795 138.79622299 222.71358625 133.59057617 232.65795898 C131.52929028 236.61799302 131.52929028 236.61799302 131 241 C130.34 241 129.68 241 129 241 C128.75765625 241.50789062 128.5153125 242.01578125 128.265625 242.5390625 C126.59935199 245.96133091 124.92095899 249.24261631 122.75 252.375 C120.81509993 254.75154054 120.81509993 254.75154054 121 257 C120.34 257 119.68 257 119 257 C118.731875 257.598125 118.46375 258.19625 118.1875 258.8125 C116.9858765 261.02601698 115.8026513 262.26668144 114 264 C111.00196907 267.09151037 111.00196907 267.09151037 110 271 C109.34 271 108.68 271 108 271 C107.9175 271.61875 107.835 272.2375 107.75 272.875 C106.75001343 275.70829527 105.64761518 275.67619241 103 277 C101.7487212 278.4758673 100.49978973 279.95484848 99.3046875 281.4765625 C97.45928591 283.63137274 95.20903526 285.23277179 93 287 C93 287.66 93 288.32 93 289 C92.34 289 91.68 289 91 289 C91 289.66 91 290.32 91 291 C90.1646875 291.0928125 90.1646875 291.0928125 89.3125 291.1875 C86.70952261 292.10205962 85.54521502 293.4128736 83.69140625 295.39453125 C79.24776381 299.61239971 73.83624158 304.05458614 68 306 C68 306.66 68 307.32 68 308 C67.33742188 308.24234375 66.67484375 308.4846875 65.9921875 308.734375 C62.96718111 310.01388162 60.1577372 311.49416052 57.28100586 313.07080078 C19.23143089 333.88151838 -29.6827556 342.66123695 -72.21582031 331.4140625 C-87.19931562 326.84067345 -100.90578724 316.73189786 -110 304 C-110.495 302.515 -110.495 302.515 -111 301 C-109.26848028 301.59738947 -107.53987853 302.20323967 -105.8125 302.8125 C-104.84957031 303.14894531 -103.88664063 303.48539062 -102.89453125 303.83203125 C-100.04098873 304.98346069 -97.63210721 306.4182834 -95 308 C-87.21057245 311.3123766 -79.12652154 313.61088422 -70.9375 315.6875 C-70.14786865 315.88972168 -69.3582373 316.09194336 -68.54467773 316.30029297 C-56.95172317 319.14203977 -45.60069011 320.33202738 -33.68920898 320.26074219 C-31.56790488 320.2500273 -29.44745047 320.26070444 -27.32617188 320.2734375 C-11.06333994 320.29028615 4.79110148 317.86105153 20 312 C21.33238824 311.50914571 22.66571831 311.02084002 24 310.53515625 C30.85508919 308.02002209 37.5940702 305.53701645 44 302 C44.84691406 301.54882812 45.69382812 301.09765625 46.56640625 300.6328125 C52.82686941 297.27184063 58.9381362 293.70502713 65 290 C65.79277344 289.53207031 66.58554688 289.06414062 67.40234375 288.58203125 C68.13582031 288.14246094 68.86929687 287.70289063 69.625 287.25 C70.27726562 286.86328125 70.92953125 286.4765625 71.6015625 286.078125 C72.06304688 285.72234375 72.52453125 285.3665625 73 285 C73 284.34 73 283.68 73 283 C74.051875 282.6596875 74.051875 282.6596875 75.125 282.3125 C79.68933515 280.22878178 83.72820442 276.81709485 87 273 C87 272.34 87 271.68 87 271 C87.66 271 88.32 271 89 271 C89 270.34 89 269.68 89 269 C89.66 269 90.32 269 91 269 C92.66666667 267.66666667 92.66666667 267.66666667 94 266 C94 265.34 94 264.68 94 264 C94.66 264 95.32 264 96 264 C98.39820305 261.36315253 98.39820305 261.36315253 99 258 C99.66 258 100.32 258 101 258 C102.27226095 256.57069833 102.27226095 256.57069833 103.50390625 254.66015625 C104.23734253 253.57359741 104.23734253 253.57359741 104.9855957 252.46508789 C105.50597412 251.67223389 106.02635254 250.87937988 106.5625 250.0625 C107.0989917 249.2470874 107.6354834 248.4316748 108.18823242 247.59155273 C129.75471211 214.33159098 143.28085476 171.06119687 135.25390625 131.3046875 C130.52731212 110.2433132 121.24838038 92.3132671 106 77 C106 80.02314829 106.4115976 81.29438398 107.609375 83.9921875 C107.95009033 84.77303711 108.29080566 85.55388672 108.6418457 86.35839844 C109.00753662 87.18887695 109.37322754 88.01935547 109.75 88.875 C124.84275254 124.02857746 128.11097694 168.2086772 114 204.375 C113.34454408 205.92146632 112.67822993 207.46338531 112 209 C111.67 209.76828125 111.34 210.5365625 111 211.328125 C107.57053585 219.20517546 103.73003862 226.60988875 99.171875 233.8984375 C97.83765977 235.89009482 97.83765977 235.89009482 98 238 C97.34 238 96.68 238 96 238 C93.68407978 241.22114157 93.68407978 241.22114157 93 245 C92.34 245 91.68 245 91 245 C90.34 246.65 89.68 248.3 89 250 C88.34 250 87.68 250 87 250 C86.9175 250.61875 86.835 251.2375 86.75 251.875 C86 254 86 254 84.25 254.9375 C83.5075 255.288125 82.765 255.63875 82 256 C80.28769752 257.61974559 78.62836738 259.2958946 77 261 C75.77504152 262.25412416 74.54571426 263.50399306 73.3125 264.75 C72.73113281 265.34296875 72.14976562 265.9359375 71.55078125 266.546875 C70 268 70 268 68 269 C68 269.66 68 270.32 68 271 C67.443125 271.268125 66.88625 271.53625 66.3125 271.8125 C63.78774666 273.10899496 61.36285516 274.42476323 59 276 C59 276.66 59 277.32 59 278 C58.29875 278.2475 57.5975 278.495 56.875 278.75 C53.63109126 280.16039511 50.92843341 282.02649053 48 284 C47.01 284.33 46.02 284.66 45 285 C45 285.66 45 286.32 45 287 C44.13246094 287.27199219 43.26492188 287.54398437 42.37109375 287.82421875 C39.1240513 288.95673298 36.15094218 290.30603979 33.0625 291.8125 C16.55673962 299.48655828 -1.73746954 304.55124124 -20 305 C-20.79921875 305.02046387 -21.5984375 305.04092773 -22.421875 305.06201172 C-39.89828348 305.44846008 -56.21453907 304.21139585 -73.07568359 299.53222656 C-74.99007642 299.00274466 -76.91108831 298.49738962 -78.83203125 297.9921875 C-85.34994583 296.22908813 -91.03655067 294.11435492 -97 291 C-98.39081146 290.29596883 -99.78274183 289.59414371 -101.17578125 288.89453125 C-103.2644427 287.84329749 -105.35302757 286.79199432 -107.43945312 285.73632812 C-110.26715093 284.31574019 -112.99342386 283.00219205 -116 282 C-116 281.34 -116 280.68 -116 280 C-117.03125 279.319375 -118.0625 278.63875 -119.125 277.9375 C-125.1075132 273.83589866 -129.54797344 267.11493015 -131 260 C-131.14110721 256.65878278 -131.11886657 253.34147131 -131 250 C-127.49088992 250 -125.34973957 253.17597657 -122.875 255.46875 C-121.14529201 257.21084486 -121.14529201 257.21084486 -119 257 C-119 257.66 -119 258.32 -119 259 C-116.88882475 260.71536998 -116.88882475 260.71536998 -114.25 262.4375 C-109.06861436 265.94478297 -109.06861436 265.94478297 -106.859375 267.72265625 C-104.96385387 269.28311741 -104.96385387 269.28311741 -102 269 C-102 269.66 -102 270.32 -102 271 C-98.73679351 272.62001548 -95.46319195 274.21790114 -92.1875 275.8125 C-91.27806641 276.26431641 -90.36863281 276.71613281 -89.43164062 277.18164062 C-83.88569594 279.86642657 -78.52503552 281.83458581 -72.54711914 283.32177734 C-70.25179646 283.93295403 -68.14751683 284.68305718 -65.953125 285.58203125 C-61.3324383 287.37987712 -56.64865474 288.05156031 -51.75 288.6875 C-50.78908447 288.8127002 -49.82816895 288.93790039 -48.83813477 289.06689453 C-13.7320484 293.3020974 21.23373329 284.98361236 50 264 C50 263.34 50 262.68 50 262 C50.556875 261.731875 51.11375 261.46375 51.6875 261.1875 C54.21225334 259.89100504 56.63714484 258.57523677 59 257 C59 256.34 59 255.68 59 255 C59.66 255 60.32 255 61 255 C62.70993434 253.3777546 64.37347684 251.70586575 66 250 C66.598125 249.443125 67.19625 248.88625 67.8125 248.3125 C69.22363777 247.04781729 69.22363777 247.04781729 69 245 C70.32 244.34 71.64 243.68 73 243 C73 242.34 73 241.68 73 241 C73.66 241 74.32 241 75 241 C76.3606009 239.51363242 76.3606009 239.51363242 77.625 237.625 C78.07101562 236.99851562 78.51703125 236.37203125 78.9765625 235.7265625 C80.16996969 234.04777357 80.16996969 234.04777357 80 232 C80.66 232 81.32 232 82 232 C83.82704989 229.6302068 83.82704989 229.6302068 85.625 226.6875 C86.57246094 225.20830078 86.57246094 225.20830078 87.5390625 223.69921875 C89.23799806 221.07181322 89.23799806 221.07181322 89 218 C89.66 218 90.32 218 91 218 C107.09672939 187.02969694 111.30522889 151.9854136 103 118 C102.83516113 117.31776367 102.67032227 116.63552734 102.50048828 115.93261719 C98.4365335 99.5489771 90.49280517 85.45583858 82 71 C81.34 71 80.68 71 80 71 C79.5359375 69.824375 79.5359375 69.824375 79.0625 68.625 C78.07124962 66.07669872 78.07124962 66.07669872 77 64 C76.34 64 75.68 64 75 64 C74.6596875 63.195625 74.6596875 63.195625 74.3125 62.375 C72.54429911 59.17539839 70.46329797 56.70962777 68 54 C67.34 54 66.68 54 66 54 C66 53.34 66 52.68 66 52 C65.34 52 64.68 52 64 52 C64 51.34 64 50.68 64 50 C60.5094562 46.7917796 56.72555073 43.92970545 53 41 C52.00033203 40.18595703 52.00033203 40.18595703 50.98046875 39.35546875 C19.82745982 14.71812182 -22.79519528 9.60572216 -61 16 Z " fill="#27B9CE" transform="translate(996,173)"/>
<path d="M0 0 C9.9 0 19.8 0 30 0 C34.33333333 17.33333333 38.66666667 34.66666667 43 52 C43.52484011 49.90063955 44.0496713 47.80127687 44.57446289 45.7019043 C45.02922545 43.88301843 45.48414375 42.06417149 45.93920898 40.24536133 C46.99035549 36.04335076 48.04051783 31.84112846 49.08203125 27.63671875 C50.74382715 20.9349298 52.43492769 14.24113511 54.1875 7.5625 C54.51105469 6.32628906 54.83460938 5.09007812 55.16796875 3.81640625 C56 1 56 1 57 0 C66.24 0 75.48 0 85 0 C85 26.73 85 53.46 85 81 C79.39 81 73.78 81 68 81 C67.505 52.29 67.505 52.29 67 23 C61.00310852 45.26400426 61.00310852 45.26400426 55.234375 67.58398438 C54.95335937 68.68162109 54.67234375 69.77925781 54.3828125 70.91015625 C54.13934082 71.87058838 53.89586914 72.83102051 53.64501953 73.82055664 C53 76 53 76 52 77 C50.65732587 77.08631874 49.31025678 77.10706473 47.96484375 77.09765625 C47.15595703 77.09443359 46.34707031 77.09121094 45.51367188 77.08789062 C44.66353516 77.07951172 43.81339844 77.07113281 42.9375 77.0625 C42.08349609 77.05798828 41.22949219 77.05347656 40.34960938 77.04882812 C38.23304337 77.03700373 36.11651315 77.01906769 34 77 C31.37250941 69.74644886 29.33788684 62.45993959 27.64819336 54.94067383 C26.03738476 47.89699743 24.05248076 40.97485146 22.01806641 34.04321289 C21.7710498 33.19879639 21.5240332 32.35437988 21.26953125 31.484375 C21.04885986 30.73897461 20.82818848 29.99357422 20.60083008 29.22558594 C19.95786326 26.84391771 19.48380503 24.41902513 19 22 C18.67 41.47 18.34 60.94 18 81 C12.06 81 6.12 81 0 81 C0 54.27 0 27.54 0 0 Z " fill="#050707" transform="translate(683,656)"/>
<path d="M0 0 C9.57 0 19.14 0 29 0 C30.89657568 4.42534325 32.38371449 7.91820224 33.5 12.43359375 C33.7475 13.41263672 33.995 14.39167969 34.25 15.40039062 C34.4975 16.40263672 34.745 17.40488281 35 18.4375 C35.49574372 20.43725787 35.99567235 22.43598343 36.5 24.43359375 C36.7165625 25.31072021 36.933125 26.18784668 37.15625 27.09155273 C38.23039229 30.79417344 39.64632091 34.39018911 41 38 C42.98 45.26 44.96 52.52 47 60 C47.33 40.2 47.66 20.4 48 0 C53.61 0 59.22 0 65 0 C65 26.73 65 53.46 65 81 C55.76 81 46.52 81 37 81 C32.65277999 66.33734269 28.3090089 51.6739222 24 37 C21.525 28.585 21.525 28.585 19 20 C18.67 40.13 18.34 60.26 18 81 C12.06 81 6.12 81 0 81 C0 54.27 0 27.54 0 0 Z " fill="#050707" transform="translate(946,656)"/>
<path d="M0 0 C10.1165625 -0.0928125 10.1165625 -0.0928125 20.4375 -0.1875 C22.54825928 -0.21481201 24.65901855 -0.24212402 26.83374023 -0.27026367 C28.53368561 -0.27903728 30.23363737 -0.28667914 31.93359375 -0.29296875 C32.79440552 -0.30831665 33.65521729 -0.32366455 34.54211426 -0.33947754 C40.53596357 -0.3420292 45.43848112 0.77536092 51 3 C51 3.66 51 4.32 51 5 C51.66 5 52.32 5 53 5 C53 5.66 53 6.32 53 7 C53.66 7 54.32 7 55 7 C58.63639639 14.72734233 59.43504954 22.96218895 57.07421875 31.25 C56.01821047 33.95338119 54.96529729 35.87092793 53 38 C52.34 38 51.68 38 51 38 C51 38.66 51 39.32 51 40 C51.598125 40.2475 52.19625 40.495 52.8125 40.75 C56.22182562 42.69818607 57.557956 45.04611557 59.1875 48.5625 C61.19409077 57.05192247 60.60098774 64.5082601 56 72 C51.93961108 77.22050005 46.14036857 80.40384948 39.57614136 81.34899902 C37.01942795 81.4585302 34.49181255 81.45144091 31.93359375 81.390625 C31.11701294 81.38659668 30.30043213 81.38256836 29.45910645 81.37841797 C26.45167086 81.35772236 23.4445593 81.30187949 20.4375 81.25 C10.3209375 81.12625 10.3209375 81.12625 0 81 C0 54.27 0 27.54 0 0 Z M18 15 C18 20.94 18 26.88 18 33 C20.371875 33.04125 22.74375 33.0825 25.1875 33.125 C25.92508545 33.14320801 26.6626709 33.16141602 27.42260742 33.18017578 C31.40976542 33.21355914 34.45649281 32.85769687 38 31 C40.60895322 27.64563157 40.36649751 24.10477208 40 20 C38.23984869 16.8149643 37.50109084 16.16703028 34 15 C31.25917841 14.92943302 28.55153023 14.90663846 25.8125 14.9375 C23.234375 14.958125 20.65625 14.97875 18 15 Z M18 48 C18 53.94 18 59.88 18 66 C20.68125 66.061875 23.3625 66.12375 26.125 66.1875 C27.37434326 66.22846802 27.37434326 66.22846802 28.64892578 66.27026367 C33.46609285 66.32371112 36.91027055 65.83282352 41 63 C41.96038019 61.13318256 41.96038019 61.13318256 41.9375 59.0625 C41.97617187 58.36253906 42.01484375 57.66257812 42.0546875 56.94140625 C41.99521053 54.82997397 41.74388583 52.98369555 41 51 C40.34 51 39.68 51 39 51 C39 50.34 39 49.68 39 49 C36.65147472 47.82573736 35.26225935 47.88491827 32.6484375 47.90234375 C31.37226562 47.90717773 31.37226562 47.90717773 30.0703125 47.91210938 C29.18085937 47.92048828 28.29140625 47.92886719 27.375 47.9375 C26.02921875 47.94426758 26.02921875 47.94426758 24.65625 47.95117188 C22.43747169 47.96297389 20.21872757 47.98090961 18 48 Z " fill="#050707" transform="translate(578,656)"/>
<path d="M0 0 C6.579375 -0.061875 13.15875 -0.12375 19.9375 -0.1875 C21.99605225 -0.21481201 24.05460449 -0.24212402 26.17553711 -0.27026367 C27.83446672 -0.27903773 29.49340286 -0.28667948 31.15234375 -0.29296875 C31.99156372 -0.30831665 32.83078369 -0.32366455 33.69543457 -0.33947754 C40.39837284 -0.34240076 46.65065883 0.75764447 52.3046875 4.54296875 C59.38899751 11.96210934 60.45257286 18.69423522 60.43310547 28.69506836 C60.26055004 34.48334422 59.08203852 39.03655645 56 44 C55.505 44.99 55.505 44.99 55 46 C54.34 46 53.68 46 53 46 C53 46.66 53 47.32 53 48 C51.5 49.625 51.5 49.625 50 51 C50.91597172 53.60441293 51.83269825 56.20855547 52.75 58.8125 C53.02150879 59.58408447 53.29301758 60.35566895 53.57275391 61.15063477 C55.44217939 66.45213087 57.35942214 71.73342073 59.3359375 76.99609375 C60 79 60 79 60 81 C53.4 81 46.8 81 40 81 C38.84803622 77.79375093 37.70327035 74.58523045 36.5625 71.375 C36.23701172 70.47136719 35.91152344 69.56773437 35.57617188 68.63671875 C35.10727539 67.31220703 35.10727539 67.31220703 34.62890625 65.9609375 C34.34088135 65.15446777 34.05285645 64.34799805 33.75610352 63.51708984 C33 61 33 61 32 55 C27.05 55 22.1 55 17 55 C17 63.58 17 72.16 17 81 C11.39 81 5.78 81 0 81 C0 54.27 0 27.54 0 0 Z M17 15 C17 22.92 17 30.84 17 39 C21.33125 39.061875 21.33125 39.061875 25.75 39.125 C26.65331055 39.14320801 27.55662109 39.16141602 28.48730469 39.18017578 C29.20821289 39.1851709 29.92912109 39.19016602 30.671875 39.1953125 C31.77160645 39.21102295 31.77160645 39.21102295 32.89355469 39.22705078 C36.3952752 38.84960525 38.44985513 37.628737 40.75 35 C42.57249864 30.62600328 42.80507882 26.66647538 42 22 C40.4260519 18.88957876 38.48926073 16.4989966 35.07128906 15.35375977 C31.64969233 14.76937814 28.20916759 14.89808028 24.75 14.9375 C20.91375 14.9684375 20.91375 14.9684375 17 15 Z " fill="#050707" transform="translate(1167,656)"/>
<path d="M0 0 C5.94 0 11.88 0 18 0 C18.01458252 1.76110107 18.02916504 3.52220215 18.04418945 5.33666992 C18.09589678 11.16423464 18.16119793 16.99156238 18.23571491 22.81887341 C18.28038664 26.35098666 18.31964938 29.88298544 18.34643555 33.4152832 C18.3774908 37.47897322 18.43227834 41.54204542 18.48828125 45.60546875 C18.49467117 46.8702153 18.5010611 48.13496185 18.50764465 49.43803406 C18.53733589 51.20930412 18.53733589 51.20930412 18.56762695 53.01635742 C18.57873001 54.05338303 18.58983307 55.09040863 18.60127258 56.15885925 C19.06083078 59.43345105 20.07921181 61.33175377 22 64 C26.42028346 67.08391869 31.84502172 66.61951519 37 66 C41.19943087 63.68602789 42.52682657 61.4547078 44 57 C44.32299686 54.19464093 44.32299686 54.19464093 44.31884766 51.19995117 C44.33871735 50.05914597 44.35858704 48.91834076 44.37905884 47.7429657 C44.39061005 46.52196671 44.40216125 45.30096771 44.4140625 44.04296875 C44.43342865 42.78486893 44.4527948 41.5267691 44.4727478 40.23054504 C44.52233077 36.89825681 44.56363098 33.56607669 44.60089111 30.23364258 C44.64101624 26.82818761 44.6920696 23.4228981 44.7421875 20.01757812 C44.83817501 13.34514966 44.92223075 6.67266467 45 0 C50.61 0 56.22 0 62 0 C62.06797409 8.07601927 62.12292972 16.15181339 62.15543652 24.2280426 C62.17104388 27.97879732 62.19219093 31.72934492 62.22631836 35.47998047 C62.25908923 39.10451269 62.27689003 42.7288466 62.28463173 46.35351562 C62.29014364 47.73131427 62.30090661 49.10910296 62.31719017 50.48681641 C62.42204009 59.73172343 62.12710307 66.48307335 56.75 74.25 C49.43547871 81.56452129 41.16977277 83.18347099 31.0625 83.3125 C24.90361666 83.28353863 19.5579152 82.76231714 14 80 C12.92298828 79.47212891 12.92298828 79.47212891 11.82421875 78.93359375 C4.7536177 75.01697196 2.20997094 69.68993032 0 62 C-0.24050903 58.92471313 -0.24050903 58.92471313 -0.22705078 55.62744141 C-0.22689972 54.38660797 -0.22674866 53.14577454 -0.22659302 51.86734009 C-0.21638225 50.52874589 -0.2059503 49.19015337 -0.1953125 47.8515625 C-0.19157813 46.47008469 -0.18873316 45.08860422 -0.18673706 43.7071228 C-0.17913392 40.08706229 -0.15951437 36.46716457 -0.1373291 32.84716797 C-0.11679878 29.14683229 -0.10772004 25.44647008 -0.09765625 21.74609375 C-0.07626496 14.49731335 -0.04111033 7.24870031 0 0 Z " fill="#050707" transform="translate(1089,656)"/>
<path d="M0 0 C17.82 0 35.64 0 54 0 C54 4.95 54 9.9 54 15 C53 16 53 16 49.67358398 16.11352539 C48.19774444 16.11336629 46.72189931 16.10767314 45.24609375 16.09765625 C44.47064713 16.0962413 43.6952005 16.09482635 42.89625549 16.09336853 C40.40996506 16.08775345 37.9237634 16.07519846 35.4375 16.0625 C33.75586067 16.05748694 32.07421994 16.0529237 30.39257812 16.04882812 C26.26165671 16.03862832 22.13092818 16.01905605 18 16 C18 21.28 18 26.56 18 32 C21.01447266 31.98259766 21.01447266 31.98259766 24.08984375 31.96484375 C26.02921424 31.9578926 27.96858503 31.95097604 29.90795898 31.94506836 C31.25920386 31.94002943 32.61044326 31.93319823 33.96166992 31.92456055 C35.90020434 31.91247581 37.838778 31.90730172 39.77734375 31.90234375 C41.52905884 31.89448853 41.52905884 31.89448853 43.31616211 31.88647461 C46 32 46 32 47 33 C47.07320163 35.5327765 47.09227569 38.03103918 47.0625 40.5625 C47.041875 43.016875 47.02125 45.47125 47 48 C37.43 48 27.86 48 18 48 C18 53.61 18 59.22 18 65 C20.51496094 64.98839844 23.02992187 64.97679687 25.62109375 64.96484375 C28.0469551 64.95705327 30.47281507 64.95097646 32.89868164 64.94506836 C34.58944316 64.9400281 36.28020029 64.93319595 37.97094727 64.92456055 C40.39600707 64.91248143 42.82100944 64.90676877 45.24609375 64.90234375 C46.38672523 64.89460182 46.38672523 64.89460182 47.55039978 64.88670349 C49.3673257 64.88650762 51.18413127 64.93802723 53 65 C56.77859468 68.77859468 54 75.65626015 54 81 C36.18 81 18.36 81 0 81 C0 54.27 0 27.54 0 0 Z " fill="#050707" transform="translate(1239,656)"/>
<path d="M0 0 C17.49 0 34.98 0 53 0 C53 5.28 53 10.56 53 16 C41.45 16 29.9 16 18 16 C18 21.28 18 26.56 18 32 C27.24 32 36.48 32 46 32 C46 37.28 46 42.56 46 48 C36.76 48 27.52 48 18 48 C18 53.61 18 59.22 18 65 C29.55 65 41.1 65 53 65 C53 70.28 53 75.56 53 81 C35.51 81 18.02 81 0 81 C0 54.27 0 27.54 0 0 Z " fill="#050707" transform="translate(881,656)"/>
<path d="M0 0 C5.94 0 11.88 0 18 0 C20.8479556 10.2637361 23.19082988 20.46819742 25.125 30.9375 C27.28729262 42.5283173 27.28729262 42.5283173 30 54 C30.39011652 55.83017628 30.76782701 57.66311035 31.125 59.5 C31.29257812 60.3559375 31.46015625 61.211875 31.6328125 62.09375 C31.75398437 62.7228125 31.87515625 63.351875 32 64 C33.32 64.33 34.64 64.66 36 65 C36.09869385 64.36505615 36.1973877 63.7301123 36.29907227 63.07592773 C37.77220955 53.91053093 39.57540468 44.81851502 41.40405273 35.71899414 C41.93565414 33.07169215 42.4631445 30.42359413 42.99023438 27.77539062 C44.84840855 18.4779941 46.80867936 9.22552861 49 0 C55.27 0 61.54 0 68 0 C66.99733536 8.02131708 65.71807847 15.64092521 63.67504883 23.46166992 C62.13113755 29.38411075 60.77172224 35.33959834 59.4375 41.3125 C58.01995177 47.6328466 56.53766833 53.89941083 54.7578125 60.12890625 C52.93730721 67.02618146 51.51916703 74.03278567 50 81 C39.44 81 28.88 81 18 81 C16.43456695 77.08641736 15.43601277 73.84371475 14.59765625 69.7734375 C14.34693359 68.57589844 14.09621094 67.37835937 13.83789062 66.14453125 C13.45407227 64.27861328 13.45407227 64.27861328 13.0625 62.375 C11.50427287 54.82696374 9.87920044 47.35458394 7.79223633 39.93457031 C6.3014169 34.41233626 5.04742017 28.83269513 3.78295898 23.25512695 C3.30893335 21.17182488 2.82542553 19.09085653 2.34179688 17.00976562 C2.03587581 15.66679923 1.73051687 14.32370463 1.42578125 12.98046875 C1.15161377 11.78317139 0.87744629 10.58587402 0.5949707 9.35229492 C0 6 0 6 0 0 Z " fill="#050707" transform="translate(804,656)"/>
<path d="M0 0 C1 1 1 1 1.1328125 2.890625 C1.13023438 3.66921875 1.12765625 4.4478125 1.125 5.25 C1.12886719 6.40242187 1.12886719 6.40242187 1.1328125 7.578125 C0.99278235 10.13161594 0.5569499 12.50698615 0 15 C-0.56203125 14.9278125 -1.1240625 14.855625 -1.703125 14.78125 C-8.2747085 14.05555366 -14.83159075 13.8310541 -21.4375 13.75 C-22.31374023 13.72873047 -23.18998047 13.70746094 -24.09277344 13.68554688 C-28.99857326 13.65189237 -28.99857326 13.65189237 -33.55078125 15.28515625 C-35.78277106 17.92624392 -35.7463598 20.63926733 -36 24 C-30.07284619 27.05173823 -23.85885575 29.44965167 -17.5 31.4375 C-8.96858722 34.26617764 -2.5849516 37.01331011 2 45 C4.1638694 51.49160821 4.04476935 60.00497902 1.8125 66.5 C-2.2496671 74.34418474 -7.08499078 78.35971087 -15.27734375 81.09375 C-27.54551373 84.08033493 -41.11446497 81.78176114 -53 78 C-52.67 73.38 -52.34 68.76 -52 64 C-50.22625 64.165 -48.4525 64.33 -46.625 64.5 C-40.8892343 64.94169813 -35.18977463 65.11098999 -29.4375 65.125 C-28.27758545 65.13176758 -28.27758545 65.13176758 -27.09423828 65.13867188 C-23.55889392 65.12935403 -20.4004644 64.95105337 -17 64 C-15.80391018 60.26221932 -15.51293254 56.89653967 -16 53 C-20.2332756 49.55476493 -24.62758734 47.98290568 -29.8125 46.5625 C-37.1940298 44.39986648 -44.81906385 42.02582728 -50 36 C-50 35.34 -50 34.68 -50 34 C-50.66 34 -51.32 34 -52 34 C-54.98826906 26.02729815 -55.52144542 17.57953372 -52 9.6875 C-51.35776235 8.44539455 -50.7004851 7.2102131 -50 6 C-49.34 6 -48.68 6 -48 6 C-47.77183594 5.38511719 -47.54367187 4.77023437 -47.30859375 4.13671875 C-45.60014026 1.3470947 -44.10786632 0.90811637 -41.0625 -0.1875 C-40.18722656 -0.51105469 -39.31195312 -0.83460938 -38.41015625 -1.16796875 C-26.18152025 -5.3895238 -12.35589478 -2.86277034 0 0 Z " fill="#050707" transform="translate(1354,657)"/>
<path d="M0 0 C19.8 0 39.6 0 60 0 C60 5.28 60 10.56 60 16 C53.07 16 46.14 16 39 16 C39 37.45 39 58.9 39 81 C33.06 81 27.12 81 21 81 C21 59.55 21 38.1 21 16 C14.07 16 7.14 16 0 16 C0 10.72 0 5.44 0 0 Z " fill="#050707" transform="translate(1021,656)"/>
<path d="M0 0 C5.94 0 11.88 0 18 0 C18 26.73 18 53.46 18 81 C12.06 81 6.12 81 0 81 C0 54.27 0 27.54 0 0 Z " fill="#050707" transform="translate(650,656)"/>
<path d="M0 0 C4.95 0 9.9 0 15 0 C17.79143644 5.9768594 19.50910719 12.06963323 21.1875 18.4375 C22.115625 21.923125 23.04375 25.40875 24 29 C24.33 19.43 24.66 9.86 25 0 C27.97 0 30.94 0 34 0 C34 13.86 34 27.72 34 42 C29.05 42 24.1 42 19 42 C16.30717614 36.16959158 14.52407562 30.24375238 12.8125 24.0625 C11.884375 20.741875 10.95625 17.42125 10 14 C9.67 23.24 9.34 32.48 9 42 C6.03 42 3.06 42 0 42 C0 28.14 0 14.28 0 0 Z " fill="#27B9CE" transform="translate(920,769)"/>
<path d="M0 0 C4.5934087 3.21538609 6.99324141 5.51688316 8.1875 11.2109375 C9.18899863 19.34811387 9.45202797 28.01849817 6.5 35.75 C2.94790687 40.16611578 -0.47821523 42.36154934 -6.11328125 43.0859375 C-12.42753233 43.17731595 -17.43845725 42.75748667 -22.5 38.75 C-26.60683279 33.15332772 -27.12270876 27.49898181 -27 20.75 C-27.01546875 19.89921875 -27.0309375 19.0484375 -27.046875 18.171875 C-27.01073701 12.28138223 -25.9147059 7.62566665 -22.5 2.75 C-16.02892855 -2.64255954 -7.80447774 -2.78731348 0 0 Z M-14.875 9.6875 C-18.21751893 15.98686261 -17.77856636 21.99645137 -16.265625 28.8046875 C-15.36205058 31.10050414 -14.44134301 32.23491846 -12.5 33.75 C-9.04271642 34.50011367 -9.04271642 34.50011367 -5.5 33.75 C-2.10460106 30.78990862 -1.63266471 28.90705513 -1.12109375 24.4453125 C-0.77524765 16.91307864 -0.77524765 16.91307864 -3.0625 9.875 C-5.41925372 7.46322706 -5.41925372 7.46322706 -9 7.0625 C-12.5406206 7.47267529 -12.5406206 7.47267529 -14.875 9.6875 Z " fill="#27B9CE" transform="translate(1349.5,769.25)"/>
<path d="M0 0 C3.50625 -0.061875 7.0125 -0.12375 10.625 -0.1875 C11.71893066 -0.21481201 12.81286133 -0.24212402 13.93994141 -0.27026367 C19.38231048 -0.31669005 23.3271334 -0.13294465 28 3 C31.66445454 6.90875151 31.4311592 11.24137986 31.30078125 16.33984375 C30.918726 19.71879994 29.79314837 22.1309626 28 25 C26.74775561 28.75673318 27.49527712 29.88715884 28.9375 33.5 C31 38.70169492 31 38.70169492 31 42 C29.37536158 42.05395478 27.75021459 42.09277195 26.125 42.125 C24.76761719 42.15980469 24.76761719 42.15980469 23.3828125 42.1953125 C21 42 21 42 19 40 C18.39286197 38.14516546 17.85868948 36.26578615 17.375 34.375 C17.11460938 33.37210938 16.85421875 32.36921875 16.5859375 31.3359375 C16.39257812 30.56507813 16.19921875 29.79421875 16 29 C13.69 29 11.38 29 9 29 C9 33.29 9 37.58 9 42 C6.03 42 3.06 42 0 42 C0 28.14 0 14.28 0 0 Z M9 8 C9 11.96 9 15.92 9 20 C10.423125 20.061875 11.84625 20.12375 13.3125 20.1875 C14.11300781 20.22230469 14.91351562 20.25710938 15.73828125 20.29296875 C18.06070893 20.18080875 18.06070893 20.18080875 19.765625 18.67578125 C21.69113285 16.06172155 21.45804343 14.1408692 21 11 C19.57951684 8.93243871 19.57951684 8.93243871 17 8 C14.27930412 7.76635245 11.74133849 7.86293308 9 8 Z " fill="#27B9CE" transform="translate(1046,769)"/>
<path d="M0 0 C21 0 21 0 28 3 C32.37822009 7.44941066 32.5399125 11.76207727 32.59570312 17.71679688 C32.57926758 19.31104492 32.57926758 19.31104492 32.5625 20.9375 C32.59827148 22.52594727 32.59827148 22.52594727 32.63476562 24.14648438 C32.62394271 29.92952687 32.17893734 34.01931049 28.65991211 38.69750977 C20.90404119 44.7833417 8.25949177 42 0 42 C0 28.14 0 14.28 0 0 Z M9 8 C9 16.58 9 25.16 9 34 C15.9142362 34.30763407 15.9142362 34.30763407 21 31 C23.53617605 26.04841818 23.73327159 20.45094662 23 15 C20.60266959 10.23562186 20.60266959 10.23562186 16 8 C13.69 8 11.38 8 9 8 Z " fill="#27B9CE" transform="translate(1260,769)"/>
<path d="M0 0 C21 0 21 0 28 3 C32.40859758 7.46585209 32.51713251 11.78738498 32.546875 17.765625 C32.53140625 18.83296875 32.5159375 19.9003125 32.5 21 C32.51546875 22.06734375 32.5309375 23.1346875 32.546875 24.234375 C32.51713251 30.21261502 32.40859758 34.53414791 28 39 C21 42 21 42 0 42 C0 28.14 0 14.28 0 0 Z M9 8 C9 16.58 9 25.16 9 34 C15.9142362 34.30763407 15.9142362 34.30763407 21 31 C23.96402209 25.21309972 23.73978756 18.22816389 22.3125 12 C20.50951921 9.2526007 19.17975928 8.77727449 16 8 C13.69 8 11.38 8 9 8 Z " fill="#27B9CE" transform="translate(759,769)"/>
<path d="M0 0 C5.94 0 11.88 0 18 0 C20.25495466 8.08533294 22.2909022 16.19855617 24.1875 24.375 C24.46013672 25.52355469 24.73277344 26.67210937 25.01367188 27.85546875 C25.27083984 28.96277344 25.52800781 30.07007813 25.79296875 31.2109375 C26.0252417 32.20399902 26.25751465 33.19706055 26.49682617 34.22021484 C27 37 27 37 27 42 C23.7 42 20.4 42 17 42 C16.67 39.69 16.34 37.38 16 35 C9.565 35.495 9.565 35.495 3 36 C2.67 37.98 2.34 39.96 2 42 C-1.63 42 -5.26 42 -9 42 C-7.77638724 34.76029115 -6.25022605 27.64636749 -4.54101562 20.51025391 C-2.91252141 13.69589 -1.44346197 6.85644436 0 0 Z M9 8 C6.82971933 11.61105522 6.41193503 15.10792974 5.875 19.25 C5.70742188 20.51328125 5.53984375 21.7765625 5.3671875 23.078125 C5.24601563 24.04234375 5.12484375 25.0065625 5 26 C7.97 26 10.94 26 14 26 C12.68 20.06 11.36 14.12 10 8 C9.67 8 9.34 8 9 8 Z " fill="#27B9CE" transform="translate(680,769)"/>
<path d="M0 0 C5.94 0 11.88 0 18 0 C20.61758609 8.62833934 22.81514399 17.25880102 24.75 26.0625 C24.97260498 27.061604 25.19520996 28.06070801 25.42456055 29.09008789 C25.62992432 30.04133545 25.83528809 30.99258301 26.046875 31.97265625 C26.23088867 32.82093994 26.41490234 33.66922363 26.60449219 34.54321289 C27 37 27 37 27 42 C23.7 42 20.4 42 17 42 C16.67 39.69 16.34 37.38 16 35 C9.565 35.495 9.565 35.495 3 36 C2.67 37.98 2.34 39.96 2 42 C-1.3 42 -4.6 42 -8 42 C-7.45302151 33.77481095 -6.03187281 26.16643452 -4 18.1875 C-3.45649973 16.01478077 -2.91477382 13.84161675 -2.375 11.66796875 C-2.01535156 10.24907349 -2.01535156 10.24907349 -1.6484375 8.80151367 C-0.97535932 5.89354223 -0.49070639 2.94423833 0 0 Z M9 8 C7.15730278 13.92295536 6.0388092 19.8887076 5 26 C7.97 26 10.94 26 14 26 C13.55229391 23.18542106 13.09242783 20.37380871 12.625 17.5625 C12.49867188 16.76005859 12.37234375 15.95761719 12.2421875 15.13085938 C11.89517204 13.07479277 11.45409572 11.03509869 11 9 C10.34 8.67 9.68 8.34 9 8 Z " fill="#27B9CE" transform="translate(585,769)"/>
<path d="M0 0 C3.3 0 6.6 0 10 0 C10.01458252 0.9286084 10.02916504 1.8572168 10.04418945 2.81396484 C10.10519172 6.25466496 10.1793305 9.69455652 10.26245117 13.13476562 C10.29573463 14.62456572 10.32375597 16.11449295 10.34643555 17.60449219 C10.37992071 19.74469252 10.43222789 21.88372419 10.48828125 24.0234375 C10.51446533 25.31169434 10.54064941 26.59995117 10.56762695 27.92724609 C10.71031006 28.94125488 10.85299316 29.95526367 11 31 C14.45245824 33.30163882 15.94738713 33.34490322 20 33 C22.86545595 30.13454405 22.31629628 28.03185244 22.4140625 24.0234375 C22.43342865 23.33819 22.4527948 22.6529425 22.4727478 21.94692993 C22.53256831 19.75641356 22.57893756 17.5658447 22.625 15.375 C22.66317763 13.89060198 22.70222924 12.40622616 22.7421875 10.921875 C22.83827084 7.28145315 22.92229282 3.64086564 23 0 C26.3 0 29.6 0 33 0 C33.07435222 4.75053511 33.12869691 9.50072887 33.16479492 14.25170898 C33.17984876 15.86667789 33.20029648 17.48160613 33.22631836 19.09643555 C33.26285286 21.42246555 33.27976015 23.74795341 33.29296875 26.07421875 C33.30845261 26.79212082 33.32393646 27.51002289 33.33988953 28.24967957 C33.34136953 32.69328175 32.73907145 35.47321641 30 39 C23.68096918 43.31543568 18.57724234 43.70089492 11 43 C6.4195331 41.55429014 3.67966984 40.01950477 1 36 C0.00441496 31.59114885 -0.11692403 27.36022233 -0.09765625 22.8515625 C-0.09553383 21.86547501 -0.09553383 21.86547501 -0.09336853 20.85946655 C-0.08781762 18.78126269 -0.07527465 16.70317073 -0.0625 14.625 C-0.05747864 13.20703282 -0.05291685 11.78906393 -0.04882812 10.37109375 C-0.03786437 6.91402678 -0.02063421 3.45702433 0 0 Z " fill="#27B9CE" transform="translate(1001,769)"/>
<path d="M0 0 C2.97 0 5.94 0 9 0 C9.01458252 0.85754883 9.02916504 1.71509766 9.04418945 2.59863281 C9.10535478 5.78960413 9.17952762 8.97993587 9.26245117 12.17041016 C9.29564193 13.54952667 9.32369217 14.92877711 9.34643555 16.30810547 C9.38008642 18.29422306 9.43394729 20.27996559 9.48828125 22.265625 C9.51446533 23.45961914 9.54064941 24.65361328 9.56762695 25.88378906 C10.02886851 29.20806192 10.65357971 30.64209173 13 33 C15.0488648 33.48057715 15.0488648 33.48057715 17.1875 33.25 C18.445625 33.1675 19.70375 33.085 21 33 C22.14294314 29.57117059 22.20964472 26.75917162 22.31640625 23.14453125 C22.33718735 22.48289474 22.35796844 21.82125824 22.37937927 21.13957214 C22.44464727 19.03065148 22.50365344 16.92160865 22.5625 14.8125 C22.60570689 13.38084685 22.64932188 11.94920596 22.69335938 10.51757812 C22.80030506 7.01184846 22.90163641 3.50598214 23 0 C25.97 0 28.94 0 32 0 C32.07433779 4.89295147 32.12869027 9.78557183 32.16479492 14.67895508 C32.17985114 16.34242481 32.20030063 18.00585505 32.22631836 19.66918945 C32.26284207 22.06471522 32.27975782 24.45971467 32.29296875 26.85546875 C32.30845261 27.5952446 32.32393646 28.33502045 32.33988953 29.09721375 C32.34134309 33.5898605 31.80847945 36.45121179 29 40 C23.01609738 43.69219523 16.89232332 43.69019093 10 43 C4.6901497 41.2932624 2.66489857 38.82760376 0 34 C-0.33674287 31.18041216 -0.47176343 28.77773826 -0.390625 25.9765625 C-0.38496521 25.23038666 -0.37930542 24.48421082 -0.37347412 23.71542358 C-0.35122898 21.35127363 -0.30105984 18.98868541 -0.25 16.625 C-0.22991944 15.01434493 -0.2116714 13.40366591 -0.1953125 11.79296875 C-0.15140381 7.86138493 -0.08246318 3.93095648 0 0 Z " fill="#27B9CE" transform="translate(1216,769)"/>
<path d="M0 0 C2.97 0 5.94 0 9 0 C9.01458252 0.85754883 9.02916504 1.71509766 9.04418945 2.59863281 C9.10535478 5.78960413 9.17952762 8.97993587 9.26245117 12.17041016 C9.29564193 13.54952667 9.32369217 14.92877711 9.34643555 16.30810547 C9.38008642 18.29422306 9.43394729 20.27996559 9.48828125 22.265625 C9.51446533 23.45961914 9.54064941 24.65361328 9.56762695 25.88378906 C10.03070432 29.22129304 10.59789606 30.66909837 13 33 C16.06592566 33.44711416 18.02115212 33.64972634 20.65551758 31.90112305 C22.67432164 29.04649671 22.43862791 26.60903701 22.51171875 23.14453125 C22.52966995 22.48289474 22.54762115 21.82125824 22.56611633 21.13957214 C22.62020898 19.03061253 22.65410931 16.92187901 22.6875 14.8125 C22.72067427 13.38082792 22.75516405 11.94918567 22.79101562 10.51757812 C22.87593257 7.0119361 22.94274921 3.50621527 23 0 C25.97 0 28.94 0 32 0 C32.12405942 4.87458106 32.21455231 9.74823358 32.2746582 14.62402344 C32.299726 16.28076189 32.3337899 17.93739059 32.37719727 19.59375 C32.43819643 21.98204684 32.46628526 24.36887593 32.48828125 26.7578125 C32.51408768 27.49242706 32.5398941 28.22704163 32.56648254 28.98391724 C32.56859943 32.90918912 32.05684198 35.41386638 29.62426758 38.43041992 C25.56180136 42.40822781 22.2211725 43.28844768 16.625 43.3125 C11.59265149 43.19735878 8.30680484 42.63681929 4 40 C0.19586129 35.40811828 -0.55859588 31.77549097 -0.390625 25.9765625 C-0.38496521 25.23038666 -0.37930542 24.48421082 -0.37347412 23.71542358 C-0.35122898 21.35127363 -0.30105984 18.98868541 -0.25 16.625 C-0.22991944 15.01434493 -0.2116714 13.40366591 -0.1953125 11.79296875 C-0.15140381 7.86138493 -0.08246318 3.93095648 0 0 Z " fill="#27B9CD" transform="translate(715,769)"/>
<path d="M0 0 C3.3 0 6.6 0 10 0 C12.51886794 10.62885941 14.77546124 21.30640505 17 32 C17.33 32 17.66 32 18 32 C18.17015625 31.11441406 18.3403125 30.22882812 18.515625 29.31640625 C20.43927213 19.48329513 22.65147475 9.73982298 25 0 C28.3 0 31.6 0 35 0 C34.41469203 5.99497258 33.53826447 11.75818834 32.1875 17.625 C32.01444336 18.39118652 31.84138672 19.15737305 31.66308594 19.94677734 C29.96645558 27.35233956 28.0110479 34.67403978 26 42 C20.39 42 14.78 42 9 42 C7.82791517 37.89770309 6.70617047 33.92689572 5.78125 29.78515625 C5.57113281 28.85123047 5.36101563 27.91730469 5.14453125 26.95507812 C4.93183594 26.00052734 4.71914063 25.04597656 4.5 24.0625 C4.07376572 22.15736193 3.64669617 20.25241052 3.21875 18.34765625 C2.91324219 16.98278076 2.91324219 16.98278076 2.6015625 15.59033203 C2.0588051 13.25321516 1.46148399 10.93922754 0.84375 8.62109375 C0 5 0 5 0 0 Z " fill="#27B9CD" transform="translate(838,769)"/>
<path d="M0 0 C0 2.64 0 5.28 0 8 C-5.28 8 -10.56 8 -16 8 C-16.66 9.32 -17.32 10.64 -18 12 C-17.21625 12.2475 -16.4325 12.495 -15.625 12.75 C-14.42875 13.1625 -13.2325 13.575 -12 14 C-11.18015625 14.268125 -10.3603125 14.53625 -9.515625 14.8125 C-5.29078547 16.31244303 -2.50957246 17.46616218 0.625 20.75 C2.84076222 25.98725615 2.69220347 29.88267174 0.9375 35.25 C-1.52469916 38.74473429 -3.96675312 40.709361 -8 42 C-14.92886829 42.83732547 -21.30492381 41.75608556 -28 40 C-27.67 37.36 -27.34 34.72 -27 32 C-21.39 32 -15.78 32 -10 32 C-8.60229416 28.25308553 -8.60229416 28.25308553 -10 26 C-12.20992266 25.16007109 -12.20992266 25.16007109 -14.8125 24.5 C-18.09474484 23.60792755 -21.00403062 22.62019789 -24 21 C-24 20.34 -24 19.68 -24 19 C-24.99 18.67 -25.98 18.34 -27 18 C-28.22485812 15.55028376 -28.16722808 13.85765539 -28.1875 11.125 C-28.20167969 10.26132812 -28.21585938 9.39765625 -28.23046875 8.5078125 C-27.98278228 5.81264787 -27.44775349 4.27155934 -26 2 C-18.8500041 -3.84999665 -8.22185216 -3.87823215 0 0 Z " fill="#27B9CE" transform="translate(664,770)"/>
<path d="M0 0 C1.09183594 -0.00515625 2.18367188 -0.0103125 3.30859375 -0.015625 C6.67951578 0.25955231 9.41125625 1.05224219 12.5625 2.25 C12.5625 4.89 12.5625 7.53 12.5625 10.25 C6.9525 10.25 1.3425 10.25 -4.4375 10.25 C-4.7675 11.24 -5.0975 12.23 -5.4375 13.25 C-2.3715292 16.3159708 1.51584063 16.8555222 5.6171875 18.0546875 C9.40362096 19.59135678 11.65232032 21.43725721 13.49609375 25.109375 C14.92862016 30.48412526 14.36553301 34.40644488 11.5625 39.25 C8.57478729 42.58365839 5.87351575 44.05168166 1.33203125 44.44140625 C-4.55140876 44.57823044 -9.74942698 43.71788981 -15.4375 42.25 C-15.1075 39.61 -14.7775 36.97 -14.4375 34.25 C-9.1575 34.25 -3.8775 34.25 1.5625 34.25 C2.2225 32.27 2.8825 30.29 3.5625 28.25 C2.76585937 28.09144531 1.96921875 27.93289063 1.1484375 27.76953125 C-5.36036897 26.33632691 -9.80827815 25.12945006 -14.4375 20.25 C-16.40875294 16.30749412 -15.88467024 11.54780285 -15.4375 7.25 C-11.93821383 0.89944362 -6.87372888 -0.03238506 0 0 Z " fill="#27B9CD" transform="translate(1156.4375,767.75)"/>
<path d="M0 0 C9.24 0 18.48 0 28 0 C28 2.64 28 5.28 28 8 C22.06 8 16.12 8 10 8 C10 10.97 10 13.94 10 17 C14.62 17 19.24 17 24 17 C24 19.64 24 22.28 24 25 C19.38 25 14.76 25 10 25 C10 27.97 10 30.94 10 34 C15.94 34 21.88 34 28 34 C28 36.64 28 39.28 28 42 C18.76 42 9.52 42 0 42 C0 28.14 0 14.28 0 0 Z " fill="#27B9CE" transform="translate(882,769)"/>
<path d="M0 0 C8.91 0 17.82 0 27 0 C27 2.64 27 5.28 27 8 C21.06 8 15.12 8 9 8 C9 10.97 9 13.94 9 17 C13.62 17 18.24 17 23 17 C23 19.64 23 22.28 23 25 C18.38 25 13.76 25 9 25 C9 27.97 9 30.94 9 34 C14.94 34 20.88 34 27 34 C27 36.64 27 39.28 27 42 C18.09 42 9.18 42 0 42 C0 28.14 0 14.28 0 0 Z " fill="#27B9CE" transform="translate(1088,769)"/>
<path d="M0 0 C10.56 0 21.12 0 32 0 C32 2.97 32 5.94 32 9 C28.37 9 24.74 9 21 9 C21 19.89 21 30.78 21 42 C17.7 42 14.4 42 11 42 C11 31.11 11 20.22 11 9 C7.37 9 3.74 9 0 9 C0 6.03 0 3.06 0 0 Z " fill="#27B8CD" transform="translate(1176,769)"/>
<path d="M0 0 C10.56 0 21.12 0 32 0 C32 2.97 32 5.94 32 9 C28.37 9 24.74 9 21 9 C21 19.89 21 30.78 21 42 C17.7 42 14.4 42 11 42 C11 31.11 11 20.22 11 9 C7.37 9 3.74 9 0 9 C0 6.03 0 3.06 0 0 Z " fill="#27B8CD" transform="translate(962,769)"/>
<path d="M0 0 C3.3 0 6.6 0 10 0 C10 13.86 10 27.72 10 42 C6.7 42 3.4 42 0 42 C0 28.14 0 14.28 0 0 Z " fill="#27B9CE" transform="translate(1303,769)"/>
<path d="M0 0 C3.3 0 6.6 0 10 0 C10 13.86 10 27.72 10 42 C6.7 42 3.4 42 0 42 C0 28.14 0 14.28 0 0 Z " fill="#27B9CE" transform="translate(802,769)"/>
</svg>
