<svg width="1173" height="664" viewBox="0 0 1173 664" fill="none" xmlns="http://www.w3.org/2000/svg">
<path d="M574.969 0.0669043C576.214 0.0522815 576.214 0.0522815 577.484 0.0373633C596.037 -0.135698 613.827 0.135917 632 4.30519C632.846 4.49242 633.691 4.67966 634.562 4.87257C683.902 16.0318 729.201 45.3331 759 86.3052C759.777 87.3609 760.555 88.4167 761.355 89.5044C794.94 136.5 807.65 195.299 798.223 252.106C794.747 271.663 788.784 290.494 780 308.305C779.62 309.083 779.239 309.862 778.848 310.664C768.509 331.62 755.009 349.339 739 366.305C738.198 367.161 737.396 368.017 736.57 368.899C701.662 405.066 648.528 428.245 598.374 429.569C594.54 429.632 590.709 429.636 586.875 429.618C586.067 429.616 585.26 429.614 584.428 429.612C571.42 429.563 558.782 428.886 546 426.305C545.152 426.139 544.304 425.973 543.43 425.801C523.338 421.748 503.984 415.156 486 405.305C484.652 404.588 483.305 403.87 481.957 403.153C463.744 393.32 448.033 380.451 433 366.305C432.341 365.689 431.682 365.073 431.004 364.438C392.011 326.796 371.876 270.409 370.767 217.134C370.372 164.724 388.739 113.922 423 74.3052C423.815 73.3603 424.629 72.4154 425.469 71.4419C433.918 61.8774 442.871 53.08 453 45.3052C453.623 44.8218 454.247 44.3384 454.889 43.8403C488.655 17.8701 531.965 0.489283 574.969 0.0669043ZM548 16.3052C547.077 16.4932 546.153 16.6813 545.202 16.875C515.988 22.9975 488.688 35.119 465 53.3052C464.135 53.9587 463.27 54.6123 462.379 55.2857C441.402 71.5638 424.22 91.289 411 114.305C410.642 114.926 410.284 115.546 409.915 116.185C383.63 162.212 377.64 217.435 391.274 268.438C401.339 303.82 420.831 337.236 448 362.305C448.575 362.839 449.15 363.373 449.742 363.922C478.935 390.208 515.251 407.85 554 414.305C555.93 414.642 555.93 414.642 557.898 414.985C609.649 422.525 663.759 408.551 705.651 377.508C713.897 371.251 721.563 364.497 729 357.305C729.673 356.672 730.346 356.039 731.039 355.387C745.423 341.561 756.883 323.951 766 306.305C766.345 305.641 766.69 304.976 767.046 304.292C791.229 257.096 794.096 201.067 777.937 150.868C771.582 132.176 762.494 114.347 751 98.3052C750.585 97.7238 750.171 97.1424 749.744 96.5435C743.874 88.41 737.31 80.9869 730.381 73.7495C729.155 72.4672 727.942 71.1722 726.73 69.8755C700.161 42.1729 662.326 23.6804 625 16.3052C624.19 16.1429 623.381 15.9807 622.547 15.8135C598.602 11.2533 571.857 11.2833 548 16.3052Z" fill="#75BC20"/>
<path d="M586 37.3052C591.595 39.5032 593.9 43.8541 596.25 49.1177C596.841 50.5104 597.427 51.9052 598 53.3052C598.592 53.028 599.184 52.7509 599.793 52.4653C600.979 51.922 600.979 51.922 602.188 51.3677C602.965 51.008 603.742 50.6484 604.543 50.2778C609.595 48.2778 614.493 48.1227 619.875 48.1177C620.898 48.0993 620.898 48.0993 621.942 48.0806C626.657 48.0671 630.522 48.826 635 50.3052C633.597 53.1121 631.959 53.2748 629.063 54.3677C625.48 55.7194 625.48 55.7194 622 57.3052C623.137 57.3426 624.274 57.3799 625.446 57.4185C653.787 58.541 675.443 68.5465 695 89.3052C693 90.3052 693 90.3052 691.128 89.7319C690.377 89.4106 689.626 89.0893 688.852 88.7583C688.018 88.409 687.183 88.0596 686.324 87.6997C685.433 87.322 684.543 86.9443 683.625 86.5552C669.57 80.8169 658.111 78.8518 643 79.3052C644.137 79.6455 645.274 79.9858 646.446 80.3364C668.784 87.2527 687.203 98.8134 698.387 119.901C701.148 125.295 703.361 130.175 703 136.305C696.761 131.015 696.761 131.015 693.766 128.219C678.435 113.94 659.35 101.98 638 100.305C638.629 100.85 639.258 101.396 639.907 101.958C656.729 116.778 671.691 136.316 673.215 159.586C673.263 163.993 673.244 168.054 672 172.305C671.34 172.305 670.68 172.305 670 172.305C669.074 170.565 669.074 170.565 668.129 168.79C663.04 159.349 657.818 150.616 651 142.305C650.544 141.738 650.088 141.171 649.617 140.587C641.036 129.961 631.873 121.25 620 114.305C620.35 115.162 620.699 116.02 621.059 116.903C625.656 128.455 625.656 128.455 626 134.305C626.083 135.501 626.165 136.698 626.25 137.93C626.083 147.502 623.207 156.341 618 164.305C617.34 163.975 616.68 163.645 616 163.305C615.558 161.487 615.199 159.648 614.875 157.805C611.078 140.603 600.282 121.077 587 109.305C586.34 109.305 585.68 109.305 585 109.305C582.752 111.605 580.88 114.245 578.938 116.805C578.356 117.573 577.774 118.34 577.174 119.131C566.906 132.936 559.716 147.415 556 164.305C550.681 160.126 548.229 152.817 547 146.305C546.276 135.866 547.263 127.197 551 117.305C551.495 115.82 551.495 115.82 552 114.305C529.917 129.477 515.015 149.163 502 172.305C499.545 169.849 499.72 168.411 499.67 165.051C499.872 140.639 511.703 122.283 528.659 105.404C532.712 101.45 532.712 101.45 535 100.305C508.728 101.688 488.141 119.026 470 136.305C468.549 132.867 469.377 130.511 470.69 127.127C470.957 126.485 471.225 125.842 471.5 125.18C471.773 124.514 472.046 123.849 472.326 123.163C474.824 117.3 478.024 112.287 482 107.305C482.448 106.695 482.895 106.086 483.356 105.458C494.436 91.1925 513.05 83.786 530 79.3052C511.24 78.7424 497.234 83.1126 480 90.3052C480 87.3052 480 87.3052 482.098 84.9575C483.075 84.0403 484.064 83.1362 485.063 82.2427C485.599 81.761 486.134 81.2793 486.687 80.783C506.082 63.7877 525.613 58.3665 551 57.3052C550.469 57.0396 549.938 56.7741 549.391 56.5005C545.927 54.7687 542.464 53.0369 539 51.3052C543.312 46.9933 549.683 48.0632 555.421 48.0498C563.007 48.1454 569.27 49.8267 576 53.3052C576.303 52.4853 576.606 51.6655 576.918 50.8208C577.337 49.7431 577.756 48.6655 578.188 47.5552C578.594 46.4878 579 45.4205 579.418 44.3208C581.161 40.9995 582.944 39.4217 586 37.3052Z" fill="#75BC20"/>
<path d="M728.488 76.7723C764.303 112.811 783.614 163.169 784.027 213.647C783.56 271.153 760.582 320.614 720.297 361.016C684.348 395.09 635.218 412.804 586.125 412.68C585.271 412.679 584.418 412.678 583.538 412.677C553.889 412.577 525.642 406.537 499 393.305C497.932 392.783 497.932 392.783 496.842 392.251C480.654 384.279 466.516 374.202 453 362.305C452.229 361.657 451.458 361.008 450.664 360.34C446.657 356.955 443.146 353.379 439.762 349.371C438.608 348.018 437.424 346.691 436.207 345.395C409.844 317.183 394.451 279.096 389 241.305C388.897 240.636 388.794 239.967 388.688 239.277C385.928 218.783 386.586 195.467 391 175.305C391.199 174.39 391.397 173.476 391.602 172.534C399.793 136.089 417.397 104.468 442.563 77.055C443.081 76.4883 443.599 75.9216 444.132 75.3377C476.984 40.0788 527.184 18.5258 575.026 16.3968C633.921 14.7824 686.595 35.4696 728.488 76.7723ZM443.875 87.6175C408.652 127.408 393.537 177.734 396 230.305C396.518 237.4 397.57 244.34 399 251.305C399.166 252.124 399.333 252.944 399.504 253.788C405.223 280.959 416.768 307.452 434 329.305C435.106 330.724 435.106 330.724 436.234 332.172C444.014 341.91 452.287 351.454 462 359.305C463.004 360.135 464.008 360.965 465.043 361.821C478.28 372.611 492.557 381.074 508 388.305C509.115 388.839 510.23 389.372 511.379 389.922C555.308 409.942 607.694 409.842 652.649 393.332C677.394 383.79 698.964 369.69 718 351.305C718.983 350.385 719.966 349.466 720.949 348.547C732.973 337.123 742.821 323.702 751 309.305C751.654 308.184 752.307 307.062 752.981 305.907C776.679 264.202 782.11 212.695 770.112 166.537C762.731 139.81 750.514 114.129 732 93.305C731.308 92.5045 730.616 91.704 729.902 90.8792C719.894 79.49 709.378 69.0847 697 60.305C696.122 59.6768 696.122 59.6768 695.227 59.036C685.944 52.4474 676.351 47.0288 666 42.305C664.878 41.7904 664.878 41.7904 663.733 41.2655C652.417 36.1373 641.084 32.1835 629 29.305C627.772 29.0085 626.543 28.7121 625.277 28.4066C558.325 13.6903 490.197 38.3003 443.875 87.6175Z" fill="#75BC20"/>
<path d="M451 303.305C461.841 303.816 472.372 305.102 483.062 306.93C484.229 307.128 484.229 307.128 485.419 307.329C516.401 312.604 548.849 319.418 577.665 332.413C584.617 335.419 590.296 333.384 597.145 330.899C598.539 330.401 599.934 329.904 601.329 329.407C602.058 329.146 602.787 328.885 603.538 328.616C640.025 315.613 681.922 302.747 721 303.305C721 303.635 721 303.965 721 304.305C719.932 304.515 719.932 304.515 718.842 304.729C681.022 312.253 641.514 323.896 609 345.305C609.517 345.556 610.034 345.806 610.566 346.064C620.098 350.705 629.537 355.445 638.688 360.805C639.773 361.436 639.773 361.436 640.881 362.08C645.873 365.051 645.873 365.051 647 367.305C645.019 369.987 643.016 372.65 641 375.305C640.582 375.863 640.165 376.421 639.734 376.997C636.008 381.754 631.194 386.414 625 387.305C622.544 385.557 620.374 383.794 618.125 381.805C611.424 376.142 604.506 370.893 597.312 365.868C596.368 365.187 595.424 364.506 594.452 363.805C593.556 363.188 592.661 362.57 591.738 361.934C590.945 361.378 590.151 360.822 589.333 360.249C586.993 359.029 586.993 359.029 584.425 360C582.358 361.112 580.4 362.225 578.469 363.555C577.829 363.994 577.19 364.433 576.531 364.885C575.861 365.353 575.191 365.822 574.5 366.305C573.799 366.791 573.099 367.276 572.377 367.776C566.718 371.731 561.237 375.884 555.797 380.133C552.593 382.621 549.326 384.984 546 387.305C536.936 383.587 530.404 376.274 525 368.305C526.449 364.598 528.109 363.348 531.586 361.5C532.512 361.002 533.438 360.503 534.392 359.99C535.376 359.475 536.361 358.96 537.375 358.43C538.37 357.9 539.365 357.37 540.39 356.824C543.253 355.304 546.124 353.801 549 352.305C549.719 351.929 550.438 351.553 551.179 351.165C560.506 346.305 560.506 346.305 563 346.305C558.93 341.694 552.98 339.5 547.562 336.805C546.944 336.496 546.325 336.187 545.687 335.869C515.508 320.879 483.945 311.064 451 304.305C451 303.975 451 303.645 451 303.305Z" fill="#75BB20"/>
<path d="M584.25 192.055C584.969 192.055 585.687 192.054 586.428 192.053C616.918 192.099 642.001 200.737 664.562 221.555C673.192 229.074 684.626 232.904 696 232.305C695.68 235.292 695.094 236.221 692.809 238.254C690.035 240.28 687.324 241.843 684.25 243.368C683.286 243.854 682.322 244.34 681.328 244.84C673.473 248.298 667.144 249.596 658.562 249.555C649.896 249.734 644.273 250.895 638 257.305C637.134 258.13 636.267 258.955 635.375 259.805C634.591 260.63 633.808 261.455 633 262.305C631.684 263.573 630.349 264.822 629 266.055C628.041 266.945 628.041 266.945 627.062 267.852C624.702 269.515 622.838 269.931 620 270.305C619.67 268.985 619.34 267.665 619 266.305C620.98 264.82 620.98 264.82 623 263.305C618.39 264.048 615.754 266.838 612.316 269.809C609.629 271.545 608.137 271.61 605 271.305C605 269.985 605 268.665 605 267.305C607.5 265.555 607.5 265.555 610 264.305C606.895 264.006 605.414 264.025 602.789 265.801C602.075 266.442 601.361 267.083 600.625 267.743C596.624 271.067 594.17 272.195 589 272.305C589 270.985 589 269.665 589 268.305C591.31 267.315 593.62 266.325 596 265.305C589.4 264.315 582.8 263.325 576 262.305C576 261.315 576 260.325 576 259.305C578.404 258.103 579.684 258.266 582.352 258.426C583.202 258.475 584.053 258.523 584.93 258.573C585.819 258.629 586.709 258.685 587.625 258.743C588.522 258.795 589.419 258.847 590.344 258.901C592.563 259.031 594.781 259.167 597 259.305C594.03 257.655 591.06 256.005 588 254.305C588 253.315 588 252.325 588 251.305C591 250.305 591 250.305 593.848 251.45C594.909 252 595.969 252.551 597.062 253.118C598.658 253.932 598.658 253.932 600.285 254.762C603 256.305 603 256.305 605 258.305C607.203 258.765 607.203 258.765 609.625 258.93C610.442 259.005 611.26 259.08 612.102 259.157C613.041 259.23 613.041 259.23 614 259.305C611.799 256.827 609.936 255.693 606.812 254.618C606.097 254.366 605.382 254.115 604.645 253.856C604.102 253.674 603.559 253.493 603 253.305C603.33 251.655 603.66 250.005 604 248.305C608.477 248.541 611.215 249.967 614.875 252.368C619.606 255.371 622.474 255.919 628 255.305C628 254.645 628 253.985 628 253.305C627.299 253.037 626.598 252.769 625.875 252.493C622.835 251.237 619.927 249.803 617 248.305C617 247.315 617 246.325 617 245.305C622.888 244.679 625.961 246.081 630.887 249.309C632.929 250.495 632.929 250.495 635.082 250.083C637.27 249.271 637.27 249.271 640 247.305C621.753 241.119 606.237 238.873 587 240.305C587.454 236.135 587.824 233.749 591.125 231.055C591.684 230.576 592.244 230.096 592.82 229.602C598.402 226.281 603.605 226.12 609.938 226.68C610.963 226.765 610.963 226.765 612.01 226.852C613.674 226.992 615.337 227.147 617 227.305C616.074 221.187 614.895 217.99 610.188 213.805C592.745 202.238 568.277 202.559 548.438 206.453C546.63 206.84 544.83 207.261 543.031 207.684C540.248 208.254 537.828 208.427 535 208.305C535.109 206.524 535.109 206.524 536 204.305C550.652 194.65 567.083 192.07 584.25 192.055Z" fill="#75BC20"/>
<path d="M587 210.305C586.67 211.625 586.34 212.945 586 214.305C583.69 214.965 581.38 215.625 579 216.305C579 216.965 579 217.625 579 218.305C579.594 218.282 580.189 218.259 580.801 218.235C587.423 218.091 593.531 218.928 600 220.305C600 221.295 600 222.285 600 223.305C593.07 223.305 586.14 223.305 579 223.305C581.64 224.625 584.28 225.945 587 227.305C587 228.625 587 229.945 587 231.305C581.117 231.055 577.825 229.162 573.113 225.68C568.888 222.931 567.115 223.282 562 224.305C567.445 226.78 567.445 226.78 573 229.305C572.67 230.625 572.34 231.945 572 233.305C567.006 233.088 564.143 231.929 559.938 229.18C556.026 226.645 556.026 226.645 551.375 226.43C550.591 226.719 549.808 227.008 549 227.305C551.725 230.671 555.069 231.748 559 233.305C558.67 234.625 558.34 235.945 558 237.305C551.985 236.289 548.109 234.751 543 231.305C539.911 231.477 539.214 232.092 537 234.305C539.664 235.126 542.331 235.937 545 236.743C545.744 236.973 546.488 237.203 547.254 237.44C559.634 241.154 572.256 240.916 585 239.305C584.926 242.394 584.623 244.572 582.586 246.969C576.614 252.31 571.093 253.631 563.125 253.43C562.437 253.421 561.748 253.412 561.039 253.403C559.359 253.38 557.68 253.344 556 253.305C554.985 256.459 554.864 257.021 556.375 260.18C562.868 268.956 574.426 272.553 584.688 274.555C597.603 276.422 610.19 275.222 623 273.305C624.285 273.115 625.57 272.924 626.895 272.727C629.932 272.267 632.967 271.794 636 271.305C636 272.625 636 273.945 636 275.305C622.456 282.753 608.62 287.992 593 288.305C592.194 288.344 591.389 288.383 590.559 288.423C558.761 289.318 531.258 280.252 507.938 258.555C499.044 250.618 487.787 246.804 476 247.305C476.312 244.39 476.895 243.402 479.09 241.391C482.353 239.052 485.736 237.332 489.375 235.68C490.009 235.381 490.643 235.082 491.297 234.774C498.366 231.514 504.733 229.986 512.5 230.118C513.581 230.119 513.581 230.119 514.684 230.12C518.169 230.148 521.293 230.358 524.742 230.981C528.508 231.356 529.633 230.889 532.625 228.68C533.774 227.837 533.774 227.837 534.945 226.977C537.488 224.908 539.739 222.679 542 220.305C543.483 218.871 544.985 217.456 546.5 216.055C547.232 215.37 547.964 214.684 548.719 213.977C551.204 212.156 552.97 211.668 556 211.305C556.495 213.285 556.495 213.285 557 215.305C555.35 216.295 553.7 217.285 552 218.305C555.846 218.072 557.666 216.862 560.375 214.305C563.89 211.076 566.281 210.498 571 210.305C570.812 212.118 570.812 212.118 570 214.305C567.438 216.055 567.438 216.055 565 217.305C571.33 216.972 575.808 213.592 581 210.305C583.491 209.06 584.411 209.529 587 210.305Z" fill="#75BC20"/>
<path d="M210 582.305C210.074 587.874 210.129 593.442 210.165 599.01C210.18 600.903 210.2 602.795 210.226 604.687C210.263 607.415 210.28 610.143 210.293 612.872C210.308 613.71 210.324 614.549 210.34 615.413C210.341 620.806 209.588 624.541 207 629.305C200.175 634.944 192.538 634.991 184 634.305C181.66 633.578 179.524 632.753 177.328 631.668C174.765 631.055 174.765 631.055 171.692 632.755C165.797 635.039 159.851 634.745 153.607 634.738C152.266 634.747 150.925 634.757 149.584 634.768C145.965 634.796 142.346 634.805 138.727 634.811C134.936 634.821 131.146 634.847 127.356 634.871C120.188 634.915 113.02 634.943 105.852 634.967C97.6873 634.994 89.5228 635.038 81.3584 635.083C64.5723 635.176 47.7862 635.247 31 635.305C30.5617 636.402 30.1234 637.499 29.6719 638.629C28.0273 642.746 25.7023 644.813 22 647.305C16.581 649.555 11.6377 649.802 6 648.305C2.19611 645.672 1.19629 642.692 0 638.305C0.94875 638.635 1.8975 638.965 2.875 639.305C8.43526 640.905 14.5003 641.138 20 639.305C21.2663 635.506 21.233 631.881 21.3164 627.918C21.3372 627.101 21.358 626.284 21.3794 625.443C21.4447 622.834 21.5037 620.226 21.5625 617.618C21.6057 615.849 21.6493 614.08 21.6934 612.311C21.8004 607.976 21.9017 603.641 22 599.305C24.97 598.645 27.94 597.985 31 597.305C31 606.875 31 616.445 31 626.305C45.19 626.305 59.38 626.305 74 626.305C73.6277 611.92 73.6277 611.92 67 606.305C60.4971 605.361 57.4462 606.888 52 610.305C49 610.305 49 610.305 46.8125 608.305C46.2144 607.645 45.6162 606.985 45 606.305C46.3881 602.141 48.5578 601.37 52.3359 599.391C59.1663 596.607 66.2106 596.502 73.0625 599.243C78.1014 602.006 80.0341 605.835 81.8125 611.055C83.2125 616.23 83.2288 620.967 83 626.305C88.28 626.305 93.56 626.305 99 626.305C99 619.705 99 613.105 99 606.305C101.97 605.645 104.94 604.985 108 604.305C108.495 608.76 108.495 608.76 109 613.305C109.401 612.641 109.802 611.977 110.215 611.293C114.874 604.057 119.166 599.646 127.703 597.684C133.897 596.845 139.518 597.105 145 600.305C149.447 604.166 152.979 608.406 154 614.305C154.139 618.312 154.117 622.298 154 626.305C156.105 626.191 158.209 626.064 160.312 625.93C162.07 625.826 162.07 625.826 163.863 625.719C167.157 625.519 167.157 625.519 170 623.305C170.51 620.791 170.51 620.791 170.512 617.86C170.547 616.783 170.583 615.707 170.619 614.598C170.653 612.906 170.653 612.906 170.688 611.18C170.722 610.045 170.756 608.909 170.791 607.739C170.874 604.928 170.943 602.117 171 599.305C173.97 598.645 176.94 597.985 180 597.305C180.022 598.418 180.022 598.418 180.044 599.552C180.119 602.908 180.215 606.263 180.312 609.618C180.335 610.785 180.358 611.952 180.381 613.155C180.416 614.273 180.452 615.391 180.488 616.543C180.514 617.575 180.541 618.607 180.568 619.67C180.799 622.32 180.799 622.32 182.343 624.14C184.965 625.984 187.348 625.701 190.5 625.68C192.217 625.692 192.217 625.692 193.969 625.704C197.336 625.261 197.977 624.899 200 622.305C200.331 619.371 200.489 616.638 200.512 613.7C200.53 612.861 200.548 612.021 200.566 611.157C200.62 608.477 200.654 605.798 200.688 603.118C200.721 601.301 200.755 599.484 200.791 597.667C200.876 593.213 200.943 588.759 201 584.305C204.371 582.807 206.204 582.305 210 582.305ZM115 616.305C112.662 620.152 112 621.763 112 626.305C123.22 626.305 134.44 626.305 146 626.305C146 618.947 145.794 615.266 142 609.305C138.992 606.624 137.077 605.492 133.125 604.805C125.413 606.039 119.877 610.357 115 616.305Z" fill="#555A5B"/>
<path d="M1171 582.305C1171.22 587.712 1171.41 593.12 1171.59 598.528C1171.66 600.365 1171.72 602.202 1171.8 604.039C1171.91 606.69 1171.99 609.341 1172.07 611.993C1172.13 613.21 1172.13 613.21 1172.19 614.453C1172.33 620.108 1171.41 624.162 1169 629.305C1162.28 635.002 1154.47 634.986 1146 634.305C1143.5 633.528 1143.5 633.528 1141.25 632.618C1137.63 631.223 1137.25 631.215 1133.31 632.618C1132.35 633.064 1132.35 633.064 1131.36 633.52C1123.79 636.039 1114.95 634.979 1107.77 631.766C1107.19 631.614 1106.6 631.462 1106 631.305C1105.01 631.965 1104.02 632.625 1103 633.305C1095.04 635.717 1087.44 634.611 1080 631.305C1078.92 632.728 1078.92 632.728 1077.81 634.18C1075.58 637.119 1073.53 638.214 1070 639.305C1063.76 640.005 1058.34 639.91 1053 636.305C1051.12 634.743 1051.12 634.743 1050 633.305C1050 632.645 1050 631.985 1050 631.305C1049.45 631.522 1048.91 631.738 1048.35 631.961C1039.84 635.102 1033.35 635.29 1024.95 631.766C1024.3 631.614 1023.66 631.462 1023 631.305C1022.01 631.965 1021.02 632.625 1020 633.305C1011.67 635.514 1002.68 635.157 994.707 631.961C992.994 631.186 992.994 631.186 991 631.305C990.01 631.965 989.02 632.625 988 633.305C981.704 634.987 975.723 634.494 970 631.305C964.497 624.839 964.572 618.456 965 610.305C965.724 605.816 966.596 603.353 970 600.43C973.824 597.721 975.408 597.181 980.008 597.208C980.994 597.211 981.98 597.214 982.996 597.217C984.029 597.226 985.061 597.234 986.125 597.243C987.685 597.249 987.685 597.249 989.277 597.256C991.852 597.268 994.426 597.285 997 597.305C997.015 598.011 997.029 598.717 997.044 599.445C997.119 602.649 997.215 605.852 997.312 609.055C997.346 610.722 997.346 610.722 997.381 612.422C997.416 613.492 997.452 614.562 997.488 615.665C997.514 616.649 997.541 617.634 997.568 618.648C998.066 621.711 998.811 623.122 1001 625.305C1003.67 625.714 1005.84 625.866 1008.5 625.805C1009.18 625.821 1009.85 625.836 1010.55 625.852C1014.55 625.833 1014.55 625.833 1017.68 623.597C1019.23 620.909 1019.42 619.186 1019.51 616.102C1019.55 615.122 1019.58 614.143 1019.62 613.133C1019.64 612.118 1019.66 611.102 1019.69 610.055C1019.72 609.024 1019.76 607.993 1019.79 606.93C1019.87 604.389 1019.94 601.847 1020 599.305C1022.64 598.645 1025.28 597.985 1028 597.305C1028.01 598.011 1028.03 598.717 1028.04 599.445C1028.12 602.649 1028.22 605.852 1028.31 609.055C1028.35 610.722 1028.35 610.722 1028.38 612.422C1028.42 613.492 1028.45 614.562 1028.49 615.665C1028.51 616.649 1028.54 617.634 1028.57 618.648C1029.06 621.686 1029.88 623.102 1032 625.305C1034.37 625.863 1034.37 625.863 1036.94 625.68C1038.22 625.661 1038.22 625.661 1039.53 625.641C1042.23 625.273 1043.8 624.94 1046 623.305C1047.1 620.646 1047.1 620.646 1047.81 617.555C1049.35 612.577 1050.76 609.379 1055.02 606.293C1059.93 603.846 1064.95 603.912 1070.25 604.93C1074.54 606.505 1076.31 607.612 1079 611.305C1079.9 613.851 1080.61 616.372 1081.23 619C1082.09 621.56 1082.87 622.673 1085 624.305C1088.31 625.076 1088.31 625.076 1092 625.305C1093.24 625.408 1094.47 625.511 1095.75 625.618C1099.01 625.655 1099.01 625.655 1100.67 623.611C1102.23 620.914 1102.42 619.2 1102.51 616.102C1102.55 615.122 1102.58 614.143 1102.62 613.133C1102.65 611.61 1102.65 611.61 1102.69 610.055C1102.72 609.024 1102.76 607.993 1102.79 606.93C1102.87 604.389 1102.94 601.847 1103 599.305C1105.64 598.645 1108.28 597.985 1111 597.305C1111.02 598.364 1111.02 598.364 1111.04 599.445C1111.12 602.649 1111.22 605.852 1111.31 609.055C1111.33 610.166 1111.36 611.278 1111.38 612.422C1111.42 613.492 1111.45 614.562 1111.49 615.665C1111.51 616.649 1111.54 617.634 1111.57 618.648C1112.07 621.706 1112.82 623.119 1115 625.305C1118.32 625.904 1118.32 625.904 1122 625.743C1123.86 625.741 1123.86 625.741 1125.75 625.739C1128.89 625.578 1128.89 625.578 1130.67 624.111C1132.46 621.675 1132.43 619.988 1132.51 616.981C1132.55 615.953 1132.58 614.925 1132.62 613.866C1132.65 612.258 1132.65 612.258 1132.69 610.618C1132.72 609.534 1132.76 608.451 1132.79 607.334C1132.87 604.658 1132.94 601.982 1133 599.305C1135.97 598.645 1138.94 597.985 1142 597.305C1142.02 598.418 1142.02 598.418 1142.04 599.552C1142.12 602.908 1142.22 606.263 1142.31 609.618C1142.33 610.785 1142.36 611.952 1142.38 613.155C1142.42 614.273 1142.45 615.391 1142.49 616.543C1142.51 617.575 1142.54 618.607 1142.57 619.67C1142.8 622.323 1142.8 622.323 1144.36 624.138C1146.84 625.903 1148.93 625.739 1151.94 625.743C1152.98 625.762 1154.02 625.781 1155.09 625.801C1158.82 625.165 1159.75 624.338 1162 621.305C1162.42 618.358 1162.6 615.77 1162.61 612.821C1162.63 612.005 1162.64 611.19 1162.66 610.349C1162.71 607.751 1162.73 605.154 1162.75 602.555C1162.78 600.791 1162.81 599.026 1162.84 597.262C1162.91 592.943 1162.96 588.625 1163 584.305C1165.91 583.049 1167.8 582.305 1171 582.305ZM975.937 606.305C973.526 610.039 972.835 612.891 973 617.305C973.845 621.039 974.681 624.172 978 626.305C980.957 626.889 980.957 626.889 984 626.305C987.149 623.922 988.341 622.131 989 618.305C989.068 615.889 989.085 613.472 989.062 611.055C989.053 609.792 989.044 608.529 989.035 607.227C989.023 606.263 989.012 605.299 989 604.305C982.119 603.672 982.119 603.672 975.937 606.305ZM1058.56 614.18C1056.4 618.495 1056.14 622.56 1057 627.305C1058.8 630.308 1059.49 631.139 1062.87 632.243C1066.58 632.317 1068.1 631.542 1071 629.305C1072.86 625.594 1072.45 621.355 1072 617.305C1070.67 614.077 1070.67 614.077 1068 612.305C1063.84 611.563 1061.94 611.581 1058.56 614.18Z" fill="#545A5B"/>
<path d="M796 582.305C796.025 583.501 796.05 584.697 796.076 585.929C796.17 590.363 796.27 594.797 796.372 599.23C796.416 601.15 796.457 603.069 796.497 604.989C796.555 607.747 796.619 610.505 796.684 613.262C796.7 614.122 796.717 614.981 796.734 615.867C796.754 616.667 796.774 617.468 796.795 618.293C796.81 618.997 796.826 619.701 796.842 620.426C796.945 622.532 796.945 622.532 798 625.305C803.28 625.635 808.56 625.965 814 626.305C814 612.775 814 599.245 814 585.305C816.97 584.645 819.94 583.985 823 583.305C823.495 594.69 823.495 594.69 824 606.305C827.465 603.335 827.465 603.335 831 600.305C837.864 596.655 845.228 596.265 852.625 598.305C858.147 601.577 861.879 605.721 864.437 611.618C865.194 616.575 865.124 621.291 865 626.305C869.62 626.305 874.24 626.305 879 626.305C878.948 624.461 878.948 624.461 878.895 622.579C878.866 620.946 878.839 619.313 878.812 617.68C878.787 616.872 878.762 616.064 878.736 615.231C878.674 610.144 879.168 606.711 882 602.305C886.665 597.99 890.385 596.974 896.57 597.004C900.599 597.503 903.514 599.277 907 601.305C905.333 605.076 903.665 606.376 900 608.305C899.464 607.79 898.927 607.274 898.375 606.743C896.017 605.026 896.017 605.026 892.875 605.368C889.996 605.999 889.996 605.999 888.859 607.848C887.63 611.363 887.532 614.871 887.375 618.555C887.309 619.938 887.242 621.32 887.174 622.703C887.117 623.891 887.059 625.08 887 626.305C891.503 626.212 896.005 626.105 900.507 625.988C902.039 625.95 903.57 625.915 905.102 625.883C907.304 625.838 909.505 625.78 911.707 625.719C912.391 625.708 913.076 625.696 913.781 625.684C917.385 625.572 918.916 625.361 922 623.305C923.245 619.571 923.232 616.032 923.316 612.137C923.348 610.945 923.348 610.945 923.379 609.729C923.445 607.192 923.504 604.655 923.562 602.118C923.606 600.397 923.649 598.676 923.693 596.956C923.8 592.739 923.902 588.522 924 584.305C926.906 583.049 928.796 582.305 932 582.305C932.074 588.195 932.129 594.085 932.165 599.975C932.18 601.978 932.2 603.981 932.226 605.984C932.263 608.866 932.28 611.747 932.293 614.629C932.308 615.522 932.324 616.415 932.34 617.335C932.341 622.171 932.144 625.378 929 629.305C924.226 633.828 920.163 634.424 913.763 634.446C912.728 634.451 911.694 634.457 910.628 634.463C909.503 634.464 908.379 634.465 907.221 634.466C906.028 634.471 904.836 634.476 903.607 634.481C900.345 634.493 897.083 634.501 893.82 634.505C891.781 634.508 889.741 634.512 887.702 634.517C881.317 634.531 874.931 634.54 868.546 634.544C861.182 634.549 853.818 634.566 846.454 634.595C840.755 634.617 835.057 634.627 829.358 634.628C825.957 634.629 822.556 634.635 819.155 634.653C815.363 634.67 811.571 634.668 807.779 634.662C806.655 634.671 805.531 634.68 804.372 634.69C803.338 634.684 802.303 634.678 801.237 634.673C799.893 634.675 799.893 634.675 798.522 634.677C794.696 634.113 792.071 632.246 789.206 629.73C787.248 625.794 787.634 621.839 787.707 617.508C787.711 616.56 787.715 615.611 787.72 614.633C787.737 611.607 787.774 608.581 787.812 605.555C787.828 603.502 787.841 601.448 787.853 599.395C787.887 594.365 787.938 589.335 788 584.305C793.75 582.305 793.75 582.305 796 582.305ZM828.687 613.555C826.531 616.267 825.363 618.738 824.332 622.04C824.078 622.841 823.824 623.642 823.562 624.468C823.376 625.074 823.191 625.681 823 626.305C827.681 626.33 832.363 626.348 837.044 626.36C838.638 626.365 840.232 626.372 841.825 626.381C844.111 626.393 846.397 626.398 848.684 626.403C849.4 626.408 850.117 626.413 850.855 626.418C852.571 626.419 854.286 626.367 856 626.305C856.495 625.81 856.495 625.81 857 625.305C856.949 618.55 856.012 612.665 851.375 607.493C842.052 602.831 835.361 606.52 828.687 613.555Z" fill="#555A5B"/>
<path d="M369 599.117C373.415 603.947 373.338 609.024 373.313 615.242C373.329 616.028 373.345 616.814 373.362 617.623C373.366 622.589 372.754 626.01 370 630.305C364.618 634.307 359.653 634.454 353.13 634.45C352.341 634.454 351.552 634.457 350.739 634.46C348.132 634.47 345.525 634.472 342.918 634.473C341.102 634.476 339.286 634.48 337.47 634.483C333.663 634.489 329.856 634.491 326.049 634.49C321.18 634.49 316.311 634.504 311.442 634.521C307.691 634.532 303.939 634.534 300.187 634.534C298.393 634.535 296.599 634.539 294.804 634.547C292.289 634.557 289.774 634.554 287.259 634.548C286.523 634.554 285.788 634.559 285.031 634.565C279.023 634.529 274.036 633.662 269 630.305C268.526 630.779 268.051 631.254 267.563 631.742C263.146 634.436 258.625 634.699 253.555 633.938C249.358 632.816 246.766 631.671 244.5 627.867C241.503 620.749 240.718 613.381 243.188 605.93C244.714 602.348 246.665 600.39 250 598.305C252.942 597.325 254.825 597.189 257.887 597.207C258.825 597.211 259.762 597.214 260.729 597.217C262.193 597.23 262.193 597.23 263.688 597.242C264.676 597.247 265.664 597.251 266.682 597.256C269.121 597.268 271.561 597.284 274 597.305C274.015 598.011 274.029 598.717 274.044 599.445C274.119 602.649 274.216 605.852 274.313 609.055C274.347 610.722 274.347 610.722 274.381 612.422C274.416 613.492 274.452 614.562 274.488 615.664C274.515 616.649 274.541 617.633 274.568 618.648C275.099 621.91 275.425 623.184 278 625.305C281.08 625.926 284.128 625.91 287.262 625.914C288.621 625.939 288.621 625.939 290.007 625.964C292.9 626.013 295.794 626.034 298.688 626.055C300.649 626.083 302.611 626.113 304.572 626.145C309.382 626.219 314.191 626.268 319 626.305C318.798 623.904 318.565 621.513 318.313 619.117C318.232 618.107 318.232 618.107 318.151 617.076C317.728 613.307 317.033 611.346 314.66 608.352C311.706 606.079 309.778 605.646 306.059 605.864C302.578 606.61 300.002 608.422 297 610.305C294 610.305 294 610.305 291.813 608.305C291.215 607.645 290.616 606.985 290 606.305C291.388 602.141 293.558 601.37 297.336 599.391C304.166 596.607 311.211 596.502 318.063 599.242C323.881 602.433 325.666 607.33 327.52 613.352C328.222 617.668 328.091 621.942 328 626.305C332.645 626.236 337.29 626.148 341.935 626.043C343.514 626.009 345.095 625.981 346.675 625.959C348.946 625.925 351.217 625.873 353.488 625.817C354.195 625.81 354.901 625.804 355.629 625.797C359.594 625.683 359.594 625.683 362.97 623.773C363.48 623.046 363.48 623.046 364 622.305C362.606 622.357 362.606 622.357 361.184 622.41C348.323 622.692 348.323 622.692 343 619.305C340.014 614.72 340.499 609.571 341 604.305C342.685 600.05 344.857 598.188 349 596.305C355.932 594.538 362.878 595.419 369 599.117ZM350.563 604.992C348.715 607.727 348.489 609.069 349 612.305C350.889 614.634 350.889 614.634 354.039 614.5C355.223 614.477 356.406 614.454 357.625 614.43C358.814 614.412 360.002 614.394 361.227 614.375C362.142 614.352 363.057 614.329 364 614.305C364.595 608.917 364.595 608.917 362.438 604.305C358.079 602.517 354.505 602.263 350.563 604.992ZM252.875 606.055C250.004 611.032 250.18 615.7 251 621.305C252.291 624.655 252.291 624.655 255 626.305C258.543 627.055 258.543 627.055 262 626.305C265.219 623.194 265.977 620.171 266.098 615.731C266.091 614.36 266.079 612.989 266.063 611.617C266.058 610.916 266.054 610.214 266.049 609.491C266.037 607.762 266.019 606.033 266 604.305C261.072 603.874 257.272 603.593 252.875 606.055Z" fill="#545A5B"/>
<path d="M458 489.305C458.33 496.565 458.66 503.825 459 511.305C461.64 509.325 464.28 507.345 467 505.305C472.917 502.207 479.498 502.593 486 503.305C491.711 505.343 495.209 508.937 498 514.305C499.809 519.575 500.284 524.126 500.188 529.618C500.187 530.69 500.187 530.69 500.186 531.784C500.141 537.023 500.141 537.023 499 539.305C490.516 539.375 482.031 539.428 473.547 539.461C469.607 539.476 465.667 539.497 461.726 539.531C457.92 539.564 454.115 539.582 450.308 539.59C448.86 539.595 447.412 539.606 445.963 539.622C438.651 539.701 432.616 539.691 426 536.305C423.966 537.234 421.968 538.243 420 539.305C416.982 539.573 414.022 539.486 411 539.305C410.918 540.357 410.835 541.409 410.75 542.493C409.917 546.729 409.11 548.359 406 551.305C399.379 555.572 391.629 555.048 384 554.305C378.624 552.808 374.915 550.127 372 545.305C368.783 537.952 369.909 529.719 371.797 522.083C373.144 518.974 374.091 518.067 377 516.43C377.701 516.02 378.403 515.61 379.125 515.188C381 514.305 381 514.305 383 514.305C382.784 515.021 382.567 515.736 382.344 516.473C380.161 524.284 377.871 533.691 380.86 541.571C382.741 544.431 384.816 545.147 388 546.305C392.361 546.873 395.869 546.787 399.938 545.055C402.061 543.254 403.02 541.89 404 539.305C403.093 539.223 402.185 539.14 401.25 539.055C397.599 538.213 396.366 537.126 394 534.305C395.091 530.53 395.908 527.835 399 525.305C399.681 526.512 399.681 526.512 400.375 527.743C401.747 530.394 401.747 530.394 404 531.305C405.768 531.428 407.541 531.481 409.313 531.493C410.258 531.507 411.202 531.521 412.176 531.536C415.18 531.29 417.315 530.659 420 529.305C421.231 526.844 421.206 525.047 421.317 522.297C421.379 520.818 421.379 520.818 421.444 519.309C421.483 518.277 421.522 517.244 421.563 516.18C421.627 514.62 421.627 514.62 421.694 513.028C421.8 510.454 421.902 507.88 422 505.305C424.64 504.315 427.28 503.325 430 502.305C430.025 503.011 430.05 503.717 430.076 504.445C430.192 507.648 430.315 510.852 430.438 514.055C430.477 515.166 430.516 516.278 430.557 517.422C430.599 518.492 430.641 519.562 430.684 520.665C430.739 522.141 430.739 522.141 430.795 523.648C430.976 525.994 431.343 528.052 432 530.305C437.889 531.329 442.819 531.305 449 531.305C449 518.105 449 504.905 449 491.305C453 489.305 453 489.305 458 489.305ZM461 523.305C458.697 527.088 458.697 527.088 458 531.305C465.564 532.245 473.009 532.428 480.625 532.368C481.725 532.363 482.824 532.359 483.957 532.354C486.638 532.342 489.319 532.326 492 532.305C492.143 525.787 491.706 520.044 487.781 514.622C484.954 511.849 482.326 510.949 478.5 510.743C470.406 511.271 465.638 517.215 461 523.305Z" fill="#545A5B"/>
<path d="M387 582.305C387.33 596.495 387.66 610.685 388 625.305C409.78 625.8 409.78 625.8 432 626.305C431.757 617.713 431.757 617.713 428 611.305C423.198 608.424 419.666 607.884 414.144 608.712C410.975 609.589 408.622 611.37 406 613.305C403 613.305 403 613.305 400.812 611.305C400.214 610.645 399.616 609.985 399 609.305C400.61 605.207 403.578 602.543 406.687 599.555C410.844 595.488 414.84 591.373 418.597 586.927C419.06 586.392 419.523 585.857 420 585.305C420.438 584.743 420.876 584.181 421.328 583.602C423.767 581.711 425.652 582.011 428.687 582.118C429.681 582.145 430.675 582.172 431.699 582.2C432.458 582.235 433.218 582.27 434 582.305C432.401 586.347 429.513 588.985 426.437 591.93C422.773 595.269 422.773 595.269 420 599.305C420.58 599.403 421.16 599.501 421.758 599.602C427.752 600.75 432.615 602.106 436.441 607.239C439.536 612.045 441.138 615.695 441.062 621.493C441.053 622.394 441.044 623.295 441.035 624.223C441.023 624.91 441.012 625.598 441 626.305C443.105 626.218 445.209 626.11 447.312 625.993C448.484 625.935 449.656 625.877 450.863 625.817C453.903 625.52 453.903 625.52 455.859 624.188C457.56 621.382 457.63 618.74 457.937 615.493C458.641 609.901 459.113 606.415 463 602.305C468.445 598.419 473.516 598.515 480 599.305C485.17 601.754 487.678 604.821 489.687 610.118C490.632 616.73 490.304 622.426 487 628.305C483.619 632.181 481.265 633.556 476.187 634.305C471.659 634.591 468.357 633.673 464.301 631.704C461.776 631.045 461.776 631.045 458.79 632.756C455.138 634.387 452.086 634.685 448.058 634.694C447.404 634.699 446.749 634.704 446.074 634.71C443.933 634.723 441.793 634.714 439.652 634.704C438.152 634.706 436.652 634.709 435.152 634.713C432.017 634.717 428.883 634.711 425.749 634.697C421.742 634.679 417.735 634.689 413.728 634.707C410.634 634.718 407.539 634.715 404.445 634.707C402.968 634.705 401.491 634.707 400.014 634.714C397.946 634.722 395.88 634.71 393.812 634.694C392.639 634.691 391.465 634.689 390.256 634.686C385.653 634.148 382.244 632.701 379.143 629.223C377.488 624.999 377.629 621.125 377.707 616.63C377.711 615.704 377.715 614.779 377.72 613.826C377.736 610.881 377.774 607.937 377.812 604.993C377.827 602.992 377.841 600.992 377.853 598.991C377.886 594.096 377.938 589.201 378 584.305C383.625 582.305 383.625 582.305 387 582.305ZM468 609.305C466.645 613.37 466.471 617.056 467 621.305C468.417 624.454 468.417 624.454 471 626.305C474.526 626.967 476.241 626.725 479.375 624.993C482.005 620.644 481.854 616.241 481 611.305C478.976 608.027 478.976 608.027 476 606.305C471.742 606.305 470.972 606.539 468 609.305Z" fill="#555A5B"/>
<path d="M787 487.305C787.099 493.158 787.172 499.011 787.22 504.865C787.24 506.854 787.267 508.844 787.302 510.833C787.351 513.7 787.373 516.566 787.391 519.434C787.411 520.317 787.432 521.199 787.453 522.109C787.455 528.027 786.467 531.466 783 536.305C778.687 539.24 775.158 539.714 770 539.68C768.824 539.688 767.649 539.696 766.438 539.704C762.703 539.271 760.237 538.17 757 536.305C756.257 537.254 755.515 538.203 754.75 539.18C751.108 543.492 747.94 544.746 742.215 545.333C735.176 545.246 729.957 542.008 725 537.305C724.5 537.622 724 537.939 723.484 538.266C720.128 539.67 716.837 539.767 713.25 539.93C712.204 539.988 712.204 539.988 711.137 540.047C709.425 540.141 707.712 540.224 706 540.305C705.608 541.357 705.216 542.409 704.812 543.493C702.862 548.015 700.197 551.255 695.68 553.415C691.138 554.924 686.72 555.001 682 554.305C678.142 551.549 676.412 548.799 675 544.305C675.961 544.539 675.961 544.539 676.941 544.778C682.234 545.969 686.655 546.802 692 545.305C694.31 543.823 694.31 543.823 696 541.305C696.418 538.428 696.605 535.918 696.609 533.04C696.626 532.246 696.642 531.453 696.659 530.635C696.708 528.109 696.729 525.582 696.75 523.055C696.778 521.339 696.808 519.623 696.84 517.907C696.914 513.706 696.963 509.506 697 505.305C700.371 503.807 702.204 503.305 706 503.305C706 512.545 706 521.785 706 531.305C714.962 531.331 714.962 531.331 723 528.305C724.021 525.599 724.021 525.599 724.812 522.493C726.561 516.884 728.017 514.38 733 511.305C738.666 509.416 744.786 509.58 750.438 511.43C755.723 515.297 757.523 520.257 759.191 526.352C759.937 528.665 759.937 528.665 763 530.305C765.904 530.623 765.904 530.623 769.062 530.555C770.126 530.56 771.189 530.565 772.285 530.571C775.148 530.581 775.148 530.581 777 528.305C777.246 525.369 777.374 522.52 777.414 519.579C777.433 518.716 777.453 517.853 777.473 516.964C777.533 514.203 777.579 511.442 777.625 508.68C777.663 506.81 777.702 504.941 777.742 503.071C777.838 498.482 777.922 493.894 778 489.305C784.75 487.305 784.75 487.305 787 487.305ZM735.062 519.93C733.107 524.3 732.806 527.335 733.75 532.055C734.733 535.544 734.733 535.544 738 537.305C741.458 537.889 741.458 537.889 745 537.305C747.701 535.159 748.78 533.56 749.379 530.145C749.58 526.251 749.231 523.776 747.5 520.243C744.898 518.226 744.091 517.929 740.938 517.743C737.091 517.939 737.091 517.939 735.062 519.93Z" fill="#545A5B"/>
<path d="M621 582.305C621.33 596.495 621.66 610.685 622 625.305C627.28 625.305 632.56 625.305 638 625.305C641.369 621.936 641.388 621.47 641.512 616.981C641.547 615.953 641.583 614.925 641.619 613.866C641.642 612.794 641.664 611.722 641.688 610.618C641.722 609.534 641.756 608.451 641.791 607.334C641.874 604.658 641.943 601.982 642 599.305C644.97 598.645 647.94 597.985 651 597.305C651.015 598.082 651.029 598.859 651.044 599.66C651.118 603.167 651.215 606.674 651.313 610.18C651.346 612.015 651.346 612.015 651.381 613.887C651.416 615.054 651.452 616.22 651.488 617.422C651.528 619.041 651.528 619.041 651.568 620.691C651.71 621.554 651.853 622.416 652 623.305C655.656 625.743 657.646 625.635 662 625.68C663.238 625.709 664.475 625.737 665.75 625.766C669.011 625.64 669.011 625.64 670.671 623.602C672.229 620.909 672.422 619.197 672.512 616.102C672.547 615.122 672.583 614.143 672.619 613.133C672.642 612.118 672.664 611.102 672.688 610.055C672.722 609.024 672.756 607.993 672.791 606.93C672.873 604.389 672.943 601.847 673 599.305C675.64 598.645 678.28 597.985 681 597.305C681.015 598.047 681.029 598.788 681.044 599.552C681.119 602.908 681.215 606.263 681.313 609.618C681.335 610.785 681.358 611.952 681.381 613.155C681.416 614.273 681.452 615.391 681.488 616.543C681.514 617.575 681.541 618.607 681.568 619.67C681.799 622.32 681.799 622.32 683.343 624.14C685.966 625.984 688.348 625.701 691.5 625.68C693.217 625.692 693.217 625.692 694.969 625.704C698.336 625.261 698.977 624.899 701 622.305C701.331 619.371 701.489 616.638 701.512 613.7C701.539 612.441 701.539 612.441 701.566 611.157C701.62 608.477 701.654 605.798 701.688 603.118C701.721 601.301 701.755 599.484 701.791 597.667C701.876 593.213 701.943 588.759 702 584.305C705.371 582.807 707.204 582.305 711 582.305C711.074 588.034 711.129 593.763 711.165 599.493C711.18 601.44 711.2 603.388 711.226 605.335C711.263 608.141 711.28 610.945 711.293 613.75C711.308 614.616 711.324 615.482 711.34 616.374C711.341 621.439 710.85 624.935 708 629.305C701.058 634.889 693.618 634.982 685 634.305C682.508 633.614 680.209 632.798 677.84 631.766C677.233 631.614 676.626 631.462 676 631.305C675.01 631.965 674.02 632.625 673 633.305C664.891 635.456 655.849 635.454 648.293 631.668C645.172 631.174 643.061 632.392 640.21 633.565C636.442 634.827 632.751 634.74 628.813 634.68C627.642 634.698 627.642 634.698 626.447 634.715C621.84 634.692 618.667 634.376 615 631.305C611.272 626.672 611.609 622.297 611.707 616.629C611.711 615.704 611.716 614.779 611.72 613.826C611.737 610.881 611.774 607.937 611.813 604.993C611.828 602.992 611.841 600.991 611.854 598.991C611.887 594.095 611.938 589.2 612 584.305C617.625 582.305 617.625 582.305 621 582.305Z" fill="#555A5B"/>
<path d="M668 488.305C664.366 494.583 659.187 499.296 654 504.305C655.069 504.526 655.069 504.526 656.16 504.751C662.557 506.249 667.905 507.92 672 513.305C675 520.305 675 520.305 675 539.305C657.18 539.305 639.36 539.305 621 539.305C620.67 541.285 620.34 543.265 620 545.305C617.808 549.047 615.086 551.738 611.25 553.743C605.445 554.748 599.154 555.652 594 552.305C591 547.163 591 547.163 591 544.305C591.961 544.539 591.961 544.539 592.941 544.778C598.247 545.972 602.625 546.732 608 545.305C610.059 543.727 610.846 542.614 612 540.305C612.157 537.682 612.258 535.08 612.316 532.454C612.337 531.68 612.358 530.906 612.379 530.108C612.445 527.632 612.504 525.156 612.562 522.68C612.606 521.003 612.649 519.326 612.693 517.649C612.801 513.535 612.902 509.42 613 505.305C616.088 503.541 617.233 503.305 621 503.305C621 512.545 621 521.785 621 531.305C636.18 531.635 651.36 531.965 667 532.305C665.36 519.959 665.36 519.959 660 515.305C656.016 513.314 651.329 513.771 647 514.305C643.748 515.638 640.887 517.309 638 519.305C635.525 516.335 635.525 516.335 633 513.305C636.687 509.344 640.384 505.395 644.105 501.466C646.338 499.103 648.523 496.728 650.613 494.239C655.98 488.127 659.95 487.087 668 488.305Z" fill="#555A5B"/>
<path d="M563 487.305C563.218 493.034 563.414 498.763 563.592 504.493C563.655 506.44 563.724 508.388 563.799 510.335C563.906 513.14 563.992 515.945 564.074 518.75C564.112 519.616 564.149 520.482 564.187 521.374C564.313 526.482 563.872 529.886 561 534.305C557.261 537.68 554.883 539.438 549.867 539.403C549.062 539.4 548.256 539.396 547.426 539.393C546.163 539.38 546.163 539.38 544.875 539.368C543.601 539.361 543.601 539.361 542.301 539.354C540.2 539.342 538.1 539.324 536 539.305C535.893 540.218 535.786 541.13 535.676 542.071C534.994 545.335 534.378 546.637 532.188 549.055C531.686 549.628 531.185 550.2 530.668 550.79C526.188 554.861 521.705 554.788 515.859 554.688C513 554.305 513 554.305 509.812 552.118C508.043 549.371 507.277 547.537 507 544.305C508.196 544.635 509.393 544.965 510.625 545.305C515.39 546.473 519.148 547.147 523.75 545.055C526.101 543.226 526.794 541.958 528 539.305C527.203 539.352 526.407 539.398 525.586 539.446C516.937 539.74 516.937 539.74 512.5 537.68C507.527 532.956 505.74 529.838 505.5 522.93C505.717 516.137 507.044 511.082 512.062 506.368C516.878 503.727 521.652 503.863 527 504.305C531.095 505.594 532.624 506.838 535.312 510.18C538.66 516.708 538.706 525.301 537 532.305C539.461 532.051 541.917 531.777 544.375 531.493C545.074 531.422 545.772 531.352 546.492 531.28C548.343 531.057 550.175 530.689 552 530.305C554.571 526.449 554.351 523.178 554.414 518.7C554.433 517.861 554.453 517.021 554.473 516.157C554.533 513.477 554.579 510.798 554.625 508.118C554.663 506.301 554.702 504.484 554.742 502.667C554.838 498.213 554.922 493.759 555 489.305C560.75 487.305 560.75 487.305 563 487.305ZM517.188 513.18C514.373 517.2 513.699 520.434 514 525.305C515.269 528.619 516.203 529.84 519.25 531.618C522.562 532.446 525.598 532.349 529 532.305C529.082 530.097 529.139 527.889 529.188 525.68C529.222 524.45 529.257 523.221 529.293 521.954C528.975 517.989 528.13 515.643 526 512.305C522.064 510.679 520.742 510.81 517.188 513.18Z" fill="#545A5B"/>
<path d="M606 597.305C606.087 601.868 606.14 606.43 606.187 610.993C606.212 612.286 606.238 613.58 606.263 614.913C606.273 616.16 606.283 617.407 606.293 618.692C606.308 619.839 606.324 620.986 606.34 622.167C605.865 626.551 604.293 629.174 601 632.055C596.47 633.942 591.865 634.058 587 634.305C586.907 635.605 586.907 635.605 586.812 636.93C585.824 641.036 584.25 643.676 581 646.305C573.548 650.23 565.191 650.41 557.187 648.18C551.912 646.204 549.338 643.086 546.89 638C544.546 630.906 545.205 622.068 547.879 615.122C549.949 611.767 552.368 610.732 556 609.305C556.99 609.635 557.98 609.965 559 610.305C558.711 611.139 558.422 611.973 558.125 612.833C555.474 620.868 553.285 627.589 556.25 635.743C558.156 638.534 558.905 639.149 562 640.305C565.174 640.659 565.174 640.659 568.562 640.618C569.698 640.634 570.834 640.651 572.004 640.668C574.968 640.555 574.968 640.555 576.84 638.973C578.194 637.194 578.194 637.194 579 634.305C578.257 634.223 577.515 634.14 576.75 634.055C573.388 633.138 572.035 632.123 570 629.305C570.171 625.889 571.352 623.271 573 620.305C573.66 620.305 574.32 620.305 575 620.305C575.392 621.11 575.784 621.914 576.187 622.743C577.808 625.606 577.808 625.606 581.125 626.18C588.734 626.692 588.734 626.692 595.594 624.104C597.49 621.678 597.427 620.039 597.512 616.981C597.547 615.953 597.582 614.925 597.619 613.866C597.642 612.794 597.664 611.722 597.687 610.618C597.721 609.534 597.756 608.451 597.791 607.334C597.873 604.658 597.943 601.982 598 599.305C603.75 597.305 603.75 597.305 606 597.305Z" fill="#545A5B"/>
<path d="M520.914 600.313C525.134 603.619 526.429 606.906 527.625 611.93C528.723 621.812 528.771 632.764 524.25 641.805C520.705 645.744 518.309 648.103 512.828 648.583C504.094 648.67 504.094 648.67 500 647.305C498.25 644.43 498.25 644.43 497 641.305C497.33 640.315 497.66 639.325 498 638.305C499.011 638.635 500.021 638.965 501.062 639.305C505.554 640.578 509.801 641.019 514.312 639.555C516.347 638.049 516.945 636.572 518 634.305C517.131 634.363 516.262 634.421 515.367 634.481C504.771 634.896 504.771 634.896 501.375 632.305C497.038 626.827 495.43 621.528 495.719 614.54C496.39 609.21 497.849 604.98 501.937 601.368C507.564 597.579 514.766 597.076 520.914 600.313ZM506.187 607.618C503.472 611.476 503.547 615.775 504 620.305C504.859 623.776 504.859 623.776 507 626.305C510.4 627.636 510.4 627.636 514 627.305C516.946 625.135 517.841 623.784 519 620.305C519.395 615.068 518.775 611.789 516 607.305C512.688 605.649 509.25 605.4 506.187 607.618Z" fill="#545A5B"/>
<path d="M775.84 610.274C777.273 611.218 778.644 612.254 780 613.305C778.35 615.285 776.7 617.265 775 619.305C774.484 618.954 773.969 618.604 773.438 618.242C770.06 616.943 767.495 617.633 764 618.305C763.34 620.945 762.68 623.585 762 626.305C768.27 626.305 774.54 626.305 781 626.305C781 628.945 781 631.585 781 634.305C768.46 634.305 755.92 634.305 743 634.305C746 628.305 746 628.305 748 626.305C751.188 626.055 751.188 626.055 754 626.305C754.026 625.725 754.052 625.145 754.078 624.547C754.472 619.117 755.221 615.482 759 611.305C764.618 607.956 769.973 607.185 775.84 610.274Z" fill="#555A5B"/>
<path d="M224 582.305C224 599.465 224 616.625 224 634.305C221.03 634.305 218.06 634.305 215 634.305C215 617.805 215 601.305 215 584.305C221 582.305 221 582.305 224 582.305Z" fill="#555A5B"/>
<path d="M578 487.305C578 504.465 578 521.625 578 539.305C575.03 539.305 572.06 539.305 569 539.305C569 523.135 569 506.965 569 490.305C577 487.305 577 487.305 578 487.305Z" fill="#555A5B"/>
<path d="M725 582.305C725 599.465 725 616.625 725 634.305C722.36 634.305 719.72 634.305 717 634.305C717 617.805 717 601.305 717 584.305C723 582.305 723 582.305 725 582.305Z" fill="#555B5C"/>
<path d="M946 582.305C946 599.465 946 616.625 946 634.305C943.36 634.305 940.72 634.305 938 634.305C938 617.805 938 601.305 938 584.305C944 582.305 944 582.305 946 582.305Z" fill="#555A5B"/>
<path d="M801 487.305C801 504.465 801 521.625 801 539.305C798.36 539.305 795.72 539.305 793 539.305C793 523.135 793 506.965 793 490.305C800 487.305 800 487.305 801 487.305Z" fill="#545A5C"/>
<path d="M975 582.305C978 581.93 978 581.93 981 582.305C983 585.305 983 585.305 982.625 587.993C982.419 588.756 982.213 589.519 982 590.305C976.25 591.43 976.25 591.43 974 590.305C973.25 587.93 973.25 587.93 973 585.305C973.66 584.315 974.32 583.325 975 582.305Z" fill="#53595A"/>
<path d="M561.562 653.868C562.367 654.012 563.171 654.156 564 654.305C566 657.305 566 657.305 565.688 659.93C565 662.305 565 662.305 564 663.305C562 663.346 560 663.348 558 663.305C556.812 661.055 556.812 661.055 556 658.305C557.408 655.241 558.216 654.439 561.562 653.868Z" fill="#525759"/>
<path d="M646.5 640.055C649 640.305 649 640.305 651 642.305C651.25 644.805 651.25 644.805 651 647.305C649 649.305 649 649.305 646.5 649.555C644 649.305 644 649.305 642 647.305C641.75 644.805 641.75 644.805 642 642.305C644 640.305 644 640.305 646.5 640.055Z" fill="#555B5C"/>
<path d="M1142.5 582.055C1145 582.305 1145 582.305 1147 584.305C1147.25 586.805 1147.25 586.805 1147 589.305C1145 591.305 1145 591.305 1142.5 591.555C1140 591.305 1140 591.305 1138 589.305C1137.75 586.805 1137.75 586.805 1138 584.305C1140 582.305 1140 582.305 1142.5 582.055Z" fill="#565B5C"/>
<path d="M1106.5 582.055C1109 582.305 1109 582.305 1111 584.305C1111.25 586.805 1111.25 586.805 1111 589.305C1109 591.305 1109 591.305 1106.5 591.555C1104 591.305 1104 591.305 1102 589.305C1101.75 586.805 1101.75 586.805 1102 584.305C1104 582.305 1104 582.305 1106.5 582.055Z" fill="#545A5B"/>
<path d="M894.5 582.055C897 582.305 897 582.305 899 584.305C899.25 586.805 899.25 586.805 899 589.305C897 591.305 897 591.305 894.5 591.555C892 591.305 892 591.305 890 589.305C889.75 586.805 889.75 586.805 890 584.305C892 582.305 892 582.305 894.5 582.055Z" fill="#545B5C"/>
<path d="M602.5 582.055C605 582.305 605 582.305 607 584.305C607.25 586.805 607.25 586.805 607 589.305C605 591.305 605 591.305 602.5 591.555C600 591.305 600 591.305 598 589.305C597.75 586.805 597.75 586.805 598 584.305C600 582.305 600 582.305 602.5 582.055Z" fill="#555B5B"/>
<path d="M255.5 582.055C258 582.305 258 582.305 260 584.305C260.25 586.805 260.25 586.805 260 589.305C258 591.305 258 591.305 255.5 591.555C253 591.305 253 591.305 251 589.305C250.75 586.805 250.75 586.805 251 584.305C253 582.305 253 582.305 255.5 582.055Z" fill="#545B5C"/>
<path d="M423 488.305C426 487.993 426 487.993 429 488.305C429.66 488.965 430.32 489.625 431 490.305C430.67 493.602 430.377 494.928 428 497.305C425.5 497.243 425.5 497.243 423 496.305C421.562 493.93 421.562 493.93 421 491.305C421.66 490.315 422.32 489.325 423 488.305Z" fill="#53595A"/>
<path d="M1015 640.305C1017.31 640.305 1019.62 640.305 1022 640.305C1022.33 642.615 1022.66 644.925 1023 647.305C1020 649.305 1020 649.305 1017.31 648.93C1016.55 648.724 1015.79 648.518 1015 648.305C1013.88 642.555 1013.88 642.555 1015 640.305Z" fill="#54595B"/>
<path d="M269 583.305C270.375 585.18 270.375 585.18 271 587.305C270.67 588.295 270.34 589.285 270 590.305C267.69 590.635 265.38 590.965 263 591.305C261 588.305 261 588.305 261.25 585.68C261.497 584.897 261.745 584.113 262 583.305C264.745 581.933 266.12 582.37 269 583.305Z" fill="#515657"/>
<path d="M178 582.305C183.568 582.873 183.568 582.873 185 584.305C185.188 586.743 185.188 586.743 185 589.305C183 591.305 183 591.305 180.5 591.555C178 591.305 178 591.305 176 589.305C175.75 586.805 175.75 586.805 176 584.305C176.66 583.645 177.32 582.985 178 582.305Z" fill="#53595A"/>
<path d="M575 655.305C576 656.305 576 656.305 576.188 658.743C576 661.305 576 661.305 574 663.305C571.5 663.555 571.5 663.555 569 663.305C568.34 662.645 567.68 661.985 567 661.305C567.25 658.243 567.25 658.243 568 655.305C570.684 653.964 572.153 654.575 575 655.305Z" fill="#555B5C"/>
<path d="M1028.94 640.118C1032 640.305 1032 640.305 1034 642.305C1033.67 645.602 1033.38 646.928 1031 649.305C1026.44 648.75 1026.44 648.75 1025 647.305C1024.88 644.305 1024.88 644.305 1025 641.305C1026 640.305 1026 640.305 1028.94 640.118Z" fill="#54595A"/>
<path d="M1131.44 582.118C1134 582.305 1134 582.305 1136 584.305C1136.25 586.805 1136.25 586.805 1136 589.305C1134 591.305 1134 591.305 1131.5 591.618C1130.26 591.463 1130.26 591.463 1129 591.305C1127 588.305 1127 588.305 1127.31 585.68C1128.27 582.361 1128.27 582.361 1131.44 582.118Z" fill="#53595A"/>
<path d="M988.438 582.118C991 582.305 991 582.305 993 584.305C993.25 586.805 993.25 586.805 993 589.305C991 591.305 991 591.305 988.5 591.618C987.263 591.463 987.263 591.463 986 591.305C984 588.305 984 588.305 984.313 585.68C985.273 582.361 985.273 582.361 988.438 582.118Z" fill="#555B5C"/>
<path d="M676.5 582.055C679 582.305 679 582.305 681 584.305C681.312 586.805 681.312 586.805 681 589.305C678 591.305 678 591.305 675.375 590.993C673 590.305 673 590.305 672 589.305C671.812 586.868 671.812 586.868 672 584.305C674 582.305 674 582.305 676.5 582.055Z" fill="#545A5B"/>
<path d="M595 583.305C596 584.305 596 584.305 596.063 587.368C596.042 588.337 596.022 589.307 596 590.305C593.69 590.635 591.38 590.965 589 591.305C587 588.305 587 588.305 587.25 585.68C587.498 584.897 587.745 584.113 588 583.305C590.684 581.964 592.153 582.575 595 583.305Z" fill="#53595A"/>
<path d="M356.5 582.055C359 582.305 359 582.305 361 584.305C361.312 586.805 361.312 586.805 361 589.305C358 591.305 358 591.305 355.375 590.993C353 590.305 353 590.305 352 589.305C351.812 586.868 351.812 586.868 352 584.305C354 582.305 354 582.305 356.5 582.055Z" fill="#555B5C"/>
<path d="M167 582.305C169.312 581.993 169.312 581.993 172 582.305C173.875 584.618 173.875 584.618 175 587.305C174.67 588.295 174.34 589.285 174 590.305C171.188 590.993 171.188 590.993 168 591.305C166.125 589.868 166.125 589.868 165 588.305C165.66 586.325 166.32 584.345 167 582.305Z" fill="#525759"/>
<path d="M395.938 560.118C399 560.305 399 560.305 401 562.305C400.625 565.43 400.625 565.43 400 568.305C397.688 568.93 397.688 568.93 395 569.305C394.01 568.645 393.02 567.985 392 567.305C391.75 564.243 391.75 564.243 392 561.305C393 560.305 393 560.305 395.938 560.118Z" fill="#555B5B"/>
<path d="M617.687 487.618C618.832 487.958 618.832 487.958 620 488.305C621.125 494.055 621.125 494.055 620 496.305C617.69 496.305 615.38 496.305 613 496.305C611.671 490.871 611.671 490.871 613.125 488.368C615 487.305 615 487.305 617.687 487.618Z" fill="#525859"/>
<path d="M386.062 560.243C387.517 560.274 387.517 560.274 389 560.305C390.125 562.055 390.125 562.055 391 564.305C390.125 566.555 390.125 566.555 389 568.305C386.125 568.43 386.125 568.43 383 568.305C382.34 567.645 381.68 566.985 381 566.305C381.729 560.331 381.729 560.331 386.062 560.243Z" fill="#545A5B"/>
</svg>
