<?xml version="1.0" encoding="UTF-8"?>
<!DOCTYPE svg PUBLIC "-//W3C//DTD SVG 1.1//EN" "http://www.w3.org/Graphics/SVG/1.1/DTD/svg11.dtd">
<svg xmlns="http://www.w3.org/2000/svg" version="1.1" width="2560px" height="488px" style="shape-rendering:geometricPrecision; text-rendering:geometricPrecision; image-rendering:optimizeQuality; fill-rule:evenodd; clip-rule:evenodd" xmlns:xlink="http://www.w3.org/1999/xlink">
<g><path style="opacity:0.983" fill="#63bd69" d="M 2293.5,-0.5 C 2308.5,-0.5 2323.5,-0.5 2338.5,-0.5C 2431.19,11.7187 2498.03,59.7187 2539,143.5C 2549.77,168.25 2556.6,193.917 2559.5,220.5C 2559.5,235.5 2559.5,250.5 2559.5,265.5C 2547.55,358.922 2499.22,426.088 2414.5,467C 2387.83,478.417 2360.17,485.25 2331.5,487.5C 2320.83,487.5 2310.17,487.5 2299.5,487.5C 2205.26,477.722 2136.76,430.722 2094,346.5C 2061.39,270.394 2064.39,195.727 2103,122.5C 2146.59,50.9391 2210.09,9.93907 2293.5,-0.5 Z M 2300.5,24.5 C 2391.23,22.2698 2460.06,59.6031 2507,136.5C 2540.68,201.242 2543.35,267.242 2515,334.5C 2478.55,407.576 2419.72,449.743 2338.5,461C 2261.39,466.679 2197.55,440.512 2147,382.5C 2099.19,321.101 2085.85,252.768 2107,177.5C 2131.57,105.933 2179.73,58.0994 2251.5,34C 2267.69,29.3284 2284.02,26.1617 2300.5,24.5 Z M 2302.5,189.5 C 2303.64,193.716 2305.47,197.716 2308,201.5C 2311.48,204.155 2315.31,206.155 2319.5,207.5C 2311.36,209.562 2305.86,206.562 2303,198.5C 2302.5,195.518 2302.34,192.518 2302.5,189.5 Z"/></g>
<g><path style="opacity:0.98" fill="#63bd69" d="M 2367.5,122.5 C 2389.81,139.027 2402.81,161.193 2406.5,189C 2406.12,192.682 2405.29,196.182 2404,199.5C 2394.2,180.693 2381.7,163.86 2366.5,149C 2361.54,144.858 2356.2,141.358 2350.5,138.5C 2359.18,156.647 2358.34,174.313 2348,191.5C 2342.72,168.275 2331.72,148.275 2315,131.5C 2304.37,143.14 2295.71,156.14 2289,170.5C 2286.39,177.329 2284.39,184.329 2283,191.5C 2274.98,180.056 2272.31,167.389 2275,153.5C 2276.78,147.731 2278.61,142.398 2280.5,137.5C 2262.81,149.023 2248.31,163.689 2237,181.5C 2233.7,187.63 2230.2,193.63 2226.5,199.5C 2223.71,187.519 2224.88,175.852 2230,164.5C 2237.7,147.643 2248.87,133.643 2263.5,122.5C 2242.7,125.236 2224.37,133.403 2208.5,147C 2203.43,151.949 2198.26,156.783 2193,161.5C 2198.67,135.812 2213.84,117.979 2238.5,108C 2245.93,104.893 2253.6,102.559 2261.5,101C 2253.17,100.333 2244.83,100.333 2236.5,101C 2224.6,104.304 2212.93,107.97 2201.5,112C 2211.76,101.406 2223.42,92.7397 2236.5,86C 2250.3,80.5338 2264.63,78.2005 2279.5,79C 2275.07,75.5194 2270.07,73.186 2264.5,72C 2277.79,66.9114 2290.79,67.7447 2303.5,74.5C 2305.75,67.6864 2309.75,62.0197 2315.5,57.5C 2317.87,59.2145 2320.04,61.2145 2322,63.5C 2323.89,67.2734 2325.72,70.9401 2327.5,74.5C 2340.21,67.7447 2353.21,66.9114 2366.5,72C 2360.92,73.1885 2355.92,75.5219 2351.5,79C 2372.27,77.6078 2391.27,82.6078 2408.5,94C 2415.79,99.6256 2422.79,105.626 2429.5,112C 2418.08,107.972 2406.41,104.305 2394.5,101C 2386.17,100.333 2377.83,100.333 2369.5,101C 2395.06,105.679 2415.23,118.512 2430,139.5C 2434.1,146.634 2436.6,153.968 2437.5,161.5C 2422.12,144.292 2403.46,132.125 2381.5,125C 2376.9,123.714 2372.24,122.881 2367.5,122.5 Z"/></g>
<g><path style="opacity:0.971" fill="#103456" d="M 1333.5,80.5 C 1336.5,80.5 1339.5,80.5 1342.5,80.5C 1342.5,85.5 1342.5,90.5 1342.5,95.5C 1333.28,95.7207 1328.94,100.387 1329.5,109.5C 1334.83,109.5 1340.17,109.5 1345.5,109.5C 1345.5,114.5 1345.5,119.5 1345.5,124.5C 1334.83,124.5 1324.17,124.5 1313.5,124.5C 1313.08,114.42 1313.58,104.42 1315,94.5C 1319.34,87.3101 1325.51,82.6434 1333.5,80.5 Z"/></g>
<g><path style="opacity:0.958" fill="#103456" d="M 1850.5,97.5 C 1866.01,96.5102 1871.85,103.51 1868,118.5C 1860.89,126.704 1853.23,127.371 1845,120.5C 1839.77,111.077 1841.61,103.41 1850.5,97.5 Z"/></g>
<g><path style="opacity:0.961" fill="#103456" d="M 31.5,98.5 C 42.1537,96.994 48.487,101.494 50.5,112C 47.7173,125.225 40.0506,129.225 27.5,124C 22.3188,119.088 20.8188,113.255 23,106.5C 25.0982,102.897 27.9315,100.23 31.5,98.5 Z"/></g>
<g><path style="opacity:0.953" fill="#0f3456" d="M 66.5,98.5 C 81.5319,98.0305 87.0319,105.031 83,119.5C 77.532,126.794 70.6986,128.294 62.5,124C 53.5508,113.806 54.8841,105.306 66.5,98.5 Z"/></g>
<g><path style="opacity:0.968" fill="#103456" d="M 1224.5,98.5 C 1237.76,99.6906 1242.59,106.691 1239,119.5C 1234.87,125.97 1229.04,128.137 1221.5,126C 1212.57,120.951 1210.4,113.784 1215,104.5C 1217.55,101.319 1220.72,99.3191 1224.5,98.5 Z"/></g>
<g><path style="opacity:0.968" fill="#103456" d="M 1695.5,98.5 C 1710.47,100.775 1714.64,108.775 1708,122.5C 1703.14,126.284 1697.64,127.451 1691.5,126C 1683.61,121.042 1681.45,114.209 1685,105.5C 1687.7,101.748 1691.2,99.415 1695.5,98.5 Z"/></g>
<g><path style="opacity:0.971" fill="#103456" d="M 320.5,99.5 C 335.163,97.9914 341.329,104.325 339,118.5C 334.968,126.037 328.802,128.537 320.5,126C 313.33,121.841 310.83,115.674 313,107.5C 315.028,104.308 317.528,101.641 320.5,99.5 Z"/></g>
<g><path style="opacity:0.98" fill="#0f3456" d="M 370.5,99.5 C 378.167,99.5 385.833,99.5 393.5,99.5C 393.5,140.5 393.5,181.5 393.5,222.5C 375.167,222.5 356.833,222.5 338.5,222.5C 334.097,245.563 320.097,257.563 296.5,258.5C 296.5,250.5 296.5,242.5 296.5,234.5C 304.689,234.493 310.522,230.827 314,223.5C 315.457,195.876 315.957,168.209 315.5,140.5C 323.167,140.5 330.833,140.5 338.5,140.5C 338.5,159.833 338.5,179.167 338.5,198.5C 349.167,198.5 359.833,198.5 370.5,198.5C 370.5,165.5 370.5,132.5 370.5,99.5 Z"/></g>
<g><path style="opacity:0.971" fill="#103456" d="M 711.5,99.5 C 719.5,99.5 727.5,99.5 735.5,99.5C 735.5,132.833 735.5,166.167 735.5,199.5C 746.2,199.695 756.867,199.195 767.5,198C 772.568,196.372 775.068,192.872 775,187.5C 775.5,171.503 775.667,155.503 775.5,139.5C 783.5,139.5 791.5,139.5 799.5,139.5C 799.824,154.412 799.491,169.245 798.5,184C 798.68,191.06 802.014,195.727 808.5,198C 818.494,198.5 828.494,198.666 838.5,198.5C 838.334,190.493 838.5,182.493 839,174.5C 843.848,151.485 858.014,139.485 881.5,138.5C 902.697,139.012 916.53,149.345 923,169.5C 923.869,175.535 924.869,181.535 926,187.5C 927.526,193.026 931.026,196.526 936.5,198C 944.827,198.5 953.16,198.666 961.5,198.5C 961.5,165.5 961.5,132.5 961.5,99.5C 969.5,99.5 977.5,99.5 985.5,99.5C 985.5,140.5 985.5,181.5 985.5,222.5C 968.497,222.667 951.497,222.5 934.5,222C 926.248,220.374 918.915,216.874 912.5,211.5C 906.085,216.874 898.752,220.374 890.5,222C 861.5,222.667 832.5,222.667 803.5,222C 797.174,221.253 791.674,218.753 787,214.5C 782.326,218.753 776.826,221.253 770.5,222C 750.836,222.5 731.169,222.667 711.5,222.5C 711.5,181.5 711.5,140.5 711.5,99.5 Z M 877.5,161.5 C 897.258,162.748 904.091,172.748 898,191.5C 895.736,194.433 892.902,196.6 889.5,198C 880.559,199.346 871.559,199.846 862.5,199.5C 862.09,190.75 862.59,182.084 864,173.5C 866.833,167.493 871.333,163.493 877.5,161.5 Z"/></g>
<g><path style="opacity:0.959" fill="#103456" d="M 1259.5,98.5 C 1272.76,99.6906 1277.59,106.691 1274,119.5C 1269.87,125.97 1264.04,128.137 1256.5,126C 1247.24,121.078 1245.07,113.911 1250,104.5C 1252.55,101.319 1255.72,99.3191 1259.5,98.5 Z"/></g>
<g><path style="opacity:0.963" fill="#103456" d="M 1661.5,98.5 C 1674.05,100.26 1678.55,107.26 1675,119.5C 1669.23,126.972 1662.06,128.472 1653.5,124C 1646.54,116.013 1646.87,108.346 1654.5,101C 1656.93,100.098 1659.26,99.2644 1661.5,98.5 Z"/></g>
<g><path style="opacity:0.968" fill="#0f3457" d="M 203.5,100.5 C 211.5,100.5 219.5,100.5 227.5,100.5C 227.5,141.167 227.5,181.833 227.5,222.5C 219.5,222.5 211.5,222.5 203.5,222.5C 203.5,181.833 203.5,141.167 203.5,100.5 Z"/></g>
<g><path style="opacity:0.953" fill="#103456" d="M 421.5,100.5 C 429.5,100.5 437.5,100.5 445.5,100.5C 445.5,141.167 445.5,181.833 445.5,222.5C 437.5,222.5 429.5,222.5 421.5,222.5C 421.5,181.833 421.5,141.167 421.5,100.5 Z"/></g>
<g><path style="opacity:0.982" fill="#0f3557" d="M 1013.5,100.5 C 1021.17,100.5 1028.83,100.5 1036.5,100.5C 1036.5,141.5 1036.5,182.5 1036.5,223.5C 1028.83,223.5 1021.17,223.5 1013.5,223.5C 1013.5,182.5 1013.5,141.5 1013.5,100.5 Z"/></g>
<g><path style="opacity:0.979" fill="#103456" d="M 1504.5,100.5 C 1512.17,100.5 1519.83,100.5 1527.5,100.5C 1527.5,141.167 1527.5,181.833 1527.5,222.5C 1510.83,222.667 1494.16,222.5 1477.5,222C 1472.08,221.04 1467.25,218.873 1463,215.5C 1458.48,218.341 1453.65,220.508 1448.5,222C 1436.17,222.667 1423.83,222.667 1411.5,222C 1406.18,221.173 1401.51,219.006 1397.5,215.5C 1392.99,218.756 1387.99,220.922 1382.5,222C 1369.83,222.667 1357.17,222.667 1344.5,222C 1339.45,220.643 1334.79,218.476 1330.5,215.5C 1326.21,218.476 1321.55,220.643 1316.5,222C 1304.17,222.667 1291.83,222.667 1279.5,222C 1272.41,221.703 1266.57,218.869 1262,213.5C 1242.63,227.971 1223.13,228.137 1203.5,214C 1187.55,196.445 1185.38,177.278 1197,156.5C 1207.74,143.553 1221.58,137.886 1238.5,139.5C 1250.49,140.206 1262.49,140.54 1274.5,140.5C 1274.94,158.207 1275.77,175.874 1277,193.5C 1277.83,195.667 1279.33,197.167 1281.5,198C 1284.15,198.564 1286.82,199.064 1289.5,199.5C 1296.81,198.773 1304.15,198.273 1311.5,198C 1315,197.167 1317.17,195 1318,191.5C 1318.33,174.833 1318.67,158.167 1319,141.5C 1326.56,139.553 1334.39,138.886 1342.5,139.5C 1342.33,155.503 1342.5,171.503 1343,187.5C 1343.63,192.791 1346.46,196.291 1351.5,198C 1361.24,199.939 1370.9,199.606 1380.5,197C 1382.05,195.786 1383.22,194.286 1384,192.5C 1385.44,174.889 1385.94,157.223 1385.5,139.5C 1393.5,139.5 1401.5,139.5 1409.5,139.5C 1409.33,156.17 1409.5,172.837 1410,189.5C 1410.73,193.896 1413.23,196.73 1417.5,198C 1426.15,199.848 1434.82,199.848 1443.5,198C 1448.72,196.093 1451.22,192.26 1451,186.5C 1451.5,170.837 1451.67,155.17 1451.5,139.5C 1459.5,139.5 1467.5,139.5 1475.5,139.5C 1475.15,149.83 1474.81,160.163 1474.5,170.5C 1474.42,177.229 1474.92,183.896 1476,190.5C 1477.82,195.336 1481.32,198.169 1486.5,199C 1492.16,199.499 1497.82,199.666 1503.5,199.5C 1503.44,166.495 1503.78,133.495 1504.5,100.5 Z M 1225.5,163.5 C 1234.17,163.5 1242.83,163.5 1251.5,163.5C 1251.67,171.507 1251.5,179.507 1251,187.5C 1244.15,201.42 1233.98,204.587 1220.5,197C 1212.02,187.874 1211.35,178.208 1218.5,168C 1220.9,166.476 1223.23,164.976 1225.5,163.5 Z"/></g>
<g><path style="opacity:0.961" fill="#0f3556" d="M 1556.5,100.5 C 1564.5,100.5 1572.5,100.5 1580.5,100.5C 1580.5,141.5 1580.5,182.5 1580.5,223.5C 1572.5,223.5 1564.5,223.5 1556.5,223.5C 1556.5,182.5 1556.5,141.5 1556.5,100.5 Z"/></g>
<g><path style="opacity:0.976" fill="#103557" d="M 1789.5,100.5 C 1797.5,100.5 1805.5,100.5 1813.5,100.5C 1813.5,141.5 1813.5,182.5 1813.5,223.5C 1805.5,223.5 1797.5,223.5 1789.5,223.5C 1789.5,182.5 1789.5,141.5 1789.5,100.5 Z"/></g>
<g><path style="opacity:0.978" fill="#103456" d="M -0.5,190.5 C -0.5,184.167 -0.5,177.833 -0.5,171.5C 3.75877,154.077 14.7588,143.577 32.5,140C 49.8301,139.5 67.1635,139.333 84.5,139.5C 84.3334,155.17 84.5001,170.837 85,186.5C 84.9453,191.737 87.1119,195.57 91.5,198C 99.1667,198.667 106.833,198.667 114.5,198C 105.587,171.165 113.92,151.832 139.5,140C 152.851,135.948 165.517,137.448 177.5,144.5C 172.833,150.833 168.167,157.167 163.5,163.5C 150.103,158.461 140.603,162.461 135,175.5C 132.927,186.19 136.76,193.69 146.5,198C 159.162,198.5 171.829,198.667 184.5,198.5C 184.5,206.5 184.5,214.5 184.5,222.5C 154.165,222.667 123.832,222.5 93.5,222C 84.7887,222.1 77.2887,219.267 71,213.5C 51.9236,227.893 32.7569,228.06 13.5,214C 6.62202,207.399 1.95535,199.566 -0.5,190.5 Z M 38.5,162.5 C 46.154,163.07 53.8207,163.404 61.5,163.5C 61.6663,170.175 61.4996,176.842 61,183.5C 59.0376,194.132 52.7043,199.799 42,200.5C 26.2882,198.094 20.2882,189.094 24,173.5C 27.1786,167.51 32.0119,163.843 38.5,162.5 Z"/></g>
<g><path style="opacity:0.975" fill="#103456" d="M 502.5,138.5 C 536.164,136.832 553.498,152.832 554.5,186.5C 554.212,225.273 535.545,250.106 498.5,261C 493.552,262.05 488.552,262.55 483.5,262.5C 483.5,254.5 483.5,246.5 483.5,238.5C 497.364,238.234 509.03,233.067 518.5,223C 484.02,224.52 467.52,208.02 469,173.5C 473.234,155.101 484.401,143.434 502.5,138.5 Z M 508.5,161.5 C 519.799,161.39 526.966,166.723 530,177.5C 530.5,184.826 530.666,192.159 530.5,199.5C 522.16,199.666 513.827,199.5 505.5,199C 494.327,194.489 490.161,186.323 493,174.5C 496.266,167.721 501.433,163.388 508.5,161.5 Z"/></g>
<g><path style="opacity:0.979" fill="#103456" d="M 1093.5,138.5 C 1119.7,136.231 1136.53,147.565 1144,172.5C 1148.76,200.662 1141.26,224.829 1121.5,245C 1107.69,256.66 1091.69,262.493 1073.5,262.5C 1073.5,254.5 1073.5,246.5 1073.5,238.5C 1087.48,238.455 1099.15,233.288 1108.5,223C 1083.63,225.662 1067.47,215.162 1060,191.5C 1056.36,164.331 1067.53,146.664 1093.5,138.5 Z M 1098.5,161.5 C 1110.7,161.009 1118.2,166.676 1121,178.5C 1121.5,185.492 1121.67,192.492 1121.5,199.5C 1113.16,199.666 1104.83,199.5 1096.5,199C 1084.48,194.469 1080.32,185.969 1084,173.5C 1087.08,167.231 1091.91,163.231 1098.5,161.5 Z"/></g>
<g><path style="opacity:0.977" fill="#103456" d="M 1923.5,138.5 C 1949.22,136.1 1966.06,147.1 1974,171.5C 1980.15,206.1 1968.98,233.267 1940.5,253C 1929.01,259.457 1916.67,262.623 1903.5,262.5C 1903.5,254.5 1903.5,246.5 1903.5,238.5C 1917.62,238.774 1929.28,233.607 1938.5,223C 1903.51,223.673 1887.34,206.507 1890,171.5C 1895.09,154.246 1906.25,143.246 1923.5,138.5 Z M 1928.5,161.5 C 1939.64,161.145 1947.14,166.145 1951,176.5C 1951.5,184.159 1951.67,191.826 1951.5,199.5C 1943.49,199.666 1935.49,199.5 1927.5,199C 1915.06,195.3 1910.56,187.134 1914,174.5C 1916.91,167.971 1921.74,163.638 1928.5,161.5 Z"/></g>
<g><path style="opacity:0.973" fill="#103456" d="M 636.5,139.5 C 653.167,139.5 669.833,139.5 686.5,139.5C 686.667,156.17 686.5,172.837 686,189.5C 682.131,206.407 671.964,217.574 655.5,223C 623.018,227.517 604.685,213.517 600.5,181C 602.465,158.216 614.465,144.383 636.5,139.5 Z M 636.5,163.5 C 645.5,163.5 654.5,163.5 663.5,163.5C 664.093,172.663 663.26,181.663 661,190.5C 653.459,201.157 643.959,203.324 632.5,197C 620.874,184.223 622.207,173.056 636.5,163.5 Z"/></g>
<g><path style="opacity:0.976" fill="#103456" d="M 1662.5,139.5 C 1678.49,140.063 1694.49,140.396 1710.5,140.5C 1711.48,155.822 1711.65,171.155 1711,186.5C 1707.48,206.352 1695.98,218.852 1676.5,224C 1645.44,226.273 1628.44,211.94 1625.5,181C 1626.83,157.175 1639.17,143.342 1662.5,139.5 Z M 1661.5,163.5 C 1670.17,163.5 1678.83,163.5 1687.5,163.5C 1687.91,172.25 1687.41,180.916 1686,189.5C 1679.13,201.013 1669.63,203.846 1657.5,198C 1648.68,189.697 1647.18,180.197 1653,169.5C 1655.64,167.109 1658.47,165.109 1661.5,163.5 Z"/></g>
<g><path style="opacity:0.972" fill="#103456" d="M 260.5,140.5 C 268.5,140.5 276.5,140.5 284.5,140.5C 283.843,169.161 283.343,197.828 283,226.5C 277.125,247.367 263.291,258.033 241.5,258.5C 241.5,250.5 241.5,242.5 241.5,234.5C 251.259,234.541 257.426,229.874 260,220.5C 260.5,193.835 260.667,167.169 260.5,140.5 Z"/></g>
<g><path style="opacity:0.974" fill="#103456" d="M 1738.5,140.5 C 1746.5,140.5 1754.5,140.5 1762.5,140.5C 1762.67,168.169 1762.5,195.835 1762,223.5C 1757.11,245.558 1743.27,257.224 1720.5,258.5C 1720.5,250.5 1720.5,242.5 1720.5,234.5C 1728.93,234.226 1734.77,230.226 1738,222.5C 1738.5,195.169 1738.67,167.835 1738.5,140.5 Z"/></g>
<g><path style="opacity:0.976" fill="#103456" d="M 1845.5,140.5 C 1853.17,140.5 1860.83,140.5 1868.5,140.5C 1868.67,168.169 1868.5,195.835 1868,223.5C 1863.11,245.558 1849.27,257.224 1826.5,258.5C 1826.5,250.5 1826.5,242.5 1826.5,234.5C 1834.96,234.194 1840.79,230.194 1844,222.5C 1844.59,195.167 1845.09,167.834 1845.5,140.5 Z"/></g>
<g><path style="opacity:0.969" fill="#62be69" d="M 2314.5,147.5 C 2316.07,147.937 2317.24,148.937 2318,150.5C 2324.67,161.832 2329.67,173.832 2333,186.5C 2336.11,204.703 2328.61,213.536 2310.5,213C 2299.05,207.358 2294.88,198.191 2298,185.5C 2301.67,171.968 2307.17,159.301 2314.5,147.5 Z M 2302.5,189.5 C 2302.34,192.518 2302.5,195.518 2303,198.5C 2305.86,206.562 2311.36,209.562 2319.5,207.5C 2315.31,206.155 2311.48,204.155 2308,201.5C 2305.47,197.716 2303.64,193.716 2302.5,189.5 Z"/></g>
<g><path style="opacity:0.971" fill="#63bd69" d="M 2278.5,208.5 C 2294.76,211.029 2306.26,219.696 2313,234.5C 2314.22,240.101 2314.72,245.768 2314.5,251.5C 2302.38,249.358 2292.22,243.691 2284,234.5C 2279.03,226.569 2277.2,217.902 2278.5,208.5 Z"/></g>
<g><path style="opacity:0.969" fill="#62be69" d="M 2348.5,208.5 C 2349.83,208.5 2351.17,208.5 2352.5,208.5C 2354.78,223.85 2349.45,235.683 2336.5,244C 2330.4,247.382 2324.07,250.216 2317.5,252.5C 2314.67,239.154 2318.34,227.987 2328.5,219C 2334.82,214.676 2341.48,211.176 2348.5,208.5 Z"/></g>
<g><path style="opacity:0.953" fill="#103456" d="M 761.5,241.5 C 774.652,240.485 780.486,246.485 779,259.5C 774.33,269.254 767.164,271.754 757.5,267C 750.324,260.258 749.657,252.925 755.5,245C 757.432,243.541 759.432,242.375 761.5,241.5 Z"/></g>
<g><path style="opacity:0.957" fill="#103557" d="M 796.5,241.5 C 808.778,240.612 814.611,246.279 814,258.5C 809.861,268.986 802.695,271.819 792.5,267C 786.031,261.135 784.864,254.302 789,246.5C 791.17,244.177 793.67,242.51 796.5,241.5 Z"/></g>
<g><path style="opacity:0.961" fill="#103456" d="M 1372.5,241.5 C 1386.31,242.138 1391.47,249.138 1388,262.5C 1383.07,269.491 1376.57,271.325 1368.5,268C 1361.19,262.56 1359.69,255.726 1364,247.5C 1366.32,244.605 1369.16,242.605 1372.5,241.5 Z"/></g>
<g><path style="opacity:0.957" fill="#103456" d="M 1407.5,241.5 C 1421.33,242.156 1426.49,249.156 1423,262.5C 1417.23,269.972 1410.06,271.472 1401.5,267C 1393.35,256.002 1395.35,247.502 1407.5,241.5 Z"/></g>
<g><path style="opacity:0.955" fill="#103457" d="M 1460.5,241.5 C 1474.33,242.156 1479.49,249.156 1476,262.5C 1471.07,269.491 1464.57,271.325 1456.5,268C 1449.21,262.532 1447.71,255.699 1452,247.5C 1454.32,244.605 1457.16,242.605 1460.5,241.5 Z"/></g>
<g><path style="opacity:0.981" fill="#63bd6a" d="M 2266.5,242.5 C 2280.73,245.53 2293.23,251.864 2304,261.5C 2312.3,271.678 2315.46,283.345 2313.5,296.5C 2297.38,293.36 2283.88,285.693 2273,273.5C 2267.2,264.005 2265.03,253.672 2266.5,242.5 Z"/></g>
<g><path style="opacity:0.974" fill="#62be69" d="M 2362.5,242.5 C 2366.79,258.137 2362.46,271.304 2349.5,282C 2339.95,289.241 2329.28,294.074 2317.5,296.5C 2314.87,277.604 2321.53,263.104 2337.5,253C 2345.5,248.399 2353.83,244.899 2362.5,242.5 Z"/></g>
<g><path style="opacity:0.962" fill="#63be69" d="M 2248.5,286.5 C 2251.19,288.514 2254.19,290.014 2257.5,291C 2302.13,289.44 2323.13,310.94 2320.5,355.5C 2316.79,358.11 2313.29,357.777 2310,354.5C 2311.14,338.843 2307.47,324.51 2299,311.5C 2291.48,303.661 2282.32,300.161 2271.5,301C 2291.87,305.222 2302.87,317.722 2304.5,338.5C 2296.05,335.386 2287.38,332.886 2278.5,331C 2259.69,322.245 2249.69,307.412 2248.5,286.5 Z"/></g>
<g><path style="opacity:0.965" fill="#63bd69" d="M 2380.5,286.5 C 2381.16,308.461 2370.83,323.627 2349.5,332C 2340.7,333.492 2332.2,335.992 2324,339.5C 2326.75,319.055 2338.58,306.222 2359.5,301C 2341.76,301.452 2328.93,309.619 2321,325.5C 2319.39,321.762 2317.89,317.929 2316.5,314C 2321.4,303.867 2329.4,297.534 2340.5,295C 2351.51,293.726 2362.51,292.393 2373.5,291C 2376.61,290.459 2378.95,288.959 2380.5,286.5 Z"/></g>
<g><path style="opacity:0.929" fill="#0f3556" d="M 457.5,313.5 C 467.544,310.749 470.711,314.082 467,323.5C 459.506,320.914 455.506,323.581 455,331.5C 454.501,335.152 454.335,338.818 454.5,342.5C 458.167,342.5 461.833,342.5 465.5,342.5C 465.5,345.167 465.5,347.833 465.5,350.5C 461.833,350.5 458.167,350.5 454.5,350.5C 454.5,363.5 454.5,376.5 454.5,389.5C 451.167,389.5 447.833,389.5 444.5,389.5C 444.5,376.5 444.5,363.5 444.5,350.5C 441.5,350.5 438.5,350.5 435.5,350.5C 435.5,347.833 435.5,345.167 435.5,342.5C 438.5,342.5 441.5,342.5 444.5,342.5C 444.012,335.326 444.845,328.326 447,321.5C 449.539,317.49 453.039,314.824 457.5,313.5 Z"/></g>
<g><path style="opacity:0.912" fill="#103456" d="M 1782.5,314.5 C 1785.83,314.5 1789.17,314.5 1792.5,314.5C 1792.5,339.5 1792.5,364.5 1792.5,389.5C 1789.17,389.5 1785.83,389.5 1782.5,389.5C 1782.5,364.5 1782.5,339.5 1782.5,314.5 Z"/></g>
<g><path style="opacity:0.944" fill="#103456" d="M 1409.5,317.5 C 1430.37,317.33 1436.7,326.664 1428.5,345.5C 1425.59,348.577 1422.26,351.077 1418.5,353C 1422.67,357.167 1426.83,361.333 1431,365.5C 1433.46,360.747 1436.29,356.247 1439.5,352C 1443.15,351.501 1446.82,351.335 1450.5,351.5C 1450.65,352.552 1450.48,353.552 1450,354.5C 1445.78,360.431 1441.95,366.598 1438.5,373C 1443.12,378.623 1448.12,383.956 1453.5,389C 1448.5,389.667 1443.5,389.667 1438.5,389C 1436.69,386.022 1434.36,383.522 1431.5,381.5C 1420.94,392.309 1408.94,394.142 1395.5,387C 1386.72,379.084 1385.22,369.918 1391,359.5C 1394.25,355.578 1398.08,352.412 1402.5,350C 1395.96,344.245 1393.8,337.078 1396,328.5C 1398.62,322.372 1403.12,318.706 1409.5,317.5 Z M 1411.5,326.5 C 1420.56,326.642 1423.73,330.975 1421,339.5C 1413.09,349.369 1407.92,347.869 1405.5,335C 1406.17,331.17 1408.17,328.336 1411.5,326.5 Z M 1407.5,357.5 C 1413.22,362.721 1418.89,368.221 1424.5,374C 1419.15,381.897 1412.15,383.897 1403.5,380C 1398.92,376.562 1397.42,372.062 1399,366.5C 1401.09,362.724 1403.93,359.724 1407.5,357.5 Z"/></g>
<g><path style="opacity:0.949" fill="#103456" d="M 2.5,319.5 C 8.09345,319.193 13.5934,319.527 19,320.5C 25.4707,337.579 32.1373,354.579 39,371.5C 45.5,354.5 52,337.5 58.5,320.5C 63.7921,319.505 69.1254,319.172 74.5,319.5C 74.5,342.833 74.5,366.167 74.5,389.5C 71.1667,389.5 67.8333,389.5 64.5,389.5C 64.6666,371.164 64.4999,352.83 64,334.5C 57,352.167 50,369.833 43,387.5C 41.8197,388.684 40.3197,389.351 38.5,389.5C 36.6803,389.351 35.1803,388.684 34,387.5C 27,369.833 20,352.167 13,334.5C 12.5001,352.83 12.3334,371.164 12.5,389.5C 9.16667,389.5 5.83333,389.5 2.5,389.5C 2.5,366.167 2.5,342.833 2.5,319.5 Z"/></g>
<g><path style="opacity:0.906" fill="#0f3457" d="M 92.5,319.5 C 97.7936,318.624 101.127,320.791 102.5,326C 99.8439,332.871 95.6772,334.038 90,329.5C 88.4152,325.722 89.2485,322.389 92.5,319.5 Z"/></g>
<g><path style="opacity:0.91" fill="#0f3455" d="M 175.5,319.5 C 184.307,319.465 186.64,323.298 182.5,331C 174.317,333.99 170.817,331.156 172,322.5C 173.145,321.364 174.312,320.364 175.5,319.5 Z"/></g>
<g><path style="opacity:0.942" fill="#0f3456" d="M 500.5,319.5 C 515.833,319.5 531.167,319.5 546.5,319.5C 546.5,322.5 546.5,325.5 546.5,328.5C 534.833,328.5 523.167,328.5 511.5,328.5C 511.5,335.167 511.5,341.833 511.5,348.5C 522.5,348.5 533.5,348.5 544.5,348.5C 544.5,351.5 544.5,354.5 544.5,357.5C 533.5,357.5 522.5,357.5 511.5,357.5C 511.5,365.167 511.5,372.833 511.5,380.5C 523.5,380.5 535.5,380.5 547.5,380.5C 547.5,383.5 547.5,386.5 547.5,389.5C 531.833,389.5 516.167,389.5 500.5,389.5C 500.5,366.167 500.5,342.833 500.5,319.5 Z"/></g>
<g><path style="opacity:0.903" fill="#103455" d="M 667.5,319.5 C 674.799,318.371 677.965,321.371 677,328.5C 673.385,333.423 669.385,333.756 665,329.5C 663.861,325.579 664.695,322.246 667.5,319.5 Z"/></g>
<g><path style="opacity:0.942" fill="#103456" d="M 1090.5,319.5 C 1094.23,319.177 1097.89,319.511 1101.5,320.5C 1106.35,337.567 1111.35,354.567 1116.5,371.5C 1121.97,354.601 1127.13,337.601 1132,320.5C 1136.07,319.536 1140.23,319.203 1144.5,319.5C 1148.9,337.424 1154.06,355.091 1160,372.5C 1164.51,355.456 1169.18,338.456 1174,321.5C 1177.49,319.623 1181.33,318.956 1185.5,319.5C 1179.32,342.231 1172.82,364.898 1166,387.5C 1164.3,388.733 1162.3,389.4 1160,389.5C 1157.91,389.464 1155.91,389.131 1154,388.5C 1148.82,370.787 1143.49,353.121 1138,335.5C 1132.6,353.203 1127.1,370.869 1121.5,388.5C 1117.62,389.795 1113.79,389.795 1110,388.5C 1103.03,365.608 1096.53,342.608 1090.5,319.5 Z"/></g>
<g><path style="opacity:0.949" fill="#103456" d="M 1506.5,319.5 C 1510.11,319.211 1513.61,319.544 1517,320.5C 1526.74,343.208 1536.57,365.875 1546.5,388.5C 1542.54,389.66 1538.54,389.827 1534.5,389C 1531.97,383.749 1529.64,378.416 1527.5,373C 1516.83,372.333 1506.17,372.333 1495.5,373C 1493.36,378.416 1491.03,383.749 1488.5,389C 1484.5,389.667 1480.5,389.667 1476.5,389C 1486.79,365.95 1496.79,342.783 1506.5,319.5 Z M 1510.5,334.5 C 1511.75,334.577 1512.58,335.244 1513,336.5C 1516.22,345.28 1519.72,353.946 1523.5,362.5C 1515.5,363.833 1507.5,363.833 1499.5,362.5C 1503.57,353.301 1507.23,343.968 1510.5,334.5 Z"/></g>
<g><path style="opacity:0.887" fill="#0f3556" d="M 1653.5,319.5 C 1658.79,318.624 1662.13,320.791 1663.5,326C 1660.84,332.871 1656.68,334.038 1651,329.5C 1649.42,325.722 1650.25,322.389 1653.5,319.5 Z"/></g>
<g><path style="opacity:0.927" fill="#103556" d="M 1243.5,328.5 C 1246.83,328.5 1250.17,328.5 1253.5,328.5C 1253.5,333.167 1253.5,337.833 1253.5,342.5C 1257.83,342.5 1262.17,342.5 1266.5,342.5C 1266.5,345.167 1266.5,347.833 1266.5,350.5C 1262.17,350.5 1257.83,350.5 1253.5,350.5C 1253.08,360.247 1253.58,369.914 1255,379.5C 1258.1,381.72 1261.43,382.053 1265,380.5C 1265.27,383.224 1265.77,385.891 1266.5,388.5C 1260.43,391.267 1254.43,391.101 1248.5,388C 1246.95,386.786 1245.78,385.286 1245,383.5C 1243.59,372.564 1243.09,361.564 1243.5,350.5C 1240.5,350.5 1237.5,350.5 1234.5,350.5C 1234.5,347.833 1234.5,345.167 1234.5,342.5C 1237.5,342.5 1240.5,342.5 1243.5,342.5C 1243.5,337.833 1243.5,333.167 1243.5,328.5 Z"/></g>
<g><path style="opacity:0.927" fill="#0f3556" d="M 242.5,328.5 C 246.167,328.5 249.833,328.5 253.5,328.5C 253.5,333.167 253.5,337.833 253.5,342.5C 257.5,342.5 261.5,342.5 265.5,342.5C 265.5,345.167 265.5,347.833 265.5,350.5C 261.5,350.5 257.5,350.5 253.5,350.5C 253.334,359.839 253.5,369.173 254,378.5C 254.374,379.416 254.874,380.25 255.5,381C 258.429,381.777 261.263,381.61 264,380.5C 265.392,383.278 265.892,386.278 265.5,389.5C 261.204,390.463 256.871,390.629 252.5,390C 246.643,388.482 243.476,384.648 243,378.5C 242.5,369.173 242.334,359.839 242.5,350.5C 239.5,350.5 236.5,350.5 233.5,350.5C 233.5,347.833 233.5,345.167 233.5,342.5C 236.5,342.5 239.5,342.5 242.5,342.5C 242.5,337.833 242.5,333.167 242.5,328.5 Z"/></g>
<g><path style="opacity:0.928" fill="#103456" d="M 1042.5,328.5 C 1045.83,328.5 1049.17,328.5 1052.5,328.5C 1052.5,333.167 1052.5,337.833 1052.5,342.5C 1056.83,342.5 1061.17,342.5 1065.5,342.5C 1065.5,345.167 1065.5,347.833 1065.5,350.5C 1061.17,350.5 1056.83,350.5 1052.5,350.5C 1052.11,360.233 1052.61,369.9 1054,379.5C 1057.1,381.72 1060.43,382.053 1064,380.5C 1064.7,383.478 1065.2,386.478 1065.5,389.5C 1060.87,390.481 1056.2,390.648 1051.5,390C 1046.66,388.181 1043.83,384.681 1043,379.5C 1042.5,369.839 1042.33,360.172 1042.5,350.5C 1039.5,350.5 1036.5,350.5 1033.5,350.5C 1033.5,347.833 1033.5,345.167 1033.5,342.5C 1036.5,342.5 1039.5,342.5 1042.5,342.5C 1042.5,337.833 1042.5,333.167 1042.5,328.5 Z"/></g>
<g><path style="opacity:0.969" fill="#103457" d="M 1808.5,328.5 C 1812.17,328.5 1815.83,328.5 1819.5,328.5C 1819.5,333.167 1819.5,337.833 1819.5,342.5C 1823.5,342.5 1827.5,342.5 1831.5,342.5C 1831.5,345.167 1831.5,347.833 1831.5,350.5C 1827.5,350.5 1823.5,350.5 1819.5,350.5C 1819.33,359.839 1819.5,369.173 1820,378.5C 1822.92,381.612 1826.42,382.279 1830.5,380.5C 1831.48,383.428 1831.82,386.428 1831.5,389.5C 1827.2,390.463 1822.87,390.629 1818.5,390C 1812.34,388.219 1809.18,384.053 1809,377.5C 1808.5,368.506 1808.33,359.506 1808.5,350.5C 1805.83,350.5 1803.17,350.5 1800.5,350.5C 1800.5,347.833 1800.5,345.167 1800.5,342.5C 1803.17,342.5 1805.83,342.5 1808.5,342.5C 1808.5,337.833 1808.5,333.167 1808.5,328.5 Z"/></g>
<g><path style="opacity:0.967" fill="#63bd69" d="M 2202.5,331.5 C 2231.15,329.731 2258.15,335.564 2283.5,349C 2294.84,355.332 2305.84,362.166 2316.5,369.5C 2339.14,352.851 2364.14,341.017 2391.5,334C 2409.71,330.082 2427.71,330.749 2445.5,336C 2448.3,338.066 2447.96,339.566 2444.5,340.5C 2427.73,336.864 2411.4,338.364 2395.5,345C 2372.6,354.78 2351.26,367.113 2331.5,382C 2337.62,386.814 2343.45,391.981 2349,397.5C 2353.92,392.264 2359.76,390.431 2366.5,392C 2368.39,394.917 2368.89,398.084 2368,401.5C 2365,404.167 2362,404.167 2359,401.5C 2357.83,402.667 2356.67,403.833 2355.5,405C 2360.27,409.769 2365.6,413.769 2371.5,417C 2375.07,416.738 2378.57,416.905 2382,417.5C 2383.36,422.274 2381.86,425.774 2377.5,428C 2372.5,430 2367.5,430 2362.5,428C 2355.99,424.915 2349.99,421.082 2344.5,416.5C 2340.36,421.739 2335.03,423.906 2328.5,423C 2325.28,419.888 2324.78,416.388 2327,412.5C 2329.75,409.966 2332.41,409.966 2335,412.5C 2335.69,411.975 2336.19,411.308 2336.5,410.5C 2330.17,404.248 2323.33,398.581 2316,393.5C 2309.17,399 2302.33,404.5 2295.5,410C 2299.05,410.123 2302.55,410.956 2306,412.5C 2308.94,420.701 2306.1,424.201 2297.5,423C 2294.08,421.414 2291.08,419.248 2288.5,416.5C 2281.05,423.641 2272.22,427.974 2262,429.5C 2253.66,429.503 2249.99,425.503 2251,417.5C 2255.18,417.566 2259.35,417.066 2263.5,416C 2268.45,412.715 2273.12,409.048 2277.5,405C 2276.6,403.764 2275.43,402.93 2274,402.5C 2265.77,404.938 2262.77,401.938 2265,393.5C 2266.47,391.848 2268.3,390.848 2270.5,390.5C 2275.64,391.653 2280.14,393.986 2284,397.5C 2289.24,391.59 2295.07,386.423 2301.5,382C 2281.74,367.113 2260.4,354.78 2237.5,345C 2220.57,338.601 2203.24,336.435 2185.5,338.5C 2185.98,337.522 2186.64,336.689 2187.5,336C 2192.58,334.32 2197.58,332.82 2202.5,331.5 Z"/></g>
<g><path style="opacity:0.964" fill="#103456" d="M 133.5,341.5 C 138.93,341.161 144.264,341.661 149.5,343C 152.333,344.5 154.5,346.667 156,349.5C 157.444,362.76 157.944,376.093 157.5,389.5C 154.167,389.5 150.833,389.5 147.5,389.5C 147.667,378.828 147.5,368.161 147,357.5C 144.458,350.313 139.624,348.147 132.5,351C 130.291,352.873 128.458,355.04 127,357.5C 125.597,368.102 125.097,378.769 125.5,389.5C 122.167,389.5 118.833,389.5 115.5,389.5C 115.5,373.833 115.5,358.167 115.5,342.5C 118.833,342.5 122.167,342.5 125.5,342.5C 125.34,344.199 125.506,345.866 126,347.5C 128.114,344.879 130.614,342.879 133.5,341.5 Z"/></g>
<g><path style="opacity:0.936" fill="#103456" d="M 212.5,340.5 C 216.201,341.118 219.867,341.951 223.5,343C 232.487,346.593 232.654,350.427 224,354.5C 221.844,353.015 219.677,351.515 217.5,350C 211.861,348.245 207.527,349.745 204.5,354.5C 205,355.5 205.5,356.5 206,357.5C 212.405,360.191 218.905,362.691 225.5,365C 233.115,371.766 233.448,378.933 226.5,386.5C 218.612,390.828 210.278,391.661 201.5,389C 197.928,387.431 194.928,385.098 192.5,382C 194.907,379.715 197.407,377.549 200,375.5C 205.605,382.712 212.271,384.046 220,379.5C 220.944,376.653 220.444,374.153 218.5,372C 211.992,370.124 205.659,367.79 199.5,365C 194.339,358.701 194.173,352.201 199,345.5C 203.154,342.528 207.654,340.861 212.5,340.5 Z"/></g>
<g><path style="opacity:0.953" fill="#103456" d="M 291.5,341.5 C 294.833,341.5 298.167,341.5 301.5,341.5C 301.5,344.5 301.5,347.5 301.5,350.5C 294.982,349.123 289.815,351.123 286,356.5C 284.569,367.422 284.069,378.422 284.5,389.5C 280.833,389.5 277.167,389.5 273.5,389.5C 273.5,373.833 273.5,358.167 273.5,342.5C 276.833,342.5 280.167,342.5 283.5,342.5C 283.338,344.527 283.505,346.527 284,348.5C 286.015,345.588 288.515,343.255 291.5,341.5 Z"/></g>
<g><path style="opacity:0.94" fill="#103456" d="M 397.5,341.5 C 422.076,339.241 432.91,350.241 430,374.5C 422.387,389.486 410.553,394.319 394.5,389C 381.444,381.339 377.277,370.172 382,355.5C 385.492,348.834 390.659,344.168 397.5,341.5 Z M 402.5,349.5 C 418.651,351.455 423.817,360.121 418,375.5C 410.299,384.344 402.299,384.677 394,376.5C 387.748,364.484 390.581,355.484 402.5,349.5 Z"/></g>
<g><path style="opacity:0.963" fill="#103557" d="M 577.5,341.5 C 590.446,338.873 598.279,343.873 601,356.5C 601.5,367.495 601.667,378.495 601.5,389.5C 598.167,389.5 594.833,389.5 591.5,389.5C 591.879,378.445 591.379,367.445 590,356.5C 586.604,349.371 581.437,347.871 574.5,352C 572.383,353.731 570.883,355.898 570,358.5C 569.5,368.828 569.334,379.161 569.5,389.5C 565.833,389.5 562.167,389.5 558.5,389.5C 558.5,373.833 558.5,358.167 558.5,342.5C 561.833,342.5 565.167,342.5 568.5,342.5C 568.338,344.527 568.505,346.527 569,348.5C 571.217,345.323 574.05,342.989 577.5,341.5 Z"/></g>
<g><path style="opacity:0.905" fill="#0f3456" d="M 708.5,341.5 C 711.833,341.5 715.167,341.5 718.5,341.5C 718.5,344.5 718.5,347.5 718.5,350.5C 711.982,349.123 706.815,351.123 703,356.5C 701.569,367.422 701.069,378.422 701.5,389.5C 697.833,389.5 694.167,389.5 690.5,389.5C 690.5,373.833 690.5,358.167 690.5,342.5C 693.833,342.5 697.167,342.5 700.5,342.5C 700.338,344.527 700.505,346.527 701,348.5C 702.742,345.254 705.242,342.921 708.5,341.5 Z"/></g>
<g><path style="opacity:0.944" fill="#103456" d="M 739.5,341.5 C 764.469,339.631 774.969,350.964 771,375.5C 766.227,385.561 758.227,390.894 747,391.5C 726.808,388.294 718.808,376.627 723,356.5C 726.19,348.843 731.69,343.843 739.5,341.5 Z M 744.5,349.5 C 757.931,350.647 763.431,357.98 761,371.5C 757.28,381.152 750.447,384.318 740.5,381C 731.755,373.939 729.922,365.439 735,355.5C 737.855,352.773 741.022,350.773 744.5,349.5 Z"/></g>
<g><path style="opacity:0.932" fill="#103456" d="M 802.5,341.5 C 814.567,338.657 822.4,342.991 826,354.5C 826.5,366.162 826.667,377.829 826.5,389.5C 823.167,389.5 819.833,389.5 816.5,389.5C 816.909,378.104 816.409,366.77 815,355.5C 811.044,349.241 805.878,348.074 799.5,352C 797.57,354.258 796.07,356.758 795,359.5C 794.5,369.494 794.334,379.494 794.5,389.5C 791.167,389.5 787.833,389.5 784.5,389.5C 784.771,373.805 784.437,358.138 783.5,342.5C 786.833,342.5 790.167,342.5 793.5,342.5C 793.338,344.527 793.505,346.527 794,348.5C 796.441,345.546 799.275,343.213 802.5,341.5 Z"/></g>
<g><path style="opacity:0.944" fill="#103456" d="M 864.5,340.5 C 871.558,340.278 876.725,343.278 880,349.5C 883.665,343.708 888.998,340.708 896,340.5C 904.588,341.096 910.255,345.429 913,353.5C 913.5,365.495 913.667,377.495 913.5,389.5C 910.167,389.5 906.833,389.5 903.5,389.5C 903.666,379.161 903.5,368.828 903,358.5C 898.995,348.232 892.995,346.899 885,354.5C 884.138,356.087 883.471,357.754 883,359.5C 882.5,369.494 882.334,379.494 882.5,389.5C 879.167,389.5 875.833,389.5 872.5,389.5C 872.912,377.771 872.412,366.104 871,354.5C 865.999,348.413 860.666,348.08 855,353.5C 853.725,355.717 852.725,358.051 852,360.5C 851.5,370.161 851.334,379.828 851.5,389.5C 848.167,389.5 844.833,389.5 841.5,389.5C 841.817,374.118 841.484,358.785 840.5,343.5C 843.768,342.513 847.102,342.18 850.5,342.5C 850.338,344.527 850.505,346.527 851,348.5C 854.617,344.116 859.117,341.45 864.5,340.5 Z"/></g>
<g><path style="opacity:0.943" fill="#103456" d="M 948.5,340.5 C 965.841,342.191 973.841,351.857 972.5,369.5C 960.149,369.168 947.815,369.501 935.5,370.5C 942.23,383.916 951.23,385.75 962.5,376C 963.5,375.333 964.5,375.333 965.5,376C 968.034,377.734 969.534,379.9 970,382.5C 962.29,390.028 953.123,392.528 942.5,390C 933.667,387.833 928.167,382.333 926,373.5C 922.864,354.858 930.364,343.858 948.5,340.5 Z M 945.5,349.5 C 954.601,347.944 960.268,351.611 962.5,360.5C 953.5,361.833 944.5,361.833 935.5,360.5C 937.494,355.511 940.827,351.844 945.5,349.5 Z"/></g>
<g><path style="opacity:0.933" fill="#103456" d="M 1002.5,341.5 C 1009.29,340.667 1015.62,341.834 1021.5,345C 1023.94,347.707 1025.44,350.873 1026,354.5C 1026.5,366.162 1026.67,377.829 1026.5,389.5C 1023.17,389.5 1019.83,389.5 1016.5,389.5C 1016.67,379.161 1016.5,368.828 1016,358.5C 1013.22,349.527 1007.72,347.36 999.5,352C 997.348,354.469 995.848,357.302 995,360.5C 994.5,370.161 994.334,379.828 994.5,389.5C 991.167,389.5 987.833,389.5 984.5,389.5C 984.824,373.922 984.491,358.422 983.5,343C 986.817,342.502 990.15,342.335 993.5,342.5C 993.338,344.527 993.505,346.527 994,348.5C 996.441,345.546 999.275,343.213 1002.5,341.5 Z"/></g>
<g><path style="opacity:0.933" fill="#103456" d="M 1200.5,341.5 C 1205.84,341.334 1211.18,341.501 1216.5,342C 1221.91,343.743 1225.74,347.243 1228,352.5C 1228.35,364.845 1228.85,377.178 1229.5,389.5C 1226.5,389.5 1223.5,389.5 1220.5,389.5C 1220.51,387.692 1220.01,386.025 1219,384.5C 1212.17,390.622 1204.34,392.122 1195.5,389C 1184.41,381.59 1183.74,373.257 1193.5,364C 1201.88,361.039 1210.55,359.539 1219.5,359.5C 1217.86,351.334 1212.86,348.167 1204.5,350C 1201.12,351.107 1197.95,352.607 1195,354.5C 1193.36,352.855 1191.69,351.188 1190,349.5C 1189.33,348.833 1189.33,348.167 1190,347.5C 1193.35,345.079 1196.85,343.079 1200.5,341.5 Z M 1209.5,367.5 C 1212.83,367.5 1216.17,367.5 1219.5,367.5C 1218.36,380.4 1211.7,384.733 1199.5,380.5C 1196.89,377.37 1196.89,374.204 1199.5,371C 1202.85,369.514 1206.18,368.347 1209.5,367.5 Z"/></g>
<g><path style="opacity:0.948" fill="#103456" d="M 1294.5,340.5 C 1312.61,341.69 1320.61,351.357 1318.5,369.5C 1306.5,369.5 1294.5,369.5 1282.5,369.5C 1284.51,378.516 1290.18,382.682 1299.5,382C 1303.54,380.463 1307.2,378.296 1310.5,375.5C 1312.19,377.027 1314.03,378.36 1316,379.5C 1315.09,384.093 1312.26,387.26 1307.5,389C 1300.17,391 1292.83,391 1285.5,389C 1272.91,381.533 1268.75,370.699 1273,356.5C 1276.97,346.682 1284.13,341.348 1294.5,340.5 Z M 1292.5,349.5 C 1301.96,348.214 1307.3,352.214 1308.5,361.5C 1299.83,361.5 1291.17,361.5 1282.5,361.5C 1283.35,355.329 1286.68,351.329 1292.5,349.5 Z"/></g>
<g><path style="opacity:0.916" fill="#0f3556" d="M 1348.5,341.5 C 1351.83,341.5 1355.17,341.5 1358.5,341.5C 1358.5,344.5 1358.5,347.5 1358.5,350.5C 1351.94,349.119 1346.77,351.119 1343,356.5C 1341.57,367.422 1341.07,378.422 1341.5,389.5C 1337.83,389.5 1334.17,389.5 1330.5,389.5C 1330.5,373.833 1330.5,358.167 1330.5,342.5C 1333.83,342.5 1337.17,342.5 1340.5,342.5C 1340.34,344.527 1340.5,346.527 1341,348.5C 1342.74,345.254 1345.24,342.921 1348.5,341.5 Z"/></g>
<g><path style="opacity:0.945" fill="#103456" d="M 1567.5,341.5 C 1574.06,340.919 1580.39,341.752 1586.5,344C 1588,345.5 1589.5,347 1591,348.5C 1591.5,346.527 1591.66,344.527 1591.5,342.5C 1594.83,342.5 1598.17,342.5 1601.5,342.5C 1601.67,358.503 1601.5,374.503 1601,390.5C 1598.96,405.538 1590.29,413.204 1575,413.5C 1565.91,413.252 1558.07,410.085 1551.5,404C 1553.55,401.407 1555.72,398.907 1558,396.5C 1565.71,403.842 1574.55,405.676 1584.5,402C 1590.05,397.382 1591.89,391.549 1590,384.5C 1580.52,391.658 1570.69,392.158 1560.5,386C 1547.17,372.333 1547.17,358.667 1560.5,345C 1562.93,343.787 1565.26,342.621 1567.5,341.5 Z M 1573.5,349.5 C 1584.45,349.615 1590.45,355.115 1591.5,366C 1590.33,375.167 1585.17,380.333 1576,381.5C 1564.64,379.134 1559.97,372.134 1562,360.5C 1563.75,354.577 1567.59,350.911 1573.5,349.5 Z"/></g>
<g><path style="opacity:0.958" fill="#0f3457" d="M 1633.5,341.5 C 1636.83,341.5 1640.17,341.5 1643.5,341.5C 1643.5,344.5 1643.5,347.5 1643.5,350.5C 1636.98,349.123 1631.82,351.123 1628,356.5C 1626.57,367.422 1626.07,378.422 1626.5,389.5C 1622.83,389.5 1619.17,389.5 1615.5,389.5C 1615.5,373.833 1615.5,358.167 1615.5,342.5C 1618.83,342.5 1622.17,342.5 1625.5,342.5C 1625.34,344.527 1625.5,346.527 1626,348.5C 1628.01,345.588 1630.51,343.255 1633.5,341.5 Z"/></g>
<g><path style="opacity:0.941" fill="#103456" d="M 1691.5,341.5 C 1696.51,341.334 1701.51,341.501 1706.5,342C 1710.16,343.002 1713.33,344.836 1716,347.5C 1716.67,348.5 1716.67,349.5 1716,350.5C 1713.82,351.928 1711.82,353.595 1710,355.5C 1702.03,347.353 1694.37,347.687 1687,356.5C 1681.41,369.747 1685.41,378.414 1699,382.5C 1703.26,381.786 1707.09,380.119 1710.5,377.5C 1718.59,381.788 1718.26,385.621 1709.5,389C 1695.21,393.684 1684.05,389.851 1676,377.5C 1670.25,360.526 1675.42,348.526 1691.5,341.5 Z"/></g>
<g><path style="opacity:0.953" fill="#103557" d="M 1914.5,341.5 C 1917.83,341.5 1921.17,341.5 1924.5,341.5C 1924.5,344.5 1924.5,347.5 1924.5,350.5C 1917.98,349.123 1912.82,351.123 1909,356.5C 1907.57,367.422 1907.07,378.422 1907.5,389.5C 1903.83,389.5 1900.17,389.5 1896.5,389.5C 1896.5,373.833 1896.5,358.167 1896.5,342.5C 1899.83,342.5 1903.17,342.5 1906.5,342.5C 1906.34,344.527 1906.5,346.527 1907,348.5C 1909.01,345.588 1911.51,343.255 1914.5,341.5 Z"/></g>
<g><path style="opacity:0.943" fill="#103456" d="M 1950.5,340.5 C 1968.61,341.69 1976.61,351.357 1974.5,369.5C 1962.5,369.5 1950.5,369.5 1938.5,369.5C 1940.31,378.796 1945.97,382.963 1955.5,382C 1959.53,380.629 1963.03,378.463 1966,375.5C 1967.99,376.818 1969.99,378.152 1972,379.5C 1972.67,380.5 1972.67,381.5 1972,382.5C 1966.93,388.581 1960.43,391.248 1952.5,390.5C 1939.26,390.759 1931.09,384.426 1928,371.5C 1925.81,353.888 1933.31,343.554 1950.5,340.5 Z M 1948.5,349.5 C 1957.61,348.619 1962.94,352.619 1964.5,361.5C 1955.83,361.5 1947.17,361.5 1938.5,361.5C 1939.35,355.329 1942.68,351.329 1948.5,349.5 Z"/></g>
<g><path style="opacity:0.916" fill="#103457" d="M 90.5,342.5 C 93.8333,342.5 97.1667,342.5 100.5,342.5C 100.5,358.167 100.5,373.833 100.5,389.5C 97.1667,389.5 93.8333,389.5 90.5,389.5C 90.5,373.833 90.5,358.167 90.5,342.5 Z"/></g>
<g><path style="opacity:0.943" fill="#103456" d="M 302.5,342.5 C 306.437,342.207 310.27,342.54 314,343.5C 318.216,354.655 322.716,365.655 327.5,376.5C 332.1,365.368 336.1,354.034 339.5,342.5C 343.167,342.5 346.833,342.5 350.5,342.5C 342.908,363.691 334.741,384.691 326,405.5C 322.597,410.621 317.763,413.288 311.5,413.5C 309.591,412.652 307.591,412.318 305.5,412.5C 305.5,409.5 305.5,406.5 305.5,403.5C 311.877,405.654 316.377,403.654 319,397.5C 320.037,394.724 320.87,391.89 321.5,389C 315.262,373.45 308.928,357.95 302.5,342.5 Z"/></g>
<g><path style="opacity:0.937" fill="#0f3456" d="M 609.5,342.5 C 613.226,342.177 616.893,342.511 620.5,343.5C 624.64,354.589 628.973,365.589 633.5,376.5C 638.027,365.589 642.36,354.589 646.5,343.5C 650.167,342.167 653.833,342.167 657.5,343.5C 650.926,358.642 644.926,373.975 639.5,389.5C 635.445,389.824 631.445,389.491 627.5,388.5C 620.926,373.358 614.926,358.025 609.5,342.5 Z"/></g>
<g><path style="opacity:0.917" fill="#103457" d="M 665.5,342.5 C 668.833,342.5 672.167,342.5 675.5,342.5C 675.5,358.167 675.5,373.833 675.5,389.5C 672.167,389.5 668.833,389.5 665.5,389.5C 665.5,373.833 665.5,358.167 665.5,342.5 Z"/></g>
<g><path style="opacity:0.914" fill="#0f3556" d="M 1651.5,342.5 C 1654.83,342.5 1658.17,342.5 1661.5,342.5C 1661.5,358.167 1661.5,373.833 1661.5,389.5C 1658.17,389.5 1654.83,389.5 1651.5,389.5C 1651.5,373.833 1651.5,358.167 1651.5,342.5 Z"/></g>
<g><path style="opacity:0.941" fill="#0f3457" d="M 1724.5,342.5 C 1727.83,342.5 1731.17,342.5 1734.5,342.5C 1734.18,353.544 1734.68,364.544 1736,375.5C 1739.48,382.651 1744.65,384.151 1751.5,380C 1753.62,378.269 1755.12,376.102 1756,373.5C 1756.5,363.172 1756.67,352.839 1756.5,342.5C 1760.17,342.5 1763.83,342.5 1767.5,342.5C 1767.5,358.167 1767.5,373.833 1767.5,389.5C 1764.17,389.5 1760.83,389.5 1757.5,389.5C 1757.66,387.801 1757.49,386.134 1757,384.5C 1750.94,390.164 1743.77,391.998 1735.5,390C 1728.95,387.417 1725.45,382.583 1725,375.5C 1724.5,364.505 1724.33,353.505 1724.5,342.5 Z"/></g>
<g><path style="opacity:0.937" fill="#103457" d="M 1839.5,342.5 C 1842.83,342.5 1846.17,342.5 1849.5,342.5C 1849.33,352.506 1849.5,362.506 1850,372.5C 1852.29,381.933 1857.79,384.433 1866.5,380C 1868.43,377.742 1869.93,375.242 1871,372.5C 1871.5,362.506 1871.67,352.506 1871.5,342.5C 1874.83,342.5 1878.17,342.5 1881.5,342.5C 1881.25,358.191 1881.58,373.858 1882.5,389.5C 1879.17,389.5 1875.83,389.5 1872.5,389.5C 1872.66,387.473 1872.5,385.473 1872,383.5C 1866.33,390.141 1859.17,392.308 1850.5,390C 1844.38,387.549 1840.88,383.049 1840,376.5C 1839.5,365.172 1839.33,353.838 1839.5,342.5 Z"/></g>
<g><path style="opacity:0.991" fill="#12315a" d="M 172.5,342.5 C 176.167,342.5 179.833,342.5 183.5,342.5C 183.5,358.167 183.5,373.833 183.5,389.5C 179.833,389.5 176.167,389.5 172.5,389.5C 172.5,373.833 172.5,358.167 172.5,342.5 Z"/></g>
</svg>
