<?xml version="1.0" standalone="no"?>
<!DOCTYPE svg PUBLIC "-//W3C//DTD SVG 20010904//EN"
 "http://www.w3.org/TR/2001/REC-SVG-20010904/DTD/svg10.dtd">
<svg version="1.0" xmlns="http://www.w3.org/2000/svg"
 width="2500.000000pt" height="717.000000pt" viewBox="0 0 2500.000000 717.000000"
 preserveAspectRatio="xMidYMid meet">

<g transform="translate(0.000000,717.000000) scale(0.100000,-0.100000)"
fill="#000000" stroke="none">
<path d="M5270 5255 l0 -385 -287 -2 -288 -3 -3 -327 -2 -328 284 0 285 0 3
-682 3 -683 24 -70 c83 -249 259 -422 498 -487 72 -19 109 -22 450 -26 l372
-4 3 296 3 296 -340 2 -340 3 0 675 0 675 337 3 337 2 3 326 c2 179 1 328 -1
330 -2 2 -202 4 -443 4 l-438 0 0 84 0 83 78 52 c162 106 172 128 172 371 l0
180 -355 0 -355 0 0 -385z"/>
<path d="M8820 5085 l0 -555 -84 0 -83 0 -83 126 c-132 199 -154 210 -383 201
-93 -4 -185 -14 -237 -26 -529 -121 -916 -533 -1005 -1070 -21 -122 -16 -342
9 -456 89 -399 346 -727 709 -903 200 -98 356 -132 612 -133 l167 -1 514 507
514 507 0 1179 0 1179 -325 0 -325 0 0 -555z m-22 -1552 l2 -673 -315 0 c-256
0 -330 3 -388 16 -298 68 -507 317 -524 624 -19 348 236 654 582 700 33 4 191
7 350 6 l290 -1 3 -672z"/>
<path d="M15728 4752 c-2 -235 -6 -302 -17 -315 -12 -16 -86 -17 -873 -17
-928 0 -907 -1 -922 52 -3 13 -6 83 -6 156 l0 132 -60 0 -60 0 0 -154 c0 -127
-3 -157 -16 -170 -12 -13 -39 -16 -132 -16 -107 0 -125 3 -212 34 -52 18 -102
36 -110 40 -12 5 -20 -5 -33 -41 -9 -27 -17 -51 -17 -54 0 -3 40 -21 89 -39
99 -37 126 -54 135 -87 18 -57 -71 -80 -278 -71 -137 6 -185 26 -212 88 l-18
40 -58 0 c-58 0 -58 0 -58 -30 0 -68 45 -136 115 -173 37 -20 57 -22 260 -25
244 -4 288 3 335 50 33 33 48 89 33 129 l-10 27 118 4 c103 4 123 7 149 26
l30 23 31 -23 31 -23 896 0 c494 0 911 1 927 1 17 1 127 1 245 0 196 -1 218 1
255 19 60 31 80 73 80 175 0 130 -33 197 -119 243 -35 19 -56 22 -151 21 -93
0 -120 -4 -177 -26 l-68 -26 0 164 0 164 -59 0 -60 0 -3 -298z m472 -119 c51
-57 51 -174 -1 -200 -16 -9 -78 -13 -186 -13 l-163 0 0 100 0 99 78 26 c62 20
93 25 160 23 80 -3 85 -4 112 -35z"/>
<path d="M17120 4757 c0 -355 6 -337 -111 -337 l-79 0 0 103 c0 77 -5 112 -19
142 -34 75 -104 115 -201 115 -141 0 -219 -79 -228 -231 -4 -67 -1 -84 21
-132 35 -77 76 -97 210 -105 l99 -5 -6 -31 c-12 -58 -36 -71 -141 -74 l-95 -4
0 -50 0 -50 129 4 c112 3 133 6 157 24 48 35 67 70 72 129 l4 55 102 1 c126 0
165 13 188 59 16 31 18 70 18 358 l0 322 -60 0 -60 0 0 -293z m-358 -98 c32
-17 48 -71 48 -159 l0 -80 -65 0 c-39 0 -78 6 -94 15 -67 34 -66 172 0 219 27
18 81 21 111 5z"/>
<path d="M17385 5037 c-3 -6 -4 -172 -3 -367 l3 -355 60 0 60 0 3 368 2 367
-60 0 c-39 0 -62 -4 -65 -13z"/>
<path d="M19754 5037 c-3 -8 -4 -156 -2 -328 2 -234 7 -321 16 -340 29 -56 8
-54 655 -57 391 -2 611 1 636 8 69 18 76 38 79 253 l4 187 -66 0 -66 0 0 -160
c0 -147 -1 -160 -19 -170 -31 -16 -1072 -14 -1094 3 -15 11 -17 44 -19 312
l-3 300 -58 3 c-43 2 -59 -1 -63 -11z"/>
<path d="M22800 4751 c0 -263 -2 -302 -16 -316 -14 -14 -43 -16 -221 -13 -260
4 -243 -9 -243 194 l0 144 -59 0 -60 0 -3 -153 c-2 -114 -7 -158 -17 -171 -13
-15 -45 -16 -358 -14 l-345 3 -19 24 c-17 20 -19 40 -19 167 l0 144 -59 0 -59
0 -4 -255 c-3 -246 -4 -255 -25 -276 -12 -12 -39 -25 -60 -28 -37 -6 -38 -7
-41 -54 l-3 -47 69 0 c55 0 76 5 102 23 48 32 72 78 78 152 5 67 9 74 31 53 9
-10 102 -13 396 -13 374 0 384 1 412 21 l28 21 28 -21 c26 -19 44 -21 234 -24
248 -5 287 0 325 38 l28 28 0 336 0 336 -60 0 -60 0 0 -299z"/>
<path d="M23070 4680 l0 -370 60 0 60 0 0 370 0 370 -60 0 -60 0 0 -370z"/>
<path d="M13797 4984 c-4 -4 -7 -31 -7 -61 l0 -53 65 0 66 0 -3 58 -3 57 -55
3 c-31 2 -59 0 -63 -4z"/>
<path d="M21017 4984 c-4 -4 -7 -31 -7 -61 l0 -53 65 0 66 0 -3 58 -3 57 -55
3 c-31 2 -59 0 -63 -4z"/>
<path d="M10302 4363 l-512 -508 0 -1180 0 -1180 322 2 323 2 3 556 2 555 78
0 78 0 78 -116 c100 -147 119 -170 170 -197 37 -20 54 -22 191 -21 111 1 176
7 252 23 522 110 917 511 1019 1038 23 118 23 347 0 465 -48 250 -159 466
-334 649 -112 118 -231 207 -367 274 -210 104 -341 134 -605 141 l-185 5 -513
-508z m882 -181 c120 -33 209 -85 302 -177 132 -131 197 -289 197 -475 0 -311
-205 -574 -507 -650 -71 -18 -112 -20 -398 -20 l-318 0 0 676 0 675 323 -4
c289 -4 330 -6 401 -25z"/>
<path d="M1817 3884 c-4 -537 -7 -1123 -7 -1301 l0 -323 330 0 330 0 0 980 0
980 628 -2 627 -3 3 -977 2 -978 325 0 325 0 0 998 c0 954 -1 1002 -19 1074
-24 94 -76 197 -134 269 -57 70 -172 159 -257 198 -133 62 -121 61 -842 61
l-658 0 0 -165 0 -165 -83 0 -83 0 -90 132 c-61 91 -103 142 -132 163 -41 28
-50 30 -151 33 l-108 4 -6 -978z"/>
<path d="M18060 4759 c-49 -22 -90 -56 -90 -74 0 -12 51 -65 63 -65 3 0 23 11
43 25 44 30 126 35 163 9 32 -23 51 -73 51 -137 0 -88 -5 -91 -172 -97 -160
-6 -195 -17 -225 -73 -25 -47 -24 -147 3 -184 32 -44 80 -63 157 -63 l67 0 0
49 0 48 -45 5 c-69 8 -91 38 -65 89 10 17 22 19 130 19 136 0 210 13 235 40
17 19 18 19 46 -5 40 -33 88 -37 436 -33 294 3 302 4 332 26 37 27 35 27 69 2
34 -24 121 -38 190 -29 115 15 175 92 174 227 0 162 -75 242 -228 242 -144 0
-210 -68 -224 -234 -11 -136 15 -127 -382 -124 l-330 3 -19 24 c-14 17 -19 39
-19 80 0 158 -95 251 -254 251 -40 0 -77 -8 -106 -21z m1406 -112 c22 -19 28
-34 32 -79 6 -79 -12 -126 -55 -144 -44 -19 -98 -9 -122 22 -40 51 -34 161 10
205 28 28 100 26 135 -4z"/>
<path d="M12870 4670 l0 -60 55 0 55 0 0 60 0 60 -55 0 -55 0 0 -60z"/>
<path d="M12872 4493 l3 -58 53 -3 52 -3 0 60 0 61 -55 0 -56 0 3 -57z"/>
<path d="M18160 4185 l0 -55 60 0 60 0 0 55 0 55 -60 0 -60 0 0 -55z"/>
<path d="M22200 4165 l0 -55 60 0 60 0 0 55 0 55 -60 0 -60 0 0 -55z"/>
<path d="M13812 3519 l3 -351 29 -25 c28 -24 32 -24 167 -21 127 3 140 5 160
25 22 21 23 21 48 4 42 -29 89 -41 161 -41 80 0 153 32 187 82 45 68 53 191
17 277 -37 89 -110 126 -233 119 -64 -4 -88 -10 -119 -31 -52 -34 -83 -99 -89
-185 -9 -134 -15 -142 -118 -142 -63 0 -76 3 -85 19 -6 12 -10 132 -10 320 l0
301 -60 0 -61 0 3 -351z m620 -50 c11 -6 26 -26 34 -44 28 -67 10 -171 -34
-194 -36 -19 -98 -13 -128 12 -23 20 -28 34 -32 86 -5 68 9 114 42 136 24 18
89 20 118 4z"/>
<path d="M15377 3864 c-4 -4 -7 -143 -7 -309 0 -221 -3 -304 -12 -313 -7 -7
-44 -12 -95 -12 l-83 0 0 103 c-1 143 -31 203 -122 242 -52 21 -162 19 -214
-4 -149 -68 -169 -354 -31 -428 22 -12 66 -19 137 -23 l105 -5 -2 -34 c-3 -61
-29 -76 -144 -79 l-100 -4 3 -51 3 -52 120 1 c104 0 126 3 162 22 51 27 75 68
83 142 l5 55 85 2 c47 1 102 2 122 2 24 1 47 10 66 26 25 21 31 22 36 10 10
-27 54 -35 204 -36 106 0 160 4 191 14 37 13 47 13 77 1 24 -10 80 -14 207
-14 166 0 176 1 209 24 34 22 35 23 57 5 67 -55 248 -51 312 7 18 17 20 16 43
-5 30 -28 100 -38 218 -31 79 5 90 8 115 33 l28 27 0 343 0 342 -60 0 -60 0
-3 -304 c-1 -204 -6 -309 -13 -318 -8 -9 -36 -13 -84 -13 -97 0 -106 10 -115
133 -4 51 -14 106 -23 122 -37 72 -103 105 -209 105 -88 0 -144 -23 -180 -71
-35 -48 -40 -63 -48 -161 -10 -126 -12 -128 -167 -128 l-124 0 35 35 c115 115
93 264 -46 311 -79 26 -244 16 -321 -19 l-57 -26 0 -55 c0 -54 1 -55 50 -90
50 -36 96 -95 102 -131 3 -19 -3 -20 -141 -23 -116 -2 -148 0 -167 13 l-24 15
-2 303 -3 302 -55 3 c-31 2 -59 0 -63 -4z m-360 -399 c29 -20 43 -73 43 -162
l0 -73 -80 0 c-73 0 -83 3 -105 25 -46 45 -31 183 22 214 27 16 96 13 120 -4z
m993 0 c33 -17 46 -58 31 -97 -12 -33 -69 -98 -86 -98 -7 0 -20 21 -30 46 -10
26 -39 69 -65 96 -45 47 -47 50 -26 58 35 14 144 11 176 -5z m648 -5 c41 -38
52 -156 19 -201 -28 -37 -92 -50 -141 -28 -62 29 -70 176 -11 227 34 29 102
30 133 2z"/>
<path d="M17310 3497 c0 -206 2 -376 4 -378 2 -2 29 -2 60 -1 l56 4 0 374 0
374 -60 0 -60 0 0 -373z"/>
<path d="M23070 3569 c0 -188 -4 -308 -10 -320 -10 -17 -22 -19 -141 -19 -125
0 -131 1 -154 25 -24 23 -25 28 -25 170 l0 145 -60 0 -60 0 0 -144 c0 -80 -4
-156 -10 -170 l-10 -26 -160 0 c-211 0 -200 -11 -200 190 l0 150 -65 0 -65 0
0 -158 c0 -110 -4 -162 -12 -170 -7 -7 -43 -12 -90 -12 -96 0 -103 9 -111 128
-7 115 -34 167 -106 204 -44 23 -66 28 -125 28 -158 0 -235 -85 -236 -260 0
-86 -15 -100 -104 -100 -114 0 -115 2 -118 185 l-3 150 -62 3 -63 3 0 -145 c0
-80 -4 -156 -10 -170 -9 -26 -11 -26 -114 -26 -94 0 -106 2 -116 19 -6 12 -10
98 -10 210 l0 191 -59 0 c-58 0 -60 -1 -63 -27 l-3 -28 -100 -5 c-67 -4 -111
-11 -132 -23 -112 -60 -137 -258 -43 -348 62 -60 192 -76 257 -34 22 15 24 14
33 -9 19 -50 43 -56 226 -57 171 0 196 3 226 28 14 13 20 12 46 -7 24 -18 43
-22 108 -22 83 0 121 10 143 36 12 14 16 14 40 -3 80 -56 232 -56 310 -1 24
17 26 17 54 -4 23 -17 47 -22 126 -26 126 -6 175 1 206 30 14 13 25 18 25 12
0 -6 14 -19 30 -27 25 -13 67 -16 214 -16 182 0 231 7 242 36 5 12 11 11 36
-10 29 -25 33 -25 199 -25 98 0 179 4 190 10 46 25 49 48 49 405 l0 335 -60 0
-60 0 0 -301z m-2362 -165 c-4 -65 -9 -79 -32 -102 -22 -22 -36 -27 -77 -27
-43 0 -54 4 -75 28 -36 42 -34 109 5 148 27 27 35 29 107 29 l77 0 -5 -76z
m1013 66 c35 -19 51 -67 47 -138 -4 -55 -8 -68 -32 -88 -29 -26 -91 -32 -127
-14 -63 34 -65 202 -2 239 23 13 89 14 114 1z"/>
<path d="M17930 3790 l0 -60 55 0 55 0 0 60 0 60 -55 0 -55 0 0 -60z"/>
<path d="M18074 3836 c-3 -7 -4 -33 -2 -57 l3 -44 58 -3 57 -3 0 61 0 60 -55
0 c-38 0 -57 -4 -61 -14z"/>
<path d="M20487 3844 c-4 -4 -7 -31 -7 -61 l0 -53 60 0 61 0 -3 58 -3 57 -50
3 c-28 2 -54 0 -58 -4z"/>
<path d="M20630 3790 l0 -60 55 0 55 0 0 60 0 60 -55 0 -55 0 0 -60z"/>
<path d="M18882 3743 l3 -58 60 0 60 0 3 58 3 57 -66 0 -66 0 3 -57z"/>
<path d="M19292 3743 l3 -58 55 0 55 0 3 58 3 57 -61 0 -61 0 3 -57z"/>
<path d="M19442 3743 l3 -58 55 0 55 0 3 58 3 57 -61 0 -61 0 3 -57z"/>
<path d="M19782 3743 l3 -58 55 0 55 0 3 58 3 57 -61 0 -61 0 3 -57z"/>
<path d="M19932 3743 l3 -58 55 0 55 0 3 58 3 57 -61 0 -61 0 3 -57z"/>
<path d="M22112 3743 l3 -58 63 -3 62 -3 0 61 0 60 -65 0 -66 0 3 -57z"/>
<path d="M22552 3743 l3 -58 55 0 55 0 3 58 3 57 -61 0 -61 0 3 -57z"/>
<path d="M22700 3740 l0 -60 55 0 55 0 0 60 0 60 -55 0 -55 0 0 -60z"/>
<path d="M13137 3734 c-4 -4 -7 -31 -7 -61 l0 -53 60 0 61 0 -3 58 -3 57 -50
3 c-28 2 -54 0 -58 -4z"/>
<path d="M13280 3680 l0 -60 55 0 55 0 0 60 0 60 -55 0 -55 0 0 -60z"/>
<path d="M18158 3623 l-3 -28 -100 -5 c-110 -6 -146 -20 -188 -70 -45 -53 -59
-142 -36 -225 15 -53 73 -110 129 -125 53 -14 142 -7 174 14 22 14 24 13 34
-9 23 -50 46 -55 231 -56 135 0 177 4 201 16 16 9 30 21 30 27 0 6 11 1 25
-12 31 -29 80 -37 201 -30 79 4 97 8 115 27 22 21 22 21 38 2 23 -28 93 -35
256 -27 77 4 147 7 155 7 294 -9 477 -8 499 1 51 21 56 40 59 248 l4 192 -66
0 -66 0 0 -158 c0 -110 -4 -162 -12 -170 -8 -8 -53 -12 -135 -12 l-123 0 34
45 c63 82 58 185 -13 256 -43 43 -91 59 -181 59 -90 0 -138 -16 -181 -59 -75
-75 -73 -194 4 -278 l20 -23 -104 0 c-154 0 -149 -6 -149 186 l0 154 -65 0
-65 0 0 -158 c0 -110 -4 -162 -12 -170 -7 -7 -43 -12 -93 -12 -72 0 -84 3
-103 23 -21 22 -22 33 -22 170 l0 147 -60 0 -60 0 -1 -137 c-1 -76 -4 -151 -8
-168 l-6 -30 -105 -3 c-90 -2 -107 0 -117 15 -10 12 -13 70 -13 210 l0 193
-59 0 c-58 0 -60 -1 -63 -27z m1330 -150 c31 -19 45 -60 37 -110 -5 -31 -16
-50 -46 -77 -21 -20 -49 -36 -60 -36 -32 0 -96 69 -104 113 -19 100 84 166
173 110z m-1331 -65 c-9 -107 -51 -149 -133 -134 -53 10 -74 40 -74 103 0 45
4 58 26 78 24 22 36 25 107 25 l80 0 -6 -72z"/>
<path d="M13550 3419 c0 -84 -5 -159 -10 -170 -10 -18 -24 -19 -278 -19 -195
0 -271 3 -280 12 -8 8 -12 53 -12 135 l0 123 -66 0 -66 0 3 -153 c4 -162 12
-192 59 -217 14 -7 135 -11 362 -10 371 0 378 1 398 56 6 14 10 108 10 210 l0
184 -60 0 -60 0 0 -151z"/>
<path d="M18452 2963 l3 -58 55 0 55 0 3 58 3 57 -61 0 -61 0 3 -57z"/>
<path d="M18600 2960 l0 -60 55 0 55 0 0 60 0 60 -55 0 -55 0 0 -60z"/>
<path d="M21002 2963 l3 -58 55 0 55 0 3 58 3 57 -61 0 -61 0 3 -57z"/>
<path d="M21152 2963 l3 -58 55 0 55 0 3 58 3 57 -61 0 -61 0 3 -57z"/>
<path d="M12894 2537 c-2 -7 -3 -87 -2 -177 l3 -165 28 -3 27 -3 0 120 c0 67
3 121 8 121 4 -1 39 -53 77 -118 64 -108 73 -117 103 -120 l32 -3 0 180 0 181
-30 0 -30 0 0 -127 0 -128 -76 128 c-70 116 -79 127 -106 127 -16 0 -31 -6
-34 -13z"/>
<path d="M13712 2523 c2 -22 9 -29 31 -31 24 -3 27 0 27 27 0 28 -3 31 -31 31
-27 0 -30 -3 -27 -27z"/>
<path d="M14720 2390 c0 -157 1 -161 25 -185 13 -14 36 -25 50 -25 21 0 25 5
25 29 0 20 -6 30 -20 34 -19 5 -20 14 -20 156 l0 151 -30 0 -30 0 0 -160z"/>
<path d="M14980 2520 c0 -29 1 -30 50 -30 l50 0 0 -150 0 -150 35 0 35 0 0
150 0 150 50 0 c49 0 50 1 50 30 l0 30 -135 0 -135 0 0 -30z"/>
<path d="M15850 2370 l0 -180 30 0 30 0 0 89 c0 82 2 91 22 105 29 20 34 20
58 -4 17 -17 20 -33 20 -105 l0 -85 30 0 30 0 0 101 c0 98 -1 101 -29 130 -31
31 -75 38 -112 19 -18 -10 -19 -7 -19 50 l0 60 -30 0 -30 0 0 -180z"/>
<path d="M16730 2387 c0 -183 4 -198 60 -200 31 -2 35 1 38 26 3 22 -1 27 -17
27 -20 0 -21 5 -21 155 l0 155 -30 0 -30 0 0 -163z"/>
<path d="M17860 2370 l0 -180 89 0 c107 0 135 9 161 52 16 26 20 51 20 121 0
157 -30 187 -185 187 l-85 0 0 -180z m185 100 c23 -26 32 -124 16 -173 -13
-38 -47 -57 -102 -57 l-29 0 0 125 0 125 48 0 c36 0 54 -5 67 -20z"/>
<path d="M19030 2387 c0 -183 3 -194 63 -204 36 -5 37 -5 37 25 0 21 -6 31
-20 35 -19 5 -20 14 -20 156 l0 151 -30 0 -30 0 0 -163z"/>
<path d="M21120 2370 l0 -180 30 0 30 0 0 65 0 65 43 0 c125 0 192 72 153 164
-21 50 -63 66 -171 66 l-85 0 0 -180z m188 108 c18 -18 14 -63 -7 -82 -14 -12
-32 -16 -67 -14 l-49 3 -3 53 -3 52 58 0 c33 0 64 -5 71 -12z"/>
<path d="M13540 2480 c0 -29 -4 -40 -15 -40 -8 0 -15 -7 -15 -15 0 -9 7 -18
15 -21 12 -5 15 -25 15 -94 0 -84 1 -90 26 -109 15 -12 37 -21 50 -21 20 0 24
5 24 29 0 20 -6 30 -20 34 -18 5 -20 14 -20 81 0 69 2 76 20 76 13 0 20 7 20
19 0 10 -9 21 -20 24 -15 4 -20 14 -20 41 0 33 -2 36 -30 36 -28 0 -30 -2 -30
-40z"/>
<path d="M20820 2485 c0 -22 -6 -38 -15 -41 -8 -4 -15 -15 -15 -25 0 -10 7
-19 15 -19 12 0 15 -16 15 -88 0 -102 9 -120 63 -129 36 -5 37 -5 37 26 0 24
-4 31 -20 31 -18 0 -20 7 -20 80 0 73 2 80 20 80 13 0 20 7 20 20 0 13 -7 20
-20 20 -17 0 -20 7 -20 40 0 38 -2 40 -30 40 -28 0 -30 -3 -30 -35z"/>
<path d="M13283 2440 c-24 -10 -29 -26 -14 -49 6 -10 13 -11 29 -2 46 24 102
8 102 -30 0 -13 -12 -17 -61 -21 -49 -4 -66 -9 -80 -27 -24 -30 -24 -72 0
-102 15 -19 28 -23 67 -22 27 0 68 1 92 2 l42 1 0 104 c0 133 -10 148 -96 153
-32 1 -69 -2 -81 -7z m117 -163 c0 -29 -18 -47 -46 -47 -36 0 -54 11 -54 31 0
22 30 37 73 38 22 1 27 -3 27 -22z"/>
<path d="M13905 2441 c-46 -20 -60 -49 -60 -127 0 -67 2 -76 28 -101 23 -24
36 -28 83 -28 50 0 58 3 85 33 26 29 29 40 29 97 0 57 -3 69 -28 96 -21 24
-38 32 -72 35 -25 2 -54 0 -65 -5z m85 -61 c14 -14 20 -33 20 -63 0 -54 -18
-79 -55 -79 -37 0 -55 25 -55 79 0 45 25 83 55 83 8 0 24 -9 35 -20z"/>
<path d="M14231 2441 c-7 -5 -31 -6 -52 -4 l-39 6 0 -127 0 -126 30 0 30 0 0
90 c0 84 1 90 25 106 23 15 27 15 50 0 24 -16 25 -22 25 -106 l0 -90 30 0 30
0 0 101 c0 98 -1 101 -29 130 -30 29 -72 38 -100 20z"/>
<path d="M14470 2439 c-33 -14 -33 -14 -21 -38 10 -17 16 -19 37 -11 37 14 70
12 88 -6 31 -31 20 -44 -38 -44 -72 0 -106 -26 -106 -80 0 -54 38 -84 95 -76
22 4 57 6 78 6 l37 0 0 108 c0 96 -2 111 -20 127 -24 22 -113 30 -150 14z
m118 -160 c7 -39 -70 -67 -97 -35 -14 17 -5 43 17 49 34 10 77 2 80 -14z"/>
<path d="M15355 2441 c-40 -17 -59 -50 -63 -110 -5 -70 14 -113 60 -137 38
-20 102 -15 142 11 l27 18 -20 20 c-16 17 -23 18 -35 8 -22 -19 -73 -16 -96 4
-40 36 -26 45 66 45 l87 0 -6 46 c-7 62 -39 95 -98 100 -24 2 -53 0 -64 -5z
m87 -58 c33 -30 23 -43 -37 -43 -59 0 -68 10 -38 42 20 22 51 23 75 1z"/>
<path d="M15623 2430 c-54 -32 -67 -143 -26 -207 29 -44 120 -54 167 -18 19
14 19 15 1 34 -16 19 -20 19 -47 5 -27 -14 -32 -14 -54 1 -21 13 -24 23 -24
70 0 47 3 57 25 71 22 14 27 14 54 1 27 -13 31 -13 45 2 22 24 20 28 -14 46
-40 21 -89 19 -127 -5z"/>
<path d="M16236 2443 c-3 -4 -24 -6 -46 -5 l-40 3 0 -126 0 -125 30 0 30 0 0
89 c0 82 2 91 22 105 29 20 34 20 58 -4 17 -17 20 -33 20 -105 l0 -85 31 0 31
0 -4 106 c-3 102 -4 107 -31 130 -27 23 -85 33 -101 17z"/>
<path d="M16484 2431 c-51 -31 -69 -116 -40 -186 16 -37 60 -65 101 -65 40 0
91 28 104 56 15 33 14 126 -1 159 -24 53 -106 71 -164 36z m94 -47 c18 -12 22
-25 22 -69 0 -47 -3 -57 -25 -71 -23 -15 -27 -15 -50 0 -55 36 -40 154 20 156
6 0 21 -7 33 -16z"/>
<path d="M16929 2435 c-48 -26 -68 -125 -40 -193 34 -82 172 -80 207 3 30 72
9 162 -45 189 -37 20 -87 20 -122 1z m91 -45 c15 0 32 -69 25 -100 -4 -17 -18
-38 -31 -46 -22 -15 -26 -15 -49 0 -22 14 -25 24 -25 71 0 44 4 57 22 70 13 8
29 13 36 10 8 -3 17 -5 22 -5z"/>
<path d="M17207 2440 c-44 -28 -61 -126 -33 -194 18 -44 72 -64 117 -46 37 16
44 9 27 -27 -15 -32 -46 -40 -90 -22 -25 10 -32 9 -46 -5 -16 -16 -16 -18 7
-37 26 -21 104 -26 144 -8 45 20 52 45 55 197 l4 143 -44 -1 c-23 0 -61 2 -83
5 -22 3 -48 1 -58 -5z m96 -55 c41 -40 25 -127 -24 -133 -37 -4 -59 22 -59 69
0 62 48 99 83 64z"/>
<path d="M18254 2440 c-43 -17 -64 -58 -64 -126 0 -52 4 -67 26 -93 30 -36 80
-48 134 -32 50 15 69 37 49 57 -14 13 -20 13 -52 -1 -52 -21 -97 0 -97 46 0 5
38 9 85 9 84 0 85 0 85 25 0 90 -85 148 -166 115z m90 -62 c24 -34 20 -38 -39
-38 -59 0 -70 13 -39 44 22 23 60 20 78 -6z"/>
<path d="M18784 2431 c-55 -34 -70 -142 -28 -206 30 -46 124 -57 180 -20 29
19 30 27 5 42 -16 10 -26 9 -49 -3 -22 -10 -37 -12 -55 -5 -27 10 -51 44 -40
55 3 3 42 6 85 6 l78 0 0 35 c0 19 -5 46 -12 60 -24 53 -106 71 -164 36z m97
-41 c10 -6 19 -20 19 -30 0 -17 -7 -20 -49 -20 -58 0 -70 11 -41 40 22 22 42
25 71 10z"/>
<path d="M19231 2436 c-36 -20 -50 -55 -51 -123 0 -54 4 -67 28 -93 54 -61
158 -47 188 25 29 71 7 166 -46 192 -32 16 -89 16 -119 -1z m93 -49 c11 -8 20
-31 23 -59 5 -40 2 -50 -20 -72 -26 -26 -45 -26 -74 -3 -8 5 -13 32 -13 63 0
43 4 56 22 68 27 19 39 20 62 3z"/>
<path d="M19566 2443 c-3 -4 -24 -6 -46 -5 l-40 3 0 -176 0 -176 28 3 c25 3
27 7 32 55 4 44 8 51 20 43 54 -35 132 12 145 88 13 77 -6 136 -52 160 -24 13
-76 16 -87 5z m52 -59 c18 -12 22 -25 22 -69 0 -47 -3 -57 -25 -71 -23 -15
-27 -15 -50 0 -22 14 -25 24 -25 71 0 44 4 57 22 69 12 9 25 16 28 16 3 0 16
-7 28 -16z"/>
<path d="M19861 2441 c-7 -5 -31 -6 -52 -4 l-39 6 0 -127 0 -126 30 0 30 0 0
85 c0 72 3 88 20 105 24 24 43 25 64 4 12 -12 16 -37 16 -105 l0 -89 30 0 30
0 0 74 c0 41 4 86 9 99 12 30 43 42 71 27 18 -10 20 -20 20 -106 l0 -95 33 3
32 3 3 82 c4 127 -24 173 -106 173 -15 0 -37 -7 -49 -15 -19 -13 -24 -13 -50
0 -31 17 -71 19 -92 6z"/>
<path d="M20284 2441 c-12 -5 -31 -22 -44 -38 -19 -24 -21 -37 -18 -95 4 -78
29 -113 86 -124 39 -8 104 9 122 32 11 12 10 18 -3 31 -13 13 -19 14 -31 4
-25 -21 -86 -18 -102 4 -29 39 -19 45 72 45 l87 0 -6 46 c-7 62 -39 95 -98
100 -24 2 -54 0 -65 -5z m88 -58 c33 -30 23 -43 -37 -43 -59 0 -68 10 -38 42
20 22 51 23 75 1z"/>
<path d="M20606 2443 c-3 -4 -24 -6 -46 -5 l-40 3 0 -126 0 -125 30 0 30 0 0
88 c0 73 3 92 18 105 24 22 38 21 62 -3 17 -17 20 -33 20 -105 l0 -85 31 0 31
0 -4 106 c-3 102 -4 107 -31 130 -27 23 -85 33 -101 17z"/>
<path d="M21537 2444 c-4 -4 -26 -7 -49 -8 l-43 -1 0 -120 0 -120 33 -3 32 -3
0 90 c0 68 4 93 16 105 18 19 28 20 53 6 14 -7 23 -4 37 11 18 20 18 21 -1 35
-19 14 -67 19 -78 8z"/>
<path d="M21714 2431 c-74 -45 -71 -196 5 -235 57 -30 132 -13 157 36 18 36
20 118 4 159 -24 57 -106 76 -166 40z m94 -47 c18 -12 22 -25 22 -69 0 -47 -4
-57 -24 -70 -68 -45 -120 93 -53 140 27 19 27 19 55 -1z"/>
<path d="M21980 2422 c-27 -28 -30 -37 -30 -94 0 -78 15 -108 62 -126 32 -12
41 -12 67 1 31 15 31 15 31 -12 0 -15 -5 -32 -12 -39 -15 -15 -63 -15 -87 0
-15 9 -23 9 -35 -1 -38 -32 2 -61 85 -61 42 0 55 5 80 29 l29 29 0 147 0 146
-37 -1 c-21 0 -57 3 -80 6 -38 5 -46 3 -73 -24z m108 -38 c16 -11 22 -25 22
-55 0 -56 -15 -79 -50 -79 -35 0 -50 23 -50 79 0 30 6 44 22 55 12 9 25 16 28
16 3 0 16 -7 28 -16z"/>
<path d="M22341 2441 c-7 -5 -31 -6 -52 -4 l-39 6 0 -127 0 -126 30 0 30 0 0
64 c0 35 3 78 6 96 8 38 41 58 71 41 17 -8 24 -6 39 10 18 20 18 21 -1 35 -21
16 -63 18 -84 5z"/>
<path d="M22510 2439 c-33 -14 -33 -14 -20 -38 9 -17 15 -19 30 -11 43 23 100
9 100 -26 0 -22 -4 -24 -45 -24 -59 0 -101 -22 -109 -56 -16 -62 39 -113 106
-100 18 4 50 7 71 6 l37 0 0 104 c0 130 -10 147 -91 152 -30 2 -65 -1 -79 -7z
m110 -162 c0 -30 -18 -47 -50 -47 -28 0 -50 16 -50 37 0 16 34 31 73 32 22 1
27 -3 27 -22z"/>
<path d="M22851 2441 c-7 -5 -31 -6 -52 -4 l-39 6 0 -127 0 -126 30 0 30 0 0
85 c0 72 3 88 20 105 24 24 29 24 58 4 20 -14 22 -23 22 -105 l0 -89 30 0 30
0 0 85 c0 72 3 88 20 105 24 24 29 24 58 4 20 -14 22 -23 22 -105 l0 -89 30 0
30 0 0 103 c-1 64 -5 108 -13 118 -30 39 -87 50 -135 25 -23 -12 -31 -12 -52
0 -29 15 -69 18 -89 5z"/>
<path d="M13710 2315 l0 -125 30 0 30 0 0 125 0 125 -30 0 -30 0 0 -125z"/>
<path d="M17440 2436 c0 -4 20 -57 45 -119 49 -121 51 -150 10 -169 -32 -14
-35 -58 -4 -58 32 0 57 18 75 51 15 29 114 286 114 296 0 2 -14 3 -32 1 -30
-3 -33 -7 -59 -83 l-27 -80 -12 30 c-7 17 -20 53 -29 80 -16 44 -21 50 -49 53
-18 2 -32 1 -32 -2z"/>
<path d="M18460 2433 c0 -4 20 -60 44 -123 42 -109 46 -115 74 -118 27 -3 31
1 45 40 8 24 29 80 46 126 l30 82 -32 0 c-32 0 -34 -3 -51 -57 -37 -118 -35
-117 -65 -28 -26 76 -29 80 -59 83 -18 2 -32 0 -32 -5z"/>
</g>
</svg>
