<?xml version="1.0" encoding="UTF-8"?>
<svg version="1.1" xmlns="http://www.w3.org/2000/svg" width="2134" height="1316">
<path d="M0 0 C1.42888046 -0.00101212 1.42888046 -0.00101212 2.8866272 -0.00204468 C34.36491945 0.03326005 64.39050471 4.79799547 94.4375 14.25 C95.25105957 14.50475098 96.06461914 14.75950195 96.90283203 15.02197266 C136.83688056 27.74312452 173.39031491 49.84403565 204.1640625 78.1640625 C205.68077546 79.55568573 207.21757957 80.9257211 208.7734375 82.2734375 C220.44365616 92.43294825 230.76191691 103.99965329 240.02929688 116.37060547 C240.99590309 117.66064268 241.96891748 118.94589565 242.94726562 120.22705078 C290.96478337 183.23883076 310.75300164 263.81259798 300.96484375 342.02685547 C291.51405451 409.80126537 260.87165571 469.73628144 212.8125 518.125 C212.33112579 518.61182251 211.84975159 519.09864502 211.35379028 519.60021973 C204.73225605 526.27750622 197.83948312 532.44387699 190.4375 538.25 C189.7480127 538.79350098 189.05852539 539.33700195 188.34814453 539.89697266 C147.05420292 572.06671604 88.09293649 603.32767769 34.4375 602.25 C34.59347656 601.3528125 34.74945312 600.455625 34.91015625 599.53125 C36.41670379 589.87338234 36.3821866 580.96495273 35.4375 571.25 C36.37710571 571.07778931 36.37710571 571.07778931 37.33569336 570.90209961 C87.61066977 561.56759832 133.87600873 543.18834176 173.4375 510.25 C173.95779785 509.81993652 174.4780957 509.38987305 175.01416016 508.94677734 C187.72452448 498.40674347 199.20282776 487.23480526 209.4375 474.25 C210.3671089 473.13057919 211.29955838 472.01351308 212.234375 470.8984375 C245.4598626 430.9353326 265.94711889 378.91854112 270.4375 327.25 C270.54707031 326.06664062 270.65664062 324.88328125 270.76953125 323.6640625 C275.59021913 263.37332612 259.55224365 201.26968708 225.4375 151.25 C225.04449707 150.6715332 224.65149414 150.09306641 224.24658203 149.49707031 C218.16722981 140.61205171 211.53473009 132.33835774 204.4375 124.25 C203.71046875 123.41082031 202.9834375 122.57164062 202.234375 121.70703125 C192.49867157 110.65520495 182.12450376 100.23283001 170.4375 91.25 C169.87933594 90.81010742 169.32117187 90.37021484 168.74609375 89.91699219 C157.54549878 81.09319734 145.731091 73.46124351 133.4375 66.25 C132.7254541 65.83121582 132.0134082 65.41243164 131.27978516 64.98095703 C92.19114042 42.33669721 46.30738283 31.74115117 1.375 31.9375 C0.48053162 31.93965515 -0.41393677 31.9418103 -1.33551025 31.94403076 C-56.83748151 32.15767562 -111.6574895 49.27991643 -156.5625 82.25 C-157.1301709 82.66604492 -157.6978418 83.08208984 -158.28271484 83.51074219 C-162.11125514 86.33980127 -165.85970696 89.25850337 -169.5625 92.25 C-170.10551758 92.68860352 -170.64853516 93.12720703 -171.20800781 93.57910156 C-185.27637522 105.05527999 -198.51503198 117.81804756 -209.5625 132.25 C-210.34496094 133.22710937 -211.12742187 134.20421875 -211.93359375 135.2109375 C-256.00706911 190.5668762 -275.69365755 262.91572591 -267.96484375 332.99609375 C-261.53836451 384.9694647 -241.1130605 433.95318676 -207.5625 474.25 C-207.13243652 474.77029785 -206.70237305 475.2905957 -206.25927734 475.82666016 C-196.5021909 487.59285796 -186.22398467 498.66367711 -174.203125 508.16015625 C-172.49867487 509.50909237 -170.81900344 510.89023315 -169.171875 512.30859375 C-145.48488784 532.60640508 -116.59664373 547.27857242 -87.5625 558.25 C-88.27062492 561.95403803 -89.1480299 565.59211958 -90.0625 569.25 C-91.62021424 575.89878029 -92.23927586 582.44000168 -92.5625 589.25 C-96.74243563 588.66842359 -100.36856726 587.70484907 -104.28125 586.1328125 C-105.91006104 585.47853271 -105.91006104 585.47853271 -107.57177734 584.81103516 C-108.72371582 584.33714355 -109.8756543 583.86325195 -111.0625 583.375 C-112.26213379 582.88177246 -113.46176758 582.38854492 -114.69775391 581.88037109 C-139.8859345 571.3772302 -163.15035996 558.20383977 -184.5625 541.25 C-186.05136719 540.08017578 -186.05136719 540.08017578 -187.5703125 538.88671875 C-204.92381593 524.96930788 -222.16664533 509.05271527 -235.5625 491.25 C-236.49801245 490.0424374 -237.43426685 488.83544939 -238.37109375 487.62890625 C-287.85194375 423.37313342 -308.98179972 342.40583881 -299.171875 262.05029297 C-288.44395859 184.38464815 -247.90328212 111.19744107 -185.22070312 63.51416016 C-183.67561696 62.3362367 -182.14201114 61.14329638 -180.609375 59.94921875 C-138.11211026 27.26348098 -85.78848674 7.00844422 -32.5625 1.25 C-31.30336792 1.10860596 -31.30336792 1.10860596 -30.01879883 0.96435547 C-20.03492475 -0.01847197 -10.0226185 0.00639274 0 0 Z " fill="#46C752" transform="translate(1415.5625,345.75)"/>
<path d="M0 0 C12.87 0 25.74 0 39 0 C39.02187378 6.39125244 39.02187378 6.39125244 39.04418945 12.91162109 C39.0944276 26.95739712 39.16085135 41.00306168 39.23571491 55.04872704 C39.28072596 63.56827942 39.32012822 72.08778951 39.34643555 80.60742188 C39.3693728 88.03108632 39.40272254 95.4546175 39.44870156 102.87817633 C39.47269179 106.8107761 39.49138239 110.74324342 39.49761391 114.67591476 C39.50363876 118.37449169 39.52354315 122.07272946 39.55427551 125.77118111 C39.56731688 127.78178596 39.56547871 129.7924699 39.5632782 131.80311584 C39.57581635 132.99226089 39.58835449 134.18140594 39.60127258 135.40658569 C39.60818603 136.96349404 39.60818603 136.96349404 39.61523914 138.55185509 C39.74221023 139.35974291 39.86918131 140.16763073 40 141 C46.70780983 145.47187322 56.27756087 144.15137472 64.0625 144.125 C65.78049805 144.13080078 65.78049805 144.13080078 67.53320312 144.13671875 C76.76970377 144.80445934 76.76970377 144.80445934 85 142 C85.12512144 139.32297564 85.18606569 136.67047727 85.20532227 133.99194336 C85.21522186 133.15299026 85.22512146 132.31403717 85.23532104 131.44966125 C85.26703185 128.6630846 85.29173114 125.87649087 85.31640625 123.08984375 C85.33696752 121.16312708 85.35796376 119.23641501 85.37937927 117.30970764 C85.43468542 112.228177 85.48405688 107.14660508 85.53222656 102.06500244 C85.59119065 95.97351292 85.65746542 89.88209916 85.72252655 83.7906723 C85.82064349 74.52716097 85.90942598 65.263602 86 56 C98.87 56 111.74 56 125 56 C125.03738281 62.11273437 125.07476563 68.22546875 125.11328125 74.5234375 C125.143545 78.38804946 125.17468233 82.25261445 125.20898438 86.1171875 C125.26338739 92.25583591 125.31449368 98.39439141 125.34643555 104.53320312 C125.37237984 109.48056105 125.41271852 114.42760849 125.46318626 119.37477493 C125.47991528 121.26543959 125.49139182 123.15615802 125.49761391 125.04688644 C125.50718975 127.68832976 125.53516923 130.3289678 125.56762695 132.97021484 C125.56547432 134.15164818 125.56547432 134.15164818 125.5632782 135.35694885 C125.57000028 137.75390488 125.57000028 137.75390488 126 141 C132.70780983 145.47187322 142.27756087 144.15137472 150.0625 144.125 C151.78049805 144.13080078 151.78049805 144.13080078 153.53320312 144.13671875 C162.76970377 144.80445934 162.76970377 144.80445934 171 142 C171.12512144 139.32297564 171.18606569 136.67047727 171.20532227 133.99194336 C171.21522186 133.15299026 171.22512146 132.31403717 171.23532104 131.44966125 C171.26703185 128.6630846 171.29173114 125.87649087 171.31640625 123.08984375 C171.33696752 121.16312708 171.35796376 119.23641501 171.37937927 117.30970764 C171.43468542 112.228177 171.48405688 107.14660508 171.53222656 102.06500244 C171.59119065 95.97351292 171.65746542 89.88209916 171.72252655 83.7906723 C171.82064349 74.52716097 171.90942598 65.263602 172 56 C184.87 56 197.74 56 211 56 C211.03738281 62.11273437 211.07476563 68.22546875 211.11328125 74.5234375 C211.143545 78.38804946 211.17468233 82.25261445 211.20898438 86.1171875 C211.26338739 92.25583591 211.31449368 98.39439141 211.34643555 104.53320312 C211.37237984 109.48056105 211.41271852 114.42760849 211.46318626 119.37477493 C211.47991528 121.26543959 211.49139182 123.15615802 211.49761391 125.04688644 C211.50718975 127.68832976 211.53516923 130.3289678 211.56762695 132.97021484 C211.56547432 134.15164818 211.56547432 134.15164818 211.5632782 135.35694885 C211.57000028 137.75390488 211.57000028 137.75390488 212 141 C222.07816174 147.7187745 255.05625981 144.91589314 258 145 C258 119.59 258 94.18 258 68 C270.87 68 283.74 68 297 68 C297 93.41 297 118.82 297 145 C313.71473246 144.34918849 313.71473246 144.34918849 322 139 C326.33414874 132.55791679 325.47820487 124.82505542 325.51171875 117.31640625 C325.52858418 115.89149954 325.54673692 114.46660753 325.56611633 113.04173279 C325.61342067 109.31166176 325.64335587 105.58165039 325.66955566 101.85137939 C325.70472876 97.36489537 325.76168524 92.87864033 325.81494904 88.39234161 C325.89323343 81.59492434 325.94401129 74.79780206 326 68 C339.2 68 352.4 68 366 68 C366.02106449 75.21809988 366.04108923 82.43608613 366.05175018 89.65419006 C366.05699504 93.01671179 366.06453957 96.37918824 366.07543945 99.74169922 C366.08767164 103.61426461 366.09326631 107.4867937 366.09765625 111.359375 C366.10281754 112.544245 366.10797882 113.72911499 366.11329651 114.94989014 C366.1137867 122.3502168 365.7390027 129.63647257 365 137 C365.57524414 137.37390869 366.15048828 137.74781738 366.74316406 138.13305664 C367.40541992 138.56352295 368.06767578 138.99398926 368.75 139.4375 C373.84004177 142.74602715 377.90754161 143.41304803 384 143 C389.78266602 141.23579681 392.13678365 139.2856399 395 134 C395.38747659 131.25045648 395.56538352 128.9002953 395.54589844 126.15869141 C395.55623611 125.39703674 395.56657379 124.63538208 395.57722473 123.85064697 C395.60655712 121.3507339 395.60814982 118.85163382 395.609375 116.3515625 C395.62436318 114.61134303 395.64109167 112.87113774 395.65948486 111.13095093 C395.70309926 106.56401908 395.7231443 101.99727911 395.73822021 97.43017578 C395.76126098 91.94337056 395.81368384 86.45677629 395.86116028 80.97013855 C395.92990487 72.64670406 395.96140994 64.3238749 396 56 C409.2 56 422.4 56 436 56 C436.08021762 72.15939363 436.08021762 72.15939363 436.09765625 79.1328125 C436.10953784 83.8613747 436.12347875 88.58985829 436.15087891 93.31835938 C436.17286661 97.13742296 436.18462226 100.95640206 436.18975449 104.77552414 C436.19340435 106.22091372 436.20052896 107.66629952 436.21146011 109.11165237 C436.35852578 129.3935542 433.78697514 148.0469335 419.9375 163.75 C411.1861349 171.91138543 399.17418385 175.94669011 387.40625 176.0234375 C373.10282883 175.47106961 362.71989241 170.81326161 351 163 C350.113125 163.886875 349.22625 164.77375 348.3125 165.6875 C334.11287238 177.74862948 313.09559244 176.31475485 295.6328125 176.30078125 C293.58364782 176.30467921 291.53448393 176.30901609 289.48532104 176.31376648 C285.21072763 176.32118459 280.93621688 176.3209695 276.66162109 176.31567383 C271.22660357 176.30988282 265.79192723 176.32682319 260.35696602 176.3500185 C256.13062617 176.36486156 251.90436653 176.36561331 247.67800522 176.36250877 C245.67605794 176.36301661 243.67410551 176.3681513 241.67218399 176.37832069 C213.67514323 176.50312894 213.67514323 176.50312894 201 170 C198.41820659 170.1395564 196.33452342 170.88683408 193.8984375 171.7109375 C193.12757813 171.97132813 192.35671875 172.23171875 191.5625 172.5 C190.48162109 172.88671875 190.48162109 172.88671875 189.37890625 173.28125 C177.23950982 176.94898226 163.29647476 176.11400808 150.75 176.1875 C148.99308838 176.20695679 148.99308838 176.20695679 147.20068359 176.22680664 C136.59679273 176.23800951 126.89923313 175.32569031 117.25390625 170.70703125 C112.53428504 169.22652616 107.84764738 171.68241596 103.37890625 173.28125 C91.41318627 176.89650858 77.68702182 176.11183305 65.3125 176.1875 C64.19721924 176.20047119 63.08193848 176.21344238 61.93286133 176.22680664 C51.20210363 176.23864465 40.97560372 175.43509564 31.21875 170.70703125 C26.53069539 169.21312652 21.82102994 171.6919392 17.37890625 173.28125 C5.41318627 176.89650858 -8.31297818 176.11183305 -20.6875 176.1875 C-21.80278076 176.20047119 -22.91806152 176.21344238 -24.06713867 176.22680664 C-34.62239725 176.23845104 -44.88494637 175.61598572 -54.390625 170.70703125 C-61.21421161 168.8581253 -69.11907424 171.55849255 -75.875 173 C-82.90916075 174.44773518 -89.80541273 175.73180631 -97 176 C-97.82628906 176.03996094 -98.65257812 176.07992187 -99.50390625 176.12109375 C-117.75830676 176.58357484 -137.07883602 173.61870364 -150.8125 160.625 C-160.41619831 150.27735323 -164.08796524 137.24754705 -164.23828125 123.3203125 C-164.246353 122.58988739 -164.25442474 121.85946228 -164.26274109 121.10690308 C-164.27651732 119.56217775 -164.28726811 118.01742281 -164.29516602 116.47265625 C-164.30659051 114.925362 -164.32688784 113.3781041 -164.35668945 111.83105469 C-164.64535223 96.7947879 -163.14009248 82.53154785 -154 70 C-153.278125 68.948125 -152.55625 67.89625 -151.8125 66.8125 C-138.97315265 53.97315265 -121.8847664 50.85256402 -104.4375 50.6875 C-84.08371013 50.77366455 -64.24654244 54.87672878 -46 64 C-45.67 89.74 -45.34 115.48 -45 142 C-36.68020762 143.74195007 -36.68020762 143.74195007 -28.58203125 144.23046875 C-26.91817383 144.22756836 -26.91817383 144.22756836 -25.22070312 144.22460938 C-24.09599609 144.21236328 -22.97128906 144.20011719 -21.8125 144.1875 C-20.67619141 144.18685547 -19.53988281 144.18621094 -18.36914062 144.18554688 C-9.1789083 144.80166465 -9.1789083 144.80166465 -1 142 C-0.89131838 140.16541825 -0.85311584 138.3266395 -0.84178162 136.48887634 C-0.8319928 135.2926918 -0.82220398 134.09650726 -0.81211853 132.86407471 C-0.80621359 131.52648966 -0.80040319 130.18890419 -0.79467773 128.85131836 C-0.78510447 127.45217089 -0.77509472 126.05302634 -0.76467896 124.65388489 C-0.737564 120.84416691 -0.71659025 117.03443646 -0.69667697 113.22467494 C-0.67485792 109.24746201 -0.64744933 105.27028781 -0.62062073 101.29310608 C-0.57063848 93.7566427 -0.52572025 86.22015788 -0.48259836 78.68365246 C-0.43327316 70.10577421 -0.3783376 61.52793481 -0.32291877 52.9500941 C-0.20901382 35.30009714 -0.10293416 17.65006459 0 0 Z M-121 90 C-125.53824914 97.45569501 -125.20839409 105.28319748 -125.25 113.75 C-125.270625 114.78382813 -125.29125 115.81765625 -125.3125 116.8828125 C-125.34864716 124.05802422 -125.22062937 132.22140656 -120.34277344 137.94433594 C-114.17000369 143.74564697 -107.56536623 144.32543263 -99.4375 144.25 C-98.60025391 144.25773437 -97.76300781 144.26546875 -96.90039062 144.2734375 C-96.08634766 144.27085937 -95.27230469 144.26828125 -94.43359375 144.265625 C-93.33615845 144.26224121 -93.33615845 144.26224121 -92.21655273 144.25878906 C-89.4538607 144.03405112 -89.4538607 144.03405112 -85 142 C-85 123.19 -85 104.38 -85 85 C-104.25836128 81.47299132 -104.25836128 81.47299132 -121 90 Z " fill="#055E46" transform="translate(605,501)"/>
<path d="M0 0 C7.28907819 5.18308449 13.36184082 11.94957603 15 21 C15.80789419 32.25754205 15.06675258 41.30469019 7.75 50.3125 C2.20237165 56.18018383 -3.28161357 58.84965396 -11 61 C-11.15014483 86.22712305 -11.23092976 111.45365907 -11.23059464 136.68124866 C-11.23203179 148.39666458 -11.25561562 160.11123231 -11.33251953 171.82641602 C-11.39954246 182.04513456 -11.42380654 192.26293843 -11.39809489 202.48185939 C-11.38595415 207.88620329 -11.39429249 213.28866031 -11.4539566 218.69272804 C-12.86449275 248.7646161 -12.86449275 248.7646161 0.58294392 274.45379162 C2.69340193 276.75659947 4.26467058 279.35099931 5.890625 282.0078125 C7.00946364 283.71416693 8.12924595 285.41990301 9.25 287.125 C11.83551696 291.08190873 14.41767145 295.04100991 17 299 C17.53672333 299.82186798 17.53672333 299.82186798 18.08428955 300.66033936 C20.67036054 304.62131229 23.24347651 308.59044807 25.8125 312.5625 C26.84455566 314.141521 26.84455566 314.141521 27.89746094 315.75244141 C28.53586914 316.7429248 29.17427734 317.7334082 29.83203125 318.75390625 C30.39639893 319.62345947 30.9607666 320.4930127 31.54223633 321.38891602 C35.3840331 328.27017819 35.26581856 334.47279071 35.1953125 342.1796875 C35.1924826 343.3475882 35.18965271 344.51548889 35.18673706 345.71878052 C35.17556973 349.43762591 35.15047104 353.15622777 35.125 356.875 C35.11496576 359.40103818 35.10584069 361.92708015 35.09765625 364.453125 C35.07564165 370.63549933 35.04219815 376.81773226 35 383 C36.41817017 383.2160791 36.41817017 383.2160791 37.86499023 383.43652344 C44.50967655 384.63081796 49.57240772 389.08045303 54 394 C55.051875 395.11375 55.051875 395.11375 56.125 396.25 C61.67137201 404.38467895 61.93110733 413.38553221 61 423 C60.13094846 426.37309835 58.85102165 429.06150313 57 432 C56.38125 433.04414062 56.38125 433.04414062 55.75 434.109375 C50.85803439 441.50291393 43.43018821 445.64340355 35 448 C25.29140101 449.07180939 16.74673553 447.77668559 8.52734375 442.375 C0.93621388 436.2919577 -3.79407108 428.06354255 -5 418.375 C-5.37854922 407.82104778 -2.48340215 399.11307513 4.6328125 391.1796875 C8.84731888 387.2788188 15.07023809 383 21 383 C20.88040492 377.54131127 20.75609249 372.08275614 20.62768555 366.62426758 C20.58476876 364.77305916 20.5430702 362.92182203 20.50268555 361.07055664 C20.38767564 355.81843752 20.25197785 350.56778672 20.07629395 345.31732178 C20.00755757 343.22955053 19.9507928 341.1413934 19.89550781 339.05322266 C19.58812805 332.40446485 18.75923519 327.99811025 14.625 322.75 C13.70779992 321.48309766 12.79250649 320.21481324 11.87890625 318.9453125 C11.40340332 318.30110352 10.92790039 317.65689453 10.43798828 316.99316406 C8.0088863 313.62623901 5.79576153 310.123536 3.5625 306.625 C2.63730598 305.18972546 1.71152161 303.7548313 0.78515625 302.3203125 C0.32512207 301.60649414 -0.13491211 300.89267578 -0.60888672 300.15722656 C-2.90153274 296.60197555 -5.20116721 293.05125229 -7.5 289.5 C-7.94641846 288.8097876 -8.39283691 288.1195752 -8.8527832 287.40844727 C-11.26576611 283.67771457 -13.6817605 279.94897018 -16.1015625 276.22265625 C-16.60751953 275.44277344 -17.11347656 274.66289063 -17.63476562 273.859375 C-18.60918076 272.35752415 -19.58440775 270.85619965 -20.56054688 269.35546875 C-24.18593925 263.76476027 -25.14992753 260.70862267 -25.15821838 254.12875366 C-25.16562535 252.89499935 -25.16562535 252.89499935 -25.17318195 251.63632071 C-25.18860857 248.86480837 -25.1969315 246.09331928 -25.20532227 243.32177734 C-25.21489674 241.34120985 -25.22490656 239.36064443 -25.23532104 237.38008118 C-25.2624229 231.9898888 -25.28340382 226.59968762 -25.30332303 221.20946455 C-25.32515008 215.58132785 -25.35255478 209.95321846 -25.37937927 204.32510376 C-25.42935063 193.66143753 -25.47427294 182.99775618 -25.51740164 172.33406031 C-25.5667361 160.1963792 -25.62166826 148.05872546 -25.67708123 135.92107081 C-25.79096946 110.94740608 -25.89779356 85.97371508 -26 61 C-26.62122742 60.73069168 -27.24245483 60.46138336 -27.88250732 60.18391418 C-28.6956842 59.82778549 -29.50886108 59.4716568 -30.34667969 59.10473633 C-31.1535321 58.75292801 -31.96038452 58.40111969 -32.79168701 58.03865051 C-40.09666767 54.60285045 -46.08259313 47.7119254 -49.1015625 40.29296875 C-51.49086604 31.53565184 -51.34099117 21.61917335 -47.4375 13.375 C-42.52741911 4.98071652 -36.51844722 -0.55937116 -27.20703125 -3.58203125 C-18.0327414 -5.31946313 -8.07733334 -4.91844483 0 0 Z M-31.57421875 15.71875 C-35.85298637 21.50550735 -36.93092615 26.85937331 -36 34 C-33.76732094 39.64906297 -30.3453242 43.0949325 -25 46 C-19.50011677 47.83329441 -14.0913828 47.80919559 -8.75 45.4375 C-3.70532598 42.61812131 -0.80393972 38.41181916 1 33 C1.56724124 27.2730452 1.24381086 22.92164406 -2 18 C-5.68361726 13.7190394 -9.37201464 10.55296431 -15.1015625 9.6796875 C-21.54224909 9.34769335 -27.12361365 10.85952855 -31.57421875 15.71875 Z M15.91796875 400.8828125 C10.9901082 406.32252822 9.67639595 410.20220998 9.79296875 417.50390625 C10.22765279 422.74471946 12.56790883 425.80365061 16.3125 429.25 C20.85904104 432.86635102 24.6748631 434.25490023 30.5 433.875 C36.04941812 433.07289923 39.46749691 430.66021168 43.25 426.5625 C46.65271446 421.57995383 47.89238825 417.04593039 47 411 C45.13026997 405.24208139 42.17205011 401.25647599 37 398 C29.38275987 395.17111014 22.14383465 395.25266735 15.91796875 400.8828125 Z " fill="#46C752" transform="translate(1433,436)"/>
<path d="M0 0 C0.33 0 0.66 0 1 0 C0.85872938 15.72920989 0.71272886 31.45837308 0.5625 47.1875 C0.54596815 48.91885004 0.54596815 48.91885004 0.52910233 50.68517685 C0.19882107 85.12783108 -0.19857711 119.56458478 -1 154 C0.10537109 154.14171631 1.21074219 154.28343262 2.34960938 154.42944336 C9.78131583 155.59102027 15.78799087 160.89792033 20.4921875 166.59765625 C25.31635816 174.28383489 27.2814621 183.51855531 25.52734375 192.390625 C23.26623513 201.21842631 18.85061072 208.52548715 11.26171875 213.71484375 C1.97993565 218.98894848 -6.77952431 220.51270143 -17.125 217.875 C-25.80877207 214.9622614 -32.70386594 208.70169773 -37.2578125 200.82421875 C-40.90877082 193.02444416 -41.35044361 184.5079891 -39.3046875 176.1640625 C-35.93001356 166.94751604 -30.92043622 161.03127977 -22.46484375 156.12890625 C-19.95725476 154.98042254 -17.70101713 154.49444158 -15 154 C-15.00222061 153.30353363 -15.00444122 152.60706726 -15.00672913 151.88949585 C-15.05816888 134.88827206 -15.06506066 117.88760295 -15.02334595 100.88635254 C-15.00409996 92.60342456 -15.0000106 84.32099148 -15.03076172 76.03808594 C-15.05771239 68.76432417 -15.05638511 61.49119723 -15.02174091 54.21745872 C-15.00434601 50.35964353 -15.00084059 46.50296323 -15.03103638 42.64520264 C-15.05906078 39.00746461 -15.04927891 35.37173267 -15.01126289 31.73410416 C-15.00037108 29.77003916 -15.02890385 27.80587781 -15.05882263 25.8420105 C-14.95599904 19.57161175 -14.6048238 15.85302841 -10.06616211 11.30175781 C-8.7231665 10.18608442 -7.36936032 9.08315126 -6 8 C-4.80902952 6.53558089 -3.64536409 5.04607224 -2.5625 3.5 C-1.72874601 2.3186592 -0.8811566 1.14641827 0 0 Z M-19.76171875 171.5859375 C-23.63551529 175.88181841 -25.77214715 179.53918925 -26.3125 185.375 C-25.77242681 191.63984897 -23.29103703 196.44890012 -19 201 C-13.73849734 204.35042813 -7.05069088 204.16200919 -1 204 C4.24137066 201.70115322 8.42211413 197.15577173 11 192 C11.73902134 185.13765898 11.76082233 179.3039721 7.54296875 173.62109375 C3.24523996 169.10575844 -1.55431179 167.3200584 -7.734375 166.91015625 C-12.48655083 167.0986046 -16.20724568 168.3861236 -19.76171875 171.5859375 Z " fill="#46C752" transform="translate(1395,744)"/>
<path d="M0 0 C5.61 0 11.22 0 17 0 C17.33 10.56 17.66 21.12 18 32 C20.97 29.525 20.97 29.525 24 27 C30.19324395 23.85105415 37.65804933 24.00828001 44.25 26 C50.14152249 28.56468741 54.26956365 33.93540139 56.875 39.6875 C58.98986317 45.91459712 59.21319707 51.65957969 59.25 58.1875 C59.270625 59.08275391 59.29125 59.97800781 59.3125 60.90039062 C59.36364252 69.75443994 57.701137 77.99574597 52 85 C45.41274182 91.30085565 39.81174705 92.46772979 30.9140625 92.32421875 C25.53732789 91.72600297 21.5157584 89.13618635 18 85 C17.67 86.98 17.34 88.96 17 91 C11.39 91 5.78 91 0 91 C0 60.97 0 30.94 0 0 Z M18 43 C15.77622736 47.44754528 16.68046838 53.4287609 16.625 58.3125 C16.58761719 59.54935547 16.55023437 60.78621094 16.51171875 62.06054688 C16.12778579 69.26316171 16.12778579 69.26316171 19.3984375 75.29296875 C24.02710964 78.33010047 27.53226544 78.53066401 33 78 C36.73698169 76.37522535 38.84763317 74.44378693 41 71 C42.37473284 66.87580148 42.22391707 63.00748491 42.25 58.6875 C42.270625 57.84509766 42.29125 57.00269531 42.3125 56.13476562 C42.34996726 50.14468815 41.43150728 45.93807129 37.5 41.1875 C34.15641737 38.54049709 30.35898099 38.67386639 26.29296875 38.70703125 C22.79524527 39.15392948 20.64134031 40.75486073 18 43 Z " fill="#055E46" transform="translate(696,777)"/>
<path d="M0 0 C4.10570813 1.46764276 7.48440354 3.47994875 11.11328125 5.88671875 C11.97314888 6.45686455 11.97314888 6.45686455 12.85038757 7.03852844 C14.05959255 7.84230577 15.26723411 8.64843951 16.47338867 9.45678711 C18.29170435 10.67358378 20.1170693 11.87920017 21.94335938 13.08398438 C36.71964192 22.89932415 46.22135175 31.98203884 50 50 C51.34565637 62.03530863 48.17483711 73.60737555 41.25 83.5 C40.8375 83.995 40.425 84.49 40 85 C25.4328713 82.73958348 11.97191211 74.43229501 2.56640625 63.171875 C-6.18860095 51.03276278 -7.51149394 37.51080833 -6 23 C-4.55215567 15.19654491 -2.34659052 7.57545156 0 0 Z " fill="#46C752" transform="translate(1349,567)"/>
<path d="M0 0 C5.82059616 18.55037325 11.35425802 38.28348698 1.875 56.75 C-6.67858429 70.48680104 -18.97756583 78.6958704 -34 84 C-35.99045288 84.3862751 -37.98940943 84.73801396 -40 85 C-47.67526638 73.10209516 -51.47035933 61.81271953 -49.4375 47.4375 C-46.93628627 35.87783655 -40.67793412 26.2366012 -31 19.5 C-30.41766602 19.09346191 -29.83533203 18.68692383 -29.23535156 18.26806641 C-27.16546251 16.83249819 -25.08389732 15.41515735 -23 14 C-21.67838867 13.09846191 -21.67838867 13.09846191 -20.33007812 12.17871094 C-17.47540604 10.23608405 -14.61429022 8.30341367 -11.75 6.375 C-10.35587891 5.43237305 -10.35587891 5.43237305 -8.93359375 4.47070312 C-7.62841797 3.59961914 -7.62841797 3.59961914 -6.296875 2.7109375 C-5.51666992 2.18806152 -4.73646484 1.66518555 -3.93261719 1.12646484 C-2 0 -2 0 0 0 Z " fill="#46C752" transform="translate(1480,567)"/>
<path d="M0 0 C-3.22787314 15.87037625 -11.0647352 30.8633856 -24.4375 40.375 C-40.5334167 50.32571558 -57.18122253 49.14242868 -74.91796875 45.0703125 C-78.06883282 44.29173722 -81.02707633 43.32262335 -84 42 C-82.29550465 37.072637 -79.60544355 32.84470174 -76.875 28.4375 C-76.38290039 27.64045654 -75.89080078 26.84341309 -75.38378906 26.0222168 C-73.92957948 23.67698452 -72.46686431 21.33733383 -71 19 C-70.6090918 18.37448242 -70.21818359 17.74896484 -69.81542969 17.10449219 C-61.33682007 3.62666598 -52.32544305 -4.9444844 -36.546875 -8.5625 C-23.10572916 -10.87140849 -11.40219006 -6.93558411 0 0 Z " fill="#46C752" transform="translate(1390,715)"/>
<path d="M0 0 C8.27365018 6.47193839 14.31467489 14.01653416 19.9375 22.8125 C20.38810791 23.51117187 20.83871582 24.20984375 21.30297852 24.9296875 C22.39175061 26.69477566 23.36250436 28.53150626 24.3125 30.375 C23.9825 31.365 23.6525 32.355 23.3125 33.375 C20.81975307 34.29412951 18.46981825 35.00062024 15.90234375 35.63671875 C15.14264786 35.83223831 14.38295197 36.02775787 13.60023499 36.22920227 C11.980192 36.64158117 10.35840475 37.04715689 8.73510742 37.4465332 C6.30574524 38.0486828 3.88679454 38.68367238 1.46679688 39.32226562 C-13.89513424 43.24386732 -29.01606347 45.00840637 -43.40234375 36.83203125 C-53.11899805 30.44680128 -60.44514658 21.92397241 -63.4375 10.515625 C-63.920738 8.13970481 -64.34538684 5.7748983 -64.6875 3.375 C-44.05098336 -7.63939269 -20.95708815 -14.26005723 0 0 Z " fill="#46C752" transform="translate(1517.6875,710.625)"/>
<path d="M0 0 C0.87881836 0.00757324 1.75763672 0.01514648 2.66308594 0.02294922 C12.43560166 0.27152602 21.13147601 3.19883264 28.0625 10.4375 C28.77734375 12.625 28.77734375 12.625 29.0625 14.4375 C27.46673801 15.94643816 25.86060089 17.44441076 24.25 18.9375 C23.35667969 19.7728125 22.46335937 20.608125 21.54296875 21.46875 C19.0625 23.4375 19.0625 23.4375 16.0625 23.4375 C16.0625 22.7775 16.0625 22.1175 16.0625 21.4375 C14.73991528 20.74975595 13.40263497 20.09038627 12.0625 19.4375 C11.0725 18.90125 10.0825 18.365 9.0625 17.8125 C3.46371461 15.45448023 -3.23917036 15.34652706 -9.04296875 17.05859375 C-10.9739921 17.97072456 -10.9739921 17.97072456 -12.9375 20.4375 C-13.66446867 23.25306121 -13.77697061 25.64653277 -12.9375 28.4375 C-10.5996052 32.00411792 -8.07072795 32.82538533 -4.0859375 33.74609375 C-2.16437802 34.13703171 -0.23969273 34.51285156 1.6875 34.875 C10.40385409 36.51746944 19.93938707 38.47537613 26.0625 45.4375 C30.92017791 52.72401686 30.75355813 59.96760807 30.0625 68.4375 C28.43279802 75.65769864 24.17248056 80.44012289 18.0625 84.4375 C8.25733184 89.90638917 -4.55030046 90.12133481 -15.3125 87.375 C-22.85083379 84.64671796 -30.16405839 80.68549675 -33.9375 73.4375 C-32.3699482 71.7353302 -30.78290216 70.05109446 -29.1875 68.375 C-28.30578125 67.43527344 -27.4240625 66.49554687 -26.515625 65.52734375 C-23.9375 63.4375 -23.9375 63.4375 -21.8515625 63.4453125 C-19.69537268 64.5630109 -17.93986671 65.83314661 -16.0625 67.375 C-10.05356328 71.98959781 -4.42953622 73.29596248 3.0625 72.4375 C7.17196273 71.30117129 9.63025944 70.08586084 12.0625 66.4375 C12.41543451 64.25721604 12.41543451 64.25721604 12.375 61.9375 C12.39175781 61.1640625 12.40851563 60.390625 12.42578125 59.59375 C12.21102233 57.40331216 12.21102233 57.40331216 10.9140625 55.75 C8.40539835 53.97170642 6.13399956 53.55024173 3.125 52.9375 C1.97 52.69 0.815 52.4425 -0.375 52.1875 C-1.550625 51.94 -2.72625 51.6925 -3.9375 51.4375 C-22.2887579 47.28249821 -22.2887579 47.28249821 -28.13671875 39.9296875 C-32.17673342 33.38061109 -31.71878909 25.8597464 -30.9375 18.4375 C-29.30311033 11.8999413 -24.5850406 6.93950712 -18.9375 3.4375 C-12.66648349 0.67272159 -6.80467286 -0.08234621 0 0 Z " fill="#055E46" transform="translate(481.9375,780.5625)"/>
<path d="M0 0 C5.28 0 10.56 0 16 0 C16.33 10.89 16.66 21.78 17 33 C19.64 30.69 22.28 28.38 25 26 C31.10317177 23.96560941 38.48083505 23.91953637 44.4375 26.5 C49.20999241 29.32777617 52.00417089 33.54642145 53.52905273 38.83477783 C54.99155744 44.86324688 55.26339381 50.5370543 55.1953125 56.72265625 C55.1924826 57.70874374 55.18965271 58.69483124 55.18673706 59.71080017 C55.17563505 62.82816237 55.15054945 65.94522617 55.125 69.0625 C55.11495729 71.18944895 55.10583371 73.31640244 55.09765625 75.44335938 C55.07572848 80.6290194 55.04126846 85.81445929 55 91 C49.39 91 43.78 91 38 91 C37.98541748 89.66300049 37.97083496 88.32600098 37.95581055 86.94848633 C37.89777876 81.98158201 37.82054565 77.01512871 37.73754883 72.04858398 C37.70432254 69.90022102 37.67628347 67.75177125 37.65356445 65.60327148 C37.61997669 62.51248224 37.56765779 59.42248688 37.51171875 56.33203125 C37.50532883 55.37351761 37.4989389 54.41500397 37.49235535 53.42744446 C37.38446582 48.51889637 37.27562343 44.94129035 34 41 C30.80876226 39.40438113 27.47254909 39.6200858 24 40 C20.41447119 41.63687185 19.20684945 42.68972583 17 46 C16.6739632 48.11808281 16.6739632 48.11808281 16.68115234 50.47143555 C16.66128265 51.37214279 16.64141296 52.27285004 16.62094116 53.20085144 C16.60361435 54.65410576 16.60361435 54.65410576 16.5859375 56.13671875 C16.56657135 57.13129593 16.5472052 58.12587311 16.5272522 59.15058899 C16.46743841 62.3294719 16.42106361 65.50839098 16.375 68.6875 C16.3368219 70.84181273 16.29777027 72.99611017 16.2578125 75.15039062 C16.16173528 80.43346966 16.0777107 85.71662017 16 91 C10.72 91 5.44 91 0 91 C0 60.97 0 30.94 0 0 Z " fill="#055E46" transform="translate(977,777)"/>
<path d="M0 0 C6.54578489 6.73280731 7.32197708 13.63073055 7.28515625 22.8359375 C7.2837413 23.53772125 7.28232635 24.239505 7.28086853 24.96255493 C7.2753129 27.18341504 7.26276892 29.40417084 7.25 31.625 C7.24497926 33.13932145 7.24041736 34.6536445 7.23632812 36.16796875 C7.22535807 39.86201252 7.20812449 43.55599606 7.1875 47.25 C9.1675 47.25 11.1475 47.25 13.1875 47.25 C13.1875 51.87 13.1875 56.49 13.1875 61.25 C-0.06524725 61.69175824 -0.06524725 61.69175824 -4.8125 58.25 C-7.1875 55.5625 -7.1875 55.5625 -8.8125 53.25 C-9.17601562 53.73210938 -9.53953125 54.21421875 -9.9140625 54.7109375 C-10.41679688 55.34257813 -10.91953125 55.97421875 -11.4375 56.625 C-11.92476562 57.25148438 -12.41203125 57.87796875 -12.9140625 58.5234375 C-17.8362487 62.99999368 -24.33010075 62.67387228 -30.61328125 62.56640625 C-36.41752197 61.99236046 -40.10944758 59.95305242 -44.1875 55.875 C-47.46201204 50.58540362 -48.5807269 45.44382934 -47.8125 39.25 C-46.13496698 34.04081852 -44.05199257 30.71867574 -39.8125 27.25 C-32.56009858 23.55786837 -25.89469278 23.09983601 -17.9375 23.1875 C-17.15375 23.19201172 -16.37 23.19652344 -15.5625 23.20117188 C-13.64579986 23.21285907 -11.72913952 23.23079092 -9.8125 23.25 C-10.06870684 21.6434324 -10.34305871 20.0397517 -10.625 18.4375 C-10.77582031 17.54417969 -10.92664063 16.65085937 -11.08203125 15.73046875 C-11.8828559 13.01109092 -12.56706131 11.94080995 -14.8125 10.25 C-20.05285197 8.93991201 -23.81391682 9.21354019 -28.8125 11.25 C-29.699375 12.136875 -30.58625 13.02375 -31.5 13.9375 C-32.263125 14.700625 -33.02625 15.46375 -33.8125 16.25 C-37.21009567 15.95818197 -39.08734166 14.42466235 -41.5625 12.1875 C-42.48289062 11.36572266 -42.48289062 11.36572266 -43.421875 10.52734375 C-43.88078125 10.10582031 -44.3396875 9.68429687 -44.8125 9.25 C-43.84250627 4.37939316 -41.17828577 1.83777568 -37.06640625 -0.921875 C-26.18502582 -7.3805008 -10.65570489 -6.63021638 0 0 Z M-30.8125 39.25 C-31.35443621 42.56935931 -31.13153468 44.4630478 -29.875 47.5625 C-26.54931349 50.28351624 -23.02294588 50.43852743 -18.8125 50.25 C-14.66625799 49.22710414 -12.23708696 47.88688043 -9.8125 44.25 C-9.57099227 41.73415109 -9.57099227 41.73415109 -9.6875 39.0625 C-9.70554687 38.16144531 -9.72359375 37.26039063 -9.7421875 36.33203125 C-9.76539063 35.64496094 -9.78859375 34.95789063 -9.8125 34.25 C-12.37678515 34.11440325 -14.93385216 34.01566812 -17.5 33.9375 C-18.5818457 33.8746582 -18.5818457 33.8746582 -19.68554688 33.81054688 C-25.07823584 33.68742612 -27.42148242 34.7462019 -30.8125 39.25 Z " fill="#055E46" transform="translate(942.8125,806.75)"/>
<path d="M0 0 C6.35170821 5.01512902 10.1388011 11.70532482 11.84765625 19.59375 C12.93805076 32.0603432 12.6870117 43.88716124 4.59765625 54.03125 C-0.58193277 59.46703374 -6.81134185 62.26024734 -14.25390625 62.83203125 C-23.96277262 63.03654174 -31.64841503 62.11436702 -39.02734375 55.40625 C-47.87183443 45.7273734 -47.92021619 33.39310643 -47.36572266 21.02539062 C-46.68130809 13.22588369 -43.44452001 7.41812885 -37.90234375 2.03125 C-27.2704181 -6.37986223 -11.51967806 -7.52646842 0 0 Z M-26.15234375 11.59375 C-31.00693064 16.95384145 -30.75855368 22.09274564 -30.65234375 29.09375 C-30.6678125 30.11339844 -30.68328125 31.13304687 -30.69921875 32.18359375 C-30.66752858 38.27602928 -30.28634215 42.00538421 -26.15234375 46.59375 C-22.05932729 49.16191719 -19.15594648 49.89617547 -14.46484375 49.09375 C-10.32193543 47.95744976 -8.36303496 46.37034748 -6.15234375 42.59375 C-4.68400672 38.18873891 -4.92740667 33.89596062 -4.90234375 29.28125 C-4.88171875 28.34345703 -4.86109375 27.40566406 -4.83984375 26.43945312 C-4.80452728 20.17519458 -5.35231783 15.49377685 -9.90234375 10.78125 C-15.80661844 7.66510502 -20.5046895 8.29040506 -26.15234375 11.59375 Z " fill="#055E46" transform="translate(821.15234375,806.40625)"/>
<path d="M0 0 C5.28 0 10.56 0 16 0 C16.01458252 1.26593994 16.02916504 2.53187988 16.04418945 3.83618164 C16.10236122 8.55342204 16.17959293 13.27019451 16.26245117 17.98706055 C16.29561184 20.02474345 16.32367112 22.06251624 16.34643555 24.1003418 C16.38014462 27.03733463 16.43246874 29.97351023 16.48828125 32.91015625 C16.49467117 33.81459976 16.5010611 34.71904327 16.50764465 35.65089417 C16.6341957 41.15150255 17.35817462 45.13782667 20 50 C23.44388193 51.72194097 27.22688824 51.37796284 31 51 C34.76398568 49.2880813 34.76398568 49.2880813 37 46 C37.11786691 44.51987176 37.17692938 43.03483534 37.20532227 41.55029297 C37.22526749 40.62948944 37.24521271 39.70868591 37.26576233 38.75997925 C37.28247482 37.76410797 37.29918732 36.76823669 37.31640625 35.7421875 C37.33718735 34.72399933 37.35796844 33.70581116 37.37937927 32.6567688 C37.44489466 29.39624945 37.50376902 26.13564794 37.5625 22.875 C37.60568332 20.66796017 37.64929755 18.46092872 37.69335938 16.25390625 C37.8005781 10.83602225 37.90183996 5.41805539 38 0 C43.61 0 49.22 0 55 0 C55 21.45 55 42.9 55 65 C49.39 65 43.78 65 38 65 C37.505 61.535 37.505 61.535 37 58 C36.484375 58.763125 35.96875 59.52625 35.4375 60.3125 C31.72466239 64.40614146 28.4589661 65.75905433 23.08984375 66.28515625 C17.39436619 66.44748089 12.73271646 66.49319548 8 63 C3.28550346 58.49048157 0.29989877 54.26330966 -0.17370605 47.53062439 C-0.23120914 44.51061016 -0.22465089 41.49698583 -0.1953125 38.4765625 C-0.1924826 37.37524994 -0.18965271 36.27393738 -0.18673706 35.13925171 C-0.17557478 31.63438892 -0.15047711 28.12978508 -0.125 24.625 C-0.11496511 22.24349328 -0.10584015 19.86198255 -0.09765625 17.48046875 C-0.07564832 11.65354661 -0.04114537 5.82681716 0 0 Z " fill="#055E46" transform="translate(535,803)"/>
<path d="M0 0 C4.55677554 2.70943411 7.55040271 6.33468202 9.20065308 11.39390564 C10.59108268 17.44045819 10.82437666 23.19009582 10.7578125 29.37890625 C10.7549826 30.38718979 10.75215271 31.39547333 10.74923706 32.43431091 C10.73813177 35.62299983 10.71304545 38.81139741 10.6875 42 C10.67745772 44.17512612 10.66833406 46.35025669 10.66015625 48.52539062 C10.63822411 53.82953762 10.60376168 59.13346959 10.5625 64.4375 C4.9525 64.4375 -0.6575 64.4375 -6.4375 64.4375 C-6.45208252 63.10050049 -6.46666504 61.76350098 -6.48168945 60.38598633 C-6.53972124 55.41908201 -6.61695435 50.45262871 -6.69995117 45.48608398 C-6.73317746 43.33772102 -6.76121653 41.18927125 -6.78393555 39.04077148 C-6.81752331 35.94998224 -6.86984221 32.85998688 -6.92578125 29.76953125 C-6.93217117 28.81101761 -6.9385611 27.85250397 -6.94514465 26.86494446 C-7.06448661 21.43535614 -7.39896151 17.47603849 -11.4375 13.4375 C-15.71299129 12.9781497 -19.39626682 12.99442205 -23.375 14.6875 C-26.08836526 16.98974931 -27.2568023 19.0414642 -27.7159729 22.58892822 C-27.72929657 23.36170105 -27.74262024 24.13447388 -27.75634766 24.93066406 C-27.77621735 25.81127502 -27.79608704 26.69188599 -27.81655884 27.59918213 C-27.83388565 29.01188385 -27.83388565 29.01188385 -27.8515625 30.453125 C-27.87092865 31.42409119 -27.8902948 32.39505737 -27.9102478 33.39544678 C-27.96996509 36.49270886 -28.0163978 39.59000826 -28.0625 42.6875 C-28.10068698 44.78907859 -28.13973914 46.89064165 -28.1796875 48.9921875 C-28.27566031 54.14049868 -28.3597206 59.28888312 -28.4375 64.4375 C-33.7175 64.4375 -38.9975 64.4375 -44.4375 64.4375 C-44.4375 42.9875 -44.4375 21.5375 -44.4375 -0.5625 C-39.1575 -0.5625 -33.8775 -0.5625 -28.4375 -0.5625 C-28.1075 2.0775 -27.7775 4.7175 -27.4375 7.4375 C-27.06238281 6.95539062 -26.68726563 6.47328125 -26.30078125 5.9765625 C-25.78902344 5.34492187 -25.27726563 4.71328125 -24.75 4.0625 C-24.25113281 3.43601562 -23.75226562 2.80953125 -23.23828125 2.1640625 C-17.42180228 -3.41269174 -7.02700539 -3.11272292 0 0 Z " fill="#055E46" transform="translate(660.4375,803.5625)"/>
<path d="M0 0 C4.90440143 15.96192642 9.18687694 31.35226719 1.6875 47.25 C-5.32651477 60.18964794 -17.15864224 66.70298147 -31 71 C-31.66 71 -32.32 71 -33 71 C-33.96462975 69.29521409 -34.92141054 67.58598588 -35.875 65.875 C-36.40867187 64.92367187 -36.94234375 63.97234375 -37.4921875 62.9921875 C-41.83052298 54.38295181 -42.3734167 45.27401722 -40.3125 35.859375 C-36.36338679 24.07785394 -28.99561314 18.03625321 -18.97900391 11.32617188 C-16.91768715 9.94484044 -14.87062711 8.54393085 -12.82421875 7.140625 C-11.46694694 6.21757093 -10.10889436 5.29566371 -8.75 4.375 C-8.10619385 3.93687988 -7.4623877 3.49875977 -6.79907227 3.04736328 C-2.23416874 0 -2.23416874 0 0 0 Z " fill="#46C752" transform="translate(1470,507)"/>
<path d="M0 0 C5.87544247 2.15072031 10.67141875 5.6180116 15.8125 9.125 C16.77220703 9.764375 17.73191406 10.40375 18.72070312 11.0625 C26.26446069 16.19122528 34.06770682 21.7116663 37.9375 30.25 C38.31777344 31.05953125 38.69804688 31.8690625 39.08984375 32.703125 C42.31888786 40.85195734 42.45411111 51.33265795 39.25 59.5 C37.39455312 63.46270442 35.27431603 67.26362367 33 71 C17.87122735 67.1843361 6.79884666 61.02974205 -1.51953125 47.78125 C-9.23064417 33.2949376 -5.23915949 17.44638414 -0.8046875 2.60546875 C-0.53914063 1.74566406 -0.27359375 0.88585937 0 0 Z " fill="#46C752" transform="translate(1359,507)"/>
<path d="M0 0 C1.08809212 0.00212242 1.08809212 0.00212242 2.19816589 0.00428772 C4.50064325 0.00985694 6.8030211 0.02240364 9.10546875 0.03515625 C10.67252463 0.04017523 12.23958205 0.04473744 13.80664062 0.04882812 C17.63545464 0.05981627 21.46419486 0.07705952 25.29296875 0.09765625 C24.59911208 5.41655982 23.50161477 9.99204871 21.60546875 14.97265625 C21.33855225 15.67447021 21.07163574 16.37628418 20.79663086 17.09936523 C18.61946909 22.62630159 16.07703153 27.48224634 12.29296875 32.09765625 C11.7825 32.73058594 11.27203125 33.36351562 10.74609375 34.015625 C5.38277063 40.00466915 -1.90115435 43.39917642 -9.70703125 45.09765625 C-20.11864496 45.63906016 -29.70473868 45.3925291 -39.70703125 42.09765625 C-40.38394438 31.32345562 -38.73879245 21.64979825 -31.70703125 13.09765625 C-22.64265088 3.58657131 -13.02345546 -0.09657333 0 0 Z " fill="#46C752" transform="translate(1468.70703125,655.90234375)"/>
<path d="M0 0 C4.05325528 0.0698704 8.10568095 0.15828423 12.15820312 0.26245117 C13.53114244 0.29530044 14.90420387 0.32345067 16.27734375 0.34643555 C30.18315074 0.58531454 41.8588288 2.02185326 52.625 11.25 C61.70581815 21.76463154 63.34353949 30.23933487 63 44 C50.17741779 48.57949365 36.458928 48.72679832 24 43 C12.77343794 37.45799873 7.01522901 27.5160793 2.96484375 16.01953125 C1.2328462 10.59915024 -0.10812091 5.74023723 0 0 Z " fill="#46C752" transform="translate(1337,655)"/>
<path d="M0 0 C5.61 0 11.22 0 17 0 C17 25.41 17 50.82 17 77 C19.64 77 22.28 77 25 77 C25 81.62 25 86.24 25 91 C8.59930248 91.368555 8.59930248 91.368555 4.50390625 87.63671875 C0.16011152 82.67765565 -0.14425087 78.616462 -0.11352539 72.31567383 C-0.11374443 71.14458824 -0.11374443 71.14458824 -0.1139679 69.94984436 C-0.11327114 67.36887841 -0.10548982 64.7879846 -0.09765625 62.20703125 C-0.09579123 60.41769958 -0.09436772 58.6283674 -0.09336853 56.83903503 C-0.08954999 52.12902416 -0.07972533 47.41904411 -0.06866455 42.70904541 C-0.05843621 37.90303972 -0.05386786 33.09702906 -0.04882812 28.29101562 C-0.03810249 18.86066136 -0.02051102 9.43033807 0 0 Z " fill="#055E46" transform="translate(855,777)"/>
<path d="M0 0 C12.87 0 25.74 0 39 0 C39 11.22 39 22.44 39 34 C26.13 34 13.26 34 0 34 C0 22.78 0 11.56 0 0 Z " fill="#055E46" transform="translate(658,702)"/>
<path d="M0 0 C12.87 0 25.74 0 39 0 C39 10.89 39 21.78 39 33 C26.13 33 13.26 33 0 33 C0 22.11 0 11.22 0 0 Z " fill="#055E46" transform="translate(777,501)"/>
<path d="M0 0 C11.88 0 23.76 0 36 0 C36 10.89 36 21.78 36 33 C24.12 33 12.24 33 0 33 C0 22.11 0 11.22 0 0 Z " fill="#055E46" transform="translate(502,501)"/>
<path d="M0 0 C11.88 0 23.76 0 36 0 C36 10.89 36 21.78 36 33 C24.12 33 12.24 33 0 33 C0 22.11 0 11.22 0 0 Z " fill="#055E46" transform="translate(460,501)"/>
</svg>
