<svg width="659" height="162" viewBox="0 0 659 162" fill="none" xmlns="http://www.w3.org/2000/svg">
<path d="M40.5343 67.223C40.5343 67.223 40.0736 56.5313 45.3497 53.2914L65.7067 70.9141L65.7067 89.9184C56.5637 85.1374 41.2137 75.8076 40.5343 67.223Z" fill="white"/>
<path d="M90.8896 67.2229C90.8896 67.2229 91.3502 56.5319 86.0744 53.2921L65.7101 70.9138L65.7101 89.916C74.8526 85.1353 90.2102 75.807 90.8896 67.2229Z" fill="white"/>
<path d="M29.3724 98.1755C29.3724 98.1755 28.7069 82.749 36.3195 78.0743L65.6915 103.501L65.6924 130.921C52.5004 124.023 30.3527 110.562 29.3724 98.1755Z" fill="white"/>
<path d="M102.027 98.1761C102.027 98.1761 102.692 82.7496 95.0792 78.0748L65.6948 103.502L65.6947 130.922C78.8867 124.024 101.047 110.562 102.027 98.1761Z" fill="white"/>
<path d="M65.7686 31.8953L80.4977 46.6245L65.7515 61.3708L51.0223 46.6416L65.7686 31.8953Z" fill="white"/>
<path fill-rule="evenodd" clip-rule="evenodd" d="M123.05 96.3352V66.266C123.05 34.6866 97.3722 9.08652 65.6964 9.08652C34.0207 9.08652 8.3424 34.6866 8.3424 66.266V96.3352C8.3424 127.915 34.0207 153.515 65.6964 153.515C97.3722 153.515 123.05 127.915 123.05 96.3352ZM65.6964 0.769508C29.4133 0.769508 0 30.0933 0 66.266V96.3352C0 132.508 29.4133 161.832 65.6964 161.832C101.98 161.832 131.393 132.508 131.393 96.3352V66.266C131.393 30.0933 101.98 0.769508 65.6964 0.769508Z" fill="white"/>
<path d="M604.856 126.626V33.0214H617.048V64.2228C618.621 63.5236 620.457 62.8681 622.554 62.2563C624.739 61.5572 627.055 60.9454 629.502 60.421C631.95 59.8966 634.266 59.6344 636.451 59.6344C640.995 59.6344 644.71 60.2462 647.594 61.4698C650.566 62.6059 652.882 64.485 654.542 67.107C656.203 69.6416 657.339 72.9627 657.951 77.0705C658.65 81.1782 659 86.1163 659 91.8846V126.626H646.676V92.6712C646.676 87.2524 646.37 82.9262 645.759 79.6924C645.147 76.4587 643.923 74.1426 642.088 72.7442C640.34 71.2584 637.631 70.5156 633.96 70.5156C631.95 70.5156 629.852 70.6903 627.667 71.0399C625.57 71.3895 623.559 71.8702 621.637 72.482C619.801 73.0064 618.272 73.5308 617.048 74.0552V126.626H604.856Z" fill="white"/>
<path d="M572.284 127.937C565.205 127.937 559.655 126.801 555.635 124.528C551.614 122.168 548.774 118.41 547.113 113.254C545.453 108.097 544.623 101.324 544.623 92.9335C544.623 84.8054 545.54 78.3379 547.376 73.5309C549.211 68.6366 552.183 65.0969 556.29 62.9119C560.398 60.727 565.773 59.6345 572.415 59.6345C573.989 59.6345 575.868 59.7656 578.053 60.0278C580.325 60.2026 582.597 60.4648 584.87 60.8144C587.23 61.164 589.24 61.4699 590.9 61.7321L590.507 71.6955C589.021 71.5207 587.273 71.3459 585.263 71.1711C583.253 70.9963 581.33 70.8652 579.495 70.7778C577.659 70.603 576.13 70.5157 574.906 70.5157C570.187 70.5157 566.516 71.2585 563.894 72.7443C561.359 74.2301 559.568 76.5899 558.519 79.8236C557.558 83.0574 557.077 87.4273 557.077 92.9335C557.077 98.8766 557.514 103.64 558.388 107.223C559.349 110.719 561.097 113.254 563.632 114.827C566.166 116.313 569.925 117.056 574.906 117.056C576.13 117.056 577.659 117.012 579.495 116.924C581.417 116.75 583.384 116.575 585.394 116.4C587.492 116.225 589.283 116.094 590.769 116.007L591.163 125.97C589.415 126.232 587.361 126.495 585.001 126.757C582.728 127.106 580.456 127.369 578.184 127.543C575.911 127.806 573.945 127.937 572.284 127.937Z" fill="white"/>
<path d="M504.537 127.937C497.807 127.937 492.476 126.713 488.543 124.266C484.697 121.731 481.901 117.973 480.153 112.992C478.405 108.01 477.531 101.761 477.531 94.2445C477.531 86.029 478.667 79.3866 480.939 74.3175C483.299 69.2484 486.577 65.5339 490.772 63.1741C494.967 60.8144 499.992 59.6345 505.848 59.6345C514.85 59.6345 521.624 62.0816 526.168 66.976C530.8 71.7829 533.116 79.5614 533.116 90.3115L532.461 98.5707H489.985C490.073 104.863 491.252 109.627 493.525 112.86C495.797 116.007 499.905 117.58 505.848 117.58C508.383 117.58 511.136 117.536 514.107 117.449C517.166 117.274 520.181 117.099 523.153 116.924C526.125 116.75 528.659 116.575 530.757 116.4L531.019 125.577C528.834 125.927 526.212 126.276 523.153 126.626C520.094 127.063 516.904 127.369 513.583 127.543C510.349 127.806 507.334 127.937 504.537 127.937ZM489.985 89.5249H520.924C520.924 82.096 519.701 76.8958 517.254 73.9242C514.894 70.9526 511.092 69.4669 505.848 69.4669C502.439 69.4669 499.555 70.1224 497.195 71.4333C494.836 72.7443 493.044 74.8856 491.82 77.8572C490.597 80.7413 489.985 84.6306 489.985 89.5249Z" fill="white"/>
<path d="M439.647 126.626V47.4421H413.034V36.2988H478.583V47.4421H452.233V126.626H439.647Z" fill="white"/>
<path d="M358.662 155.205V60.9455H370.854V65.5339C372.165 64.7473 373.87 63.917 375.967 63.043C378.065 62.0816 380.293 61.2951 382.653 60.6833C385.013 59.9841 387.285 59.6345 389.47 59.6345C395.151 59.6345 399.74 60.8144 403.236 63.1741C406.819 65.5339 409.441 69.2047 411.101 74.1864C412.849 79.0807 413.723 85.4172 413.723 93.1957C413.723 101.673 412.718 108.49 410.708 113.647C408.785 118.716 405.683 122.387 401.4 124.659C397.205 126.844 391.743 127.937 385.013 127.937C382.391 127.937 379.725 127.762 377.016 127.412C374.394 127.063 372.34 126.757 370.854 126.495V155.205H358.662ZM383.833 117.449C388.203 117.449 391.655 116.619 394.19 114.958C396.812 113.297 398.647 110.675 399.696 107.092C400.745 103.509 401.269 98.8329 401.269 93.0646C401.269 84.6743 400.046 78.8185 397.598 75.4974C395.151 72.0888 391.699 70.3845 387.242 70.3845C385.319 70.3845 383.309 70.6467 381.211 71.1711C379.201 71.6081 377.278 72.1762 375.443 72.8754C373.607 73.4872 372.078 74.1864 370.854 74.973V116.269C372.165 116.444 374.044 116.706 376.492 117.056C379.026 117.318 381.473 117.449 383.833 117.449Z" fill="white"/>
<path d="M314.849 127.937C307.507 127.937 301.739 126.713 297.544 124.266C293.349 121.731 290.377 117.886 288.629 112.729C286.881 107.573 286.007 101.018 286.007 93.0646C286.007 85.4609 286.925 79.2118 288.76 74.3175C290.683 69.4232 293.742 65.7524 297.937 63.3052C302.22 60.8581 307.857 59.6345 314.849 59.6345C321.928 59.6345 327.565 60.8581 331.761 63.3052C335.956 65.7524 338.971 69.4232 340.806 74.3175C342.729 79.2118 343.691 85.4609 343.691 93.0646C343.691 101.018 342.817 107.573 341.069 112.729C339.408 117.886 336.48 121.731 332.285 124.266C328.09 126.713 322.278 127.937 314.849 127.937ZM314.849 117.58C319.481 117.58 322.977 116.75 325.337 115.089C327.697 113.429 329.27 110.807 330.056 107.223C330.843 103.552 331.236 98.8329 331.236 93.0646C331.236 87.3836 330.756 82.8826 329.794 79.5614C328.833 76.1529 327.172 73.7057 324.812 72.2199C322.453 70.7341 319.132 69.9912 314.849 69.9912C310.654 69.9912 307.333 70.7341 304.885 72.2199C302.526 73.7057 300.865 76.1529 299.904 79.5614C298.942 82.8826 298.462 87.3836 298.462 93.0646C298.462 98.8329 298.855 103.552 299.642 107.223C300.428 110.807 301.958 113.429 304.23 115.089C306.59 116.75 310.129 117.58 314.849 117.58Z" fill="white"/>
<path d="M244.208 126.626V60.9453H256.4V69.4667C257.973 68.3306 259.984 67.107 262.431 65.796C264.878 64.485 267.544 63.2614 270.428 62.1252C273.399 60.9016 276.327 60.0276 279.211 59.5033V71.6954C276.415 72.2198 273.53 72.9627 270.559 73.9241C267.675 74.8855 264.965 75.9343 262.431 77.0704C259.984 78.1192 257.973 79.0806 256.4 79.9546V126.626H244.208Z" fill="white"/>
<path d="M205.525 127.937C198.708 127.937 193.071 126.975 188.614 125.052C184.244 123.13 180.835 120.246 178.388 116.4C175.941 112.467 174.236 107.616 173.275 101.848C172.314 95.9923 171.833 89.2626 171.833 81.6589C171.833 73.8804 172.314 67.0633 173.275 61.2075C174.236 55.3518 175.941 50.5012 178.388 46.6556C180.922 42.7227 184.375 39.7948 188.745 37.872C193.115 35.8618 198.752 34.8568 205.656 34.8568C208.715 34.8568 211.818 35.0315 214.964 35.3811C218.111 35.6433 221.039 36.0366 223.748 36.561C226.545 36.998 228.948 37.435 230.958 37.872L230.434 48.2288C228.599 47.8792 226.283 47.5733 223.486 47.3111C220.776 46.9615 217.98 46.6556 215.095 46.3934C212.299 46.1312 209.72 46.0001 207.361 46.0001C202.641 46.0001 198.796 46.6993 195.824 48.0977C192.852 49.4961 190.536 51.6374 188.876 54.5215C187.303 57.4057 186.21 61.0764 185.598 65.5338C185.074 69.9911 184.812 75.3662 184.812 81.6589C184.812 87.7768 185.074 93.0644 185.598 97.5218C186.21 101.979 187.303 105.65 188.876 108.534C190.449 111.331 192.721 113.428 195.693 114.827C198.752 116.138 202.685 116.793 207.492 116.793C211.163 116.793 215.139 116.575 219.422 116.138C223.792 115.701 227.506 115.22 230.565 114.696L230.958 125.184C228.861 125.621 226.37 126.058 223.486 126.495C220.689 126.932 217.717 127.281 214.571 127.543C211.512 127.806 208.497 127.937 205.525 127.937Z" fill="white"/>
</svg>
